{
.appVersion = "1075";
classes = (
{
code = "a b c d e f g h i j k l m n o p q r s t u v w x y z a.end a_x a_x.end a_z aacute aacute.end acircumflex adieresis ae agrave aogonek aring atilde b_s b_s.end b_s_x b_s_z c.end c_x c_z cacute ccaron ccedilla ccircumflex d.end idotless idotless.end e.end e_x e_x.end e_z eacute eacute.end eacute_x ecircumflex edieresis egrave eogonek eth ff ffi ffl f_f_t fi fi.end f_i_x f_i_z fl fl.end f_l_x f_l_z f_t f_u f_u.end f_x g.end g_p g_x g_z h.end i.end ij ij.end i_x i_x.end i_z iacute iacute.end iacute_x iacute_z icircumflex idieresis igrave j.end j_x j_z k.end k.salt l.end l_x l_z lslash m.end m_x m_z mu n.end n_z nacute ntilde o.end o_ae o_s o_s.end o_s_x o_s_z o_x oacute oacute.end oacute_s oacute_s.end oacute_s_x oacute_s_z oacute_x ocircumflex odieresis oe ograve oslash otilde p.salt r_x r_z s.end s_x s_z sacute scaron t.end t_x t_z thorn u.end u_v u_x u_x.end uacute uacute.end ucircumflex udieresis ugrave x.end y.end y_p y_x y_z yacute ydieresis zacute zcaron zdotaccent";
name = all;
},
{
code = "a c d e g h i j k l m n o s t u x y a_x aacute b_s e_x eacute fi fl f_u ij i_x iacute o_s oacute oacute_s u_x uacute ezh gstroke";
name = having_finals;
},
{
code = "a.end c.end d.end e.end g.end h.end i.end j.end k.end l.end m.end n.end o.end s.end t.end u.end x.end y.end a_x.end aacute.end b_s.end e_x.end eacute.end fi.end fl.end f_u.end ij.end i_x.end iacute.end o_s.end oacute.end oacute_s.end u_x.end uacute.end ezh.end gstroke.end";
name = finals;
},
{

glyphs = (
{
color = 4;
glyphname = A;
lastChange = "2016-09-22 17:50:23 +0000";
layers = (
{
background = {
paths = (
{
closed = 1;
nodes = (
"535 0 LINE",
"692 736 LINE",
"668 747 OFFCURVE",
"636 750 OFFCURVE",
"613 750 CURVE SMOOTH",
"496 750 OFFCURVE",
"366 615 OFFCURVE",
"265 455 CURVE",
"244 457 OFFCURVE",
"226 458 OFFCURVE",
"213 458 CURVE SMOOTH",
"96 458 OFFCURVE",
"9 403 OFFCURVE",
"9 335 CURVE SMOOTH",
"9 296 OFFCURVE",
"36 277 OFFCURVE",
"71 277 CURVE SMOOTH",
"102 277 OFFCURVE",
"127 292 OFFCURVE",
"127 316 CURVE SMOOTH",
"127 331 OFFCURVE",
"119 347 OFFCURVE",
"114 347 CURVE",
"127 382 OFFCURVE",
"168 395 OFFCURVE",
"231 399 CURVE",
"143 246 OFFCURVE",
"84 81 OFFCURVE",
"84 -8 CURVE SMOOTH",
"84 -112 OFFCURVE",
"165 -114 OFFCURVE",
"218 -114 CURVE",
"211 -105 OFFCURVE",
"204 -90 OFFCURVE",
"204 -58 CURVE SMOOTH",
"204 46 OFFCURVE",
"259 236 OFFCURVE",
"334 399 CURVE",
"378 395 OFFCURVE",
"417 386 OFFCURVE",
"468 363 CURVE",
"391 0 LINE"
);
},
{
closed = 1;
nodes = (
"477 407 LINE",
"438 423 OFFCURVE",
"395 434 OFFCURVE",
"355 442 CURVE",
"411 554 OFFCURVE",
"475 647 OFFCURVE",
"535 679 CURVE"
);
}
);
};
layerId = UUID0;
paths = (
{
closed = 1;
nodes = (
"211 -105 OFFCURVE",
"204 -90 OFFCURVE",
"204 -58 CURVE SMOOTH",
"204 46 OFFCURVE",
"259 236 OFFCURVE",
"334 399 CURVE",
"378 395 OFFCURVE",
"417 386 OFFCURVE",
"468 363 CURVE",
"391 0 LINE",
"535 0 LINE",
"692 736 LINE",
"668 747 OFFCURVE",
"636 750 OFFCURVE",
"613 750 CURVE SMOOTH",
"496 750 OFFCURVE",
"366 615 OFFCURVE",
"265 455 CURVE",
"244 457 OFFCURVE",
"226 458 OFFCURVE",
"213 458 CURVE SMOOTH",
"96 458 OFFCURVE",
"9 403 OFFCURVE",
"9 335 CURVE SMOOTH",
"9 296 OFFCURVE",
"36 277 OFFCURVE",
"71 277 CURVE SMOOTH",
"102 277 OFFCURVE",
"127 292 OFFCURVE",
"127 316 CURVE SMOOTH",
"127 331 OFFCURVE",
"119 347 OFFCURVE",
"114 347 CURVE",
"127 382 OFFCURVE",
"168 395 OFFCURVE",
"231 399 CURVE",
"143 246 OFFCURVE",
"84 81 OFFCURVE",
"84 -8 CURVE SMOOTH",
"84 -112 OFFCURVE",
"165 -114 OFFCURVE",
"218 -114 CURVE"
);
},
{
closed = 1;
nodes = (
"438 423 OFFCURVE",
"395 434 OFFCURVE",
"355 442 CURVE",
"411 554 OFFCURVE",
"475 647 OFFCURVE",
"535 679 CURVE",
"477 407 LINE"
);
}
);
width = 668;
}
);
unicode = 0041;
},
{
color = 4;
glyphname = Aacute;
lastChange = "2016-09-22 17:50:23 +0000";
layers = (
{
background = {
paths = (
{
closed = 1;
nodes = (
"535 0 LINE",
"692 736 LINE",
"668 747 OFFCURVE",
"636 750 OFFCURVE",
"613 750 CURVE SMOOTH",
"496 750 OFFCURVE",
"366 615 OFFCURVE",
"265 455 CURVE",
"244 457 OFFCURVE",
"226 458 OFFCURVE",
"213 458 CURVE SMOOTH",
"96 458 OFFCURVE",
"9 403 OFFCURVE",
"9 335 CURVE SMOOTH",
"9 296 OFFCURVE",
"36 277 OFFCURVE",
"71 277 CURVE SMOOTH",
"102 277 OFFCURVE",
"127 292 OFFCURVE",
"127 316 CURVE SMOOTH",
"127 331 OFFCURVE",
"119 347 OFFCURVE",
"114 347 CURVE",
"127 382 OFFCURVE",
"168 395 OFFCURVE",
"231 399 CURVE",
"143 246 OFFCURVE",
"84 81 OFFCURVE",
"84 -8 CURVE SMOOTH",
"84 -112 OFFCURVE",
"165 -114 OFFCURVE",
"218 -114 CURVE",
"211 -105 OFFCURVE",
"204 -90 OFFCURVE",
"204 -58 CURVE SMOOTH",
"204 46 OFFCURVE",
"259 236 OFFCURVE",
"334 399 CURVE",
"378 395 OFFCURVE",
"417 386 OFFCURVE",
"468 363 CURVE",
"391 0 LINE"
);
},
{
closed = 1;
nodes = (
"477 407 LINE",
"438 423 OFFCURVE",
"395 434 OFFCURVE",
"355 442 CURVE",
"411 554 OFFCURVE",
"475 647 OFFCURVE",
"535 679 CURVE"
);
},
{
closed = 1;
nodes = (
"561 811 LINE",
"682 1000 LINE",
"577 1000 LINE",
"486 811 LINE"
);
}
);
};
layerId = UUID0;
paths = (
{
closed = 1;
nodes = (
"211 -105 OFFCURVE",
"204 -90 OFFCURVE",
"204 -58 CURVE SMOOTH",
"204 46 OFFCURVE",
"259 236 OFFCURVE",
"334 399 CURVE",
"378 395 OFFCURVE",
"417 386 OFFCURVE",
"468 363 CURVE",
"391 0 LINE",
"535 0 LINE",
"692 736 LINE",
"668 747 OFFCURVE",
"636 750 OFFCURVE",
"613 750 CURVE SMOOTH",
"496 750 OFFCURVE",
"366 615 OFFCURVE",
"265 455 CURVE",
"244 457 OFFCURVE",
"226 458 OFFCURVE",
"213 458 CURVE SMOOTH",
"96 458 OFFCURVE",
"9 403 OFFCURVE",
"9 335 CURVE SMOOTH",
"9 296 OFFCURVE",
"36 277 OFFCURVE",
"71 277 CURVE SMOOTH",
"102 277 OFFCURVE",
"127 292 OFFCURVE",
"127 316 CURVE SMOOTH",
"127 331 OFFCURVE",
"119 347 OFFCURVE",
"114 347 CURVE",
"127 382 OFFCURVE",
"168 395 OFFCURVE",
"231 399 CURVE",
"143 246 OFFCURVE",
"84 81 OFFCURVE",
"84 -8 CURVE SMOOTH",
"84 -112 OFFCURVE",
"165 -114 OFFCURVE",
"218 -114 CURVE"
);
},
{
closed = 1;
nodes = (
"438 423 OFFCURVE",
"395 434 OFFCURVE",
"355 442 CURVE",
"411 554 OFFCURVE",
"475 647 OFFCURVE",
"535 679 CURVE",
"477 407 LINE"
);
},
{
closed = 1;
nodes = (
"649 811 LINE",
"770 1000 LINE",
"665 1000 LINE",
"574 811 LINE"
);
}
);
width = 668;
}
);
unicode = 00C1;
},
{
color = 4;
glyphname = Abreve;
lastChange = "2016-09-22 17:50:23 +0000";
layers = (
{
background = {
paths = (
{
closed = 1;
nodes = (
"535 0 LINE",
"692 736 LINE",
"668 747 OFFCURVE",
"636 750 OFFCURVE",
"613 750 CURVE SMOOTH",
"496 750 OFFCURVE",
"366 615 OFFCURVE",
"265 455 CURVE",
"244 457 OFFCURVE",
"226 458 OFFCURVE",
"213 458 CURVE SMOOTH",
"96 458 OFFCURVE",
"9 403 OFFCURVE",
"9 335 CURVE SMOOTH",
"9 296 OFFCURVE",
"36 277 OFFCURVE",
"71 277 CURVE SMOOTH",
"102 277 OFFCURVE",
"127 292 OFFCURVE",
"127 316 CURVE SMOOTH",
"127 331 OFFCURVE",
"119 347 OFFCURVE",
"114 347 CURVE",
"127 382 OFFCURVE",
"168 395 OFFCURVE",
"231 399 CURVE",
"143 246 OFFCURVE",
"84 81 OFFCURVE",
"84 -8 CURVE SMOOTH",
"84 -112 OFFCURVE",
"165 -114 OFFCURVE",
"218 -114 CURVE",
"211 -105 OFFCURVE",
"204 -90 OFFCURVE",
"204 -58 CURVE SMOOTH",
"204 46 OFFCURVE",
"259 236 OFFCURVE",
"334 399 CURVE",
"378 395 OFFCURVE",
"417 386 OFFCURVE",
"468 363 CURVE",
"391 0 LINE"
);
},
{
closed = 1;
nodes = (
"477 407 LINE",
"438 423 OFFCURVE",
"395 434 OFFCURVE",
"355 442 CURVE",
"411 554 OFFCURVE",
"475 647 OFFCURVE",
"535 679 CURVE"
);
},
{
closed = 1;
nodes = (
"804 920 LINE",
"789 905 OFFCURVE",
"766 897 OFFCURVE",
"741 897 CURVE SMOOTH",
"683 897 OFFCURVE",
"648 930 OFFCURVE",
"576 930 CURVE SMOOTH",
"500 930 OFFCURVE",
"441 896 OFFCURVE",
"409 832 CURVE",
"415 830 LINE",
"434 847 OFFCURVE",
"456 856 OFFCURVE",
"481 856 CURVE SMOOTH",
"537 856 OFFCURVE",
"582 819 OFFCURVE",
"649 819 CURVE SMOOTH",
"725 819 OFFCURVE",
"800 872 OFFCURVE",
"810 919 CURVE"
);
}
);
};
layerId = UUID0;
paths = (
{
closed = 1;
nodes = (
"211 -105 OFFCURVE",
"204 -90 OFFCURVE",
"204 -58 CURVE SMOOTH",
"204 46 OFFCURVE",
"259 236 OFFCURVE",
"334 399 CURVE",
"378 395 OFFCURVE",
"417 386 OFFCURVE",
"468 363 CURVE",
"391 0 LINE",
"535 0 LINE",
"692 736 LINE",
"668 747 OFFCURVE",
"636 750 OFFCURVE",
"613 750 CURVE SMOOTH",
"496 750 OFFCURVE",
"366 615 OFFCURVE",
"265 455 CURVE",
"244 457 OFFCURVE",
"226 458 OFFCURVE",
"213 458 CURVE SMOOTH",
"96 458 OFFCURVE",
"9 403 OFFCURVE",
"9 335 CURVE SMOOTH",
"9 296 OFFCURVE",
"36 277 OFFCURVE",
"71 277 CURVE SMOOTH",
"102 277 OFFCURVE",
"127 292 OFFCURVE",
"127 316 CURVE SMOOTH",
"127 331 OFFCURVE",
"119 347 OFFCURVE",
"114 347 CURVE",
"127 382 OFFCURVE",
"168 395 OFFCURVE",
"231 399 CURVE",
"143 246 OFFCURVE",
"84 81 OFFCURVE",
"84 -8 CURVE SMOOTH",
"84 -112 OFFCURVE",
"165 -114 OFFCURVE",
"218 -114 CURVE"
);
},
{
closed = 1;
nodes = (
"438 423 OFFCURVE",
"395 434 OFFCURVE",
"355 442 CURVE",
"411 554 OFFCURVE",
"475 647 OFFCURVE",
"535 679 CURVE",
"477 407 LINE"
);
},
{
closed = 1;
nodes = (
"722 815 OFFCURVE",
"813 875 OFFCURVE",
"825 954 CURVE",
"739 954 LINE",
"732 908 OFFCURVE",
"685 871 OFFCURVE",
"629 871 CURVE SMOOTH",
"580 871 OFFCURVE",
"551 900 OFFCURVE",
"551 954 CURVE",
"461 954 LINE",
"461 863 OFFCURVE",
"515 815 OFFCURVE",
"614 815 CURVE SMOOTH"
);
}
);
width = 668;
}
);
unicode = 0102;
},
{
color = 4;
glyphname = Abreveacute;
lastChange = "2016-09-22 17:50:23 +0000";
layers = (
{
background = {
paths = (
{
closed = 1;
nodes = (
"535 0 LINE",
"692 736 LINE",
"668 747 OFFCURVE",
"636 750 OFFCURVE",
"613 750 CURVE SMOOTH",
"496 750 OFFCURVE",
"366 615 OFFCURVE",
"265 455 CURVE",
"244 457 OFFCURVE",
"226 458 OFFCURVE",
"213 458 CURVE SMOOTH",
"96 458 OFFCURVE",
"9 403 OFFCURVE",
"9 335 CURVE SMOOTH",
"9 296 OFFCURVE",
"36 277 OFFCURVE",
"71 277 CURVE SMOOTH",
"102 277 OFFCURVE",
"127 292 OFFCURVE",
"127 316 CURVE SMOOTH",
"127 331 OFFCURVE",
"119 347 OFFCURVE",
"114 347 CURVE",
"127 382 OFFCURVE",
"168 395 OFFCURVE",
"231 399 CURVE",
"143 246 OFFCURVE",
"84 81 OFFCURVE",
"84 -8 CURVE SMOOTH",
"84 -112 OFFCURVE",
"165 -114 OFFCURVE",
"218 -114 CURVE",
"211 -105 OFFCURVE",
"204 -90 OFFCURVE",
"204 -58 CURVE SMOOTH",
"204 46 OFFCURVE",
"259 236 OFFCURVE",
"334 399 CURVE",
"378 395 OFFCURVE",
"417 386 OFFCURVE",
"468 363 CURVE",
"391 0 LINE"
);
},
{
closed = 1;
nodes = (
"477 407 LINE",
"438 423 OFFCURVE",
"395 434 OFFCURVE",
"355 442 CURVE",
"411 554 OFFCURVE",
"475 647 OFFCURVE",
"535 679 CURVE"
);
},
{
closed = 1;
nodes = (
"739 954 LINE",
"732 908 OFFCURVE",
"685 871 OFFCURVE",
"629 871 CURVE SMOOTH",
"580 871 OFFCURVE",
"551 900 OFFCURVE",
"551 954 CURVE",
"461 954 LINE",
"461 863 OFFCURVE",
"515 815 OFFCURVE",
"614 815 CURVE SMOOTH",
"722 815 OFFCURVE",
"813 875 OFFCURVE",
"825 954 CURVE"
);
},
{
closed = 1;
nodes = (
"649 811 LINE",
"770 1000 LINE",
"665 1000 LINE",
"574 811 LINE"
);
}
);
};
layerId = UUID0;
paths = (
{
closed = 1;
nodes = (
"211 -105 OFFCURVE",
"204 -90 OFFCURVE",
"204 -58 CURVE SMOOTH",
"204 46 OFFCURVE",
"259 236 OFFCURVE",
"334 399 CURVE",
"378 395 OFFCURVE",
"417 386 OFFCURVE",
"468 363 CURVE",
"391 0 LINE",
"535 0 LINE",
"692 736 LINE",
"668 747 OFFCURVE",
"636 750 OFFCURVE",
"613 750 CURVE SMOOTH",
"496 750 OFFCURVE",
"366 615 OFFCURVE",
"265 455 CURVE",
"244 457 OFFCURVE",
"226 458 OFFCURVE",
"213 458 CURVE SMOOTH",
"96 458 OFFCURVE",
"9 403 OFFCURVE",
"9 335 CURVE SMOOTH",
"9 296 OFFCURVE",
"36 277 OFFCURVE",
"71 277 CURVE SMOOTH",
"102 277 OFFCURVE",
"127 292 OFFCURVE",
"127 316 CURVE SMOOTH",
"127 331 OFFCURVE",
"119 347 OFFCURVE",
"114 347 CURVE",
"127 382 OFFCURVE",
"168 395 OFFCURVE",
"231 399 CURVE",
"143 246 OFFCURVE",
"84 81 OFFCURVE",
"84 -8 CURVE SMOOTH",
"84 -112 OFFCURVE",
"165 -114 OFFCURVE",
"218 -114 CURVE"
);
},
{
closed = 1;
nodes = (
"438 423 OFFCURVE",
"395 434 OFFCURVE",
"355 442 CURVE",
"411 554 OFFCURVE",
"475 647 OFFCURVE",
"535 679 CURVE",
"477 407 LINE"
);
},
{
closed = 1;
nodes = (
"713 783 OFFCURVE",
"790 833 OFFCURVE",
"799 898 CURVE",
"728 898 LINE",
"722 860 OFFCURVE",
"682 829 OFFCURVE",
"635 829 CURVE SMOOTH",
"594 829 OFFCURVE",
"569 854 OFFCURVE",
"569 898 CURVE",
"495 898 LINE",
"495 823 OFFCURVE",
"539 783 OFFCURVE",
"623 783 CURVE SMOOTH"
);
},
{
closed = 1;
nodes = (
"666 866 LINE",
"752 1000 LINE",
"674 1000 LINE",
"612 866 LINE"
);
}
);
width = 668;
}
);
unicode = 1EAE;
},
{
color = 4;
glyphname = Abrevedotbelow;
lastChange = "2016-09-22 17:50:23 +0000";
layers = (
{
background = {
paths = (
{
closed = 1;
nodes = (
"535 0 LINE",
"692 736 LINE",
"668 747 OFFCURVE",
"636 750 OFFCURVE",
"613 750 CURVE SMOOTH",
"496 750 OFFCURVE",
"366 615 OFFCURVE",
"265 455 CURVE",
"244 457 OFFCURVE",
"226 458 OFFCURVE",
"213 458 CURVE SMOOTH",
"96 458 OFFCURVE",
"9 403 OFFCURVE",
"9 335 CURVE SMOOTH",
"9 296 OFFCURVE",
"36 277 OFFCURVE",
"71 277 CURVE SMOOTH",
"102 277 OFFCURVE",
"127 292 OFFCURVE",
"127 316 CURVE SMOOTH",
"127 331 OFFCURVE",
"119 347 OFFCURVE",
"114 347 CURVE",
"127 382 OFFCURVE",
"168 395 OFFCURVE",
"231 399 CURVE",
"143 246 OFFCURVE",
"84 81 OFFCURVE",
"84 -8 CURVE SMOOTH",
"84 -112 OFFCURVE",
"165 -114 OFFCURVE",
"218 -114 CURVE",
"211 -105 OFFCURVE",
"204 -90 OFFCURVE",
"204 -58 CURVE SMOOTH",
"204 46 OFFCURVE",
"259 236 OFFCURVE",
"334 399 CURVE",
"378 395 OFFCURVE",
"417 386 OFFCURVE",
"468 363 CURVE",
"391 0 LINE"
);
},
{
closed = 1;
nodes = (
"477 407 LINE",
"438 423 OFFCURVE",
"395 434 OFFCURVE",
"355 442 CURVE",
"411 554 OFFCURVE",
"475 647 OFFCURVE",
"535 679 CURVE"
);
},
{
closed = 1;
nodes = (
"804 920 LINE",
"789 905 OFFCURVE",
"766 897 OFFCURVE",
"741 897 CURVE SMOOTH",
"683 897 OFFCURVE",
"648 930 OFFCURVE",
"576 930 CURVE SMOOTH",
"500 930 OFFCURVE",
"441 896 OFFCURVE",
"409 832 CURVE",
"415 830 LINE",
"434 847 OFFCURVE",
"456 856 OFFCURVE",
"481 856 CURVE SMOOTH",
"537 856 OFFCURVE",
"582 819 OFFCURVE",
"649 819 CURVE SMOOTH",
"725 819 OFFCURVE",
"800 872 OFFCURVE",
"810 919 CURVE"
);
}
);
};
layerId = UUID0;
paths = (
{
closed = 1;
nodes = (
"211 -105 OFFCURVE",
"204 -90 OFFCURVE",
"204 -58 CURVE SMOOTH",
"204 46 OFFCURVE",
"259 236 OFFCURVE",
"334 399 CURVE",
"378 395 OFFCURVE",
"417 386 OFFCURVE",
"468 363 CURVE",
"391 0 LINE",
"535 0 LINE",
"692 736 LINE",
"668 747 OFFCURVE",
"636 750 OFFCURVE",
"613 750 CURVE SMOOTH",
"496 750 OFFCURVE",
"366 615 OFFCURVE",
"265 455 CURVE",
"244 457 OFFCURVE",
"226 458 OFFCURVE",
"213 458 CURVE SMOOTH",
"96 458 OFFCURVE",
"9 403 OFFCURVE",
"9 335 CURVE SMOOTH",
"9 296 OFFCURVE",
"36 277 OFFCURVE",
"71 277 CURVE SMOOTH",
"102 277 OFFCURVE",
"127 292 OFFCURVE",
"127 316 CURVE SMOOTH",
"127 331 OFFCURVE",
"119 347 OFFCURVE",
"114 347 CURVE",
"127 382 OFFCURVE",
"168 395 OFFCURVE",
"231 399 CURVE",
"143 246 OFFCURVE",
"84 81 OFFCURVE",
"84 -8 CURVE SMOOTH",
"84 -112 OFFCURVE",
"165 -114 OFFCURVE",
"218 -114 CURVE"
);
},
{
closed = 1;
nodes = (
"417 -231 OFFCURVE",
"453 -196 OFFCURVE",
"453 -152 CURVE SMOOTH",
"453 -108 OFFCURVE",
"417 -72 OFFCURVE",
"373 -72 CURVE SMOOTH",
"329 -72 OFFCURVE",
"293 -108 OFFCURVE",
"293 -152 CURVE SMOOTH",
"293 -196 OFFCURVE",
"329 -231 OFFCURVE",
"373 -231 CURVE SMOOTH"
);
},
{
closed = 1;
nodes = (
"438 423 OFFCURVE",
"395 434 OFFCURVE",
"355 442 CURVE",
"411 554 OFFCURVE",
"475 647 OFFCURVE",
"535 679 CURVE",
"477 407 LINE"
);
},
{
closed = 1;
nodes = (
"722 815 OFFCURVE",
"813 875 OFFCURVE",
"825 954 CURVE",
"739 954 LINE",
"732 908 OFFCURVE",
"685 871 OFFCURVE",
"629 871 CURVE SMOOTH",
"580 871 OFFCURVE",
"551 900 OFFCURVE",
"551 954 CURVE",
"461 954 LINE",
"461 863 OFFCURVE",
"515 815 OFFCURVE",
"614 815 CURVE SMOOTH"
);
}
);
width = 668;
}
);
unicode = 1EB6;
},
{
color = 4;
glyphname = Abrevegrave;
lastChange = "2016-09-22 17:50:23 +0000";
layers = (
{
background = {
paths = (
{
closed = 1;
nodes = (
"535 0 LINE",
"692 736 LINE",
"668 747 OFFCURVE",
"636 750 OFFCURVE",
"613 750 CURVE SMOOTH",
"496 750 OFFCURVE",
"366 615 OFFCURVE",
"265 455 CURVE",
"244 457 OFFCURVE",
"226 458 OFFCURVE",
"213 458 CURVE SMOOTH",
"96 458 OFFCURVE",
"9 403 OFFCURVE",
"9 335 CURVE SMOOTH",
"9 296 OFFCURVE",
"36 277 OFFCURVE",
"71 277 CURVE SMOOTH",
"102 277 OFFCURVE",
"127 292 OFFCURVE",
"127 316 CURVE SMOOTH",
"127 331 OFFCURVE",
"119 347 OFFCURVE",
"114 347 CURVE",
"127 382 OFFCURVE",
"168 395 OFFCURVE",
"231 399 CURVE",
"143 246 OFFCURVE",
"84 81 OFFCURVE",
"84 -8 CURVE SMOOTH",
"84 -112 OFFCURVE",
"165 -114 OFFCURVE",
"218 -114 CURVE",
"211 -105 OFFCURVE",
"204 -90 OFFCURVE",
"204 -58 CURVE SMOOTH",
"204 46 OFFCURVE",
"259 236 OFFCURVE",
"334 399 CURVE",
"378 395 OFFCURVE",
"417 386 OFFCURVE",
"468 363 CURVE",
"391 0 LINE"
);
},
{
closed = 1;
nodes = (
"477 407 LINE",
"438 423 OFFCURVE",
"395 434 OFFCURVE",
"355 442 CURVE",
"411 554 OFFCURVE",
"475 647 OFFCURVE",
"535 679 CURVE"
);
},
{
closed = 1;
nodes = (
"728 898 LINE",
"722 860 OFFCURVE",
"682 829 OFFCURVE",
"635 829 CURVE SMOOTH",
"594 829 OFFCURVE",
"569 854 OFFCURVE",
"569 898 CURVE",
"495 898 LINE",
"495 823 OFFCURVE",
"539 783 OFFCURVE",
"623 783 CURVE SMOOTH",
"713 783 OFFCURVE",
"790 833 OFFCURVE",
"799 898 CURVE"
);
},
{
closed = 1;
nodes = (
"673 866 LINE",
"760 1000 LINE",
"672 1000 LINE",
"610 866 LINE"
);
}
);
};
layerId = UUID0;
paths = (
{
closed = 1;
nodes = (
"211 -105 OFFCURVE",
"204 -90 OFFCURVE",
"204 -58 CURVE SMOOTH",
"204 46 OFFCURVE",
"259 236 OFFCURVE",
"334 399 CURVE",
"378 395 OFFCURVE",
"417 386 OFFCURVE",
"468 363 CURVE",
"391 0 LINE",
"535 0 LINE",
"692 736 LINE",
"668 747 OFFCURVE",
"636 750 OFFCURVE",
"613 750 CURVE SMOOTH",
"496 750 OFFCURVE",
"366 615 OFFCURVE",
"265 455 CURVE",
"244 457 OFFCURVE",
"226 458 OFFCURVE",
"213 458 CURVE SMOOTH",
"96 458 OFFCURVE",
"9 403 OFFCURVE",
"9 335 CURVE SMOOTH",
"9 296 OFFCURVE",
"36 277 OFFCURVE",
"71 277 CURVE SMOOTH",
"102 277 OFFCURVE",
"127 292 OFFCURVE",
"127 316 CURVE SMOOTH",
"127 331 OFFCURVE",
"119 347 OFFCURVE",
"114 347 CURVE",
"127 382 OFFCURVE",
"168 395 OFFCURVE",
"231 399 CURVE",
"143 246 OFFCURVE",
"84 81 OFFCURVE",
"84 -8 CURVE SMOOTH",
"84 -112 OFFCURVE",
"165 -114 OFFCURVE",
"218 -114 CURVE"
);
},
{
closed = 1;
nodes = (
"438 423 OFFCURVE",
"395 434 OFFCURVE",
"355 442 CURVE",
"411 554 OFFCURVE",
"475 647 OFFCURVE",
"535 679 CURVE",
"477 407 LINE"
);
},
{
closed = 1;
nodes = (
"713 783 OFFCURVE",
"790 833 OFFCURVE",
"799 898 CURVE",
"728 898 LINE",
"722 860 OFFCURVE",
"682 829 OFFCURVE",
"635 829 CURVE SMOOTH",
"594 829 OFFCURVE",
"569 854 OFFCURVE",
"569 898 CURVE",
"495 898 LINE",
"495 823 OFFCURVE",
"539 783 OFFCURVE",
"623 783 CURVE SMOOTH"
);
},
{
closed = 1;
nodes = (
"677 865 LINE",
"658 1000 LINE",
"577 1000 LINE",
"622 865 LINE"
);
}
);
width = 668;
}
);
unicode = 1EB0;
},
{
color = 4;
glyphname = Abrevehookabove;
lastChange = "2016-09-22 17:50:23 +0000";
layers = (
{
background = {
paths = (
{
closed = 1;
nodes = (
"535 0 LINE",
"692 736 LINE",
"668 747 OFFCURVE",
"636 750 OFFCURVE",
"613 750 CURVE SMOOTH",
"496 750 OFFCURVE",
"366 615 OFFCURVE",
"265 455 CURVE",
"244 457 OFFCURVE",
"226 458 OFFCURVE",
"213 458 CURVE SMOOTH",
"96 458 OFFCURVE",
"9 403 OFFCURVE",
"9 335 CURVE SMOOTH",
"9 296 OFFCURVE",
"36 277 OFFCURVE",
"71 277 CURVE SMOOTH",
"102 277 OFFCURVE",
"127 292 OFFCURVE",
"127 316 CURVE SMOOTH",
"127 331 OFFCURVE",
"119 347 OFFCURVE",
"114 347 CURVE",
"127 382 OFFCURVE",
"168 395 OFFCURVE",
"231 399 CURVE",
"143 246 OFFCURVE",
"84 81 OFFCURVE",
"84 -8 CURVE SMOOTH",
"84 -112 OFFCURVE",
"165 -114 OFFCURVE",
"218 -114 CURVE",
"211 -105 OFFCURVE",
"204 -90 OFFCURVE",
"204 -58 CURVE SMOOTH",
"204 46 OFFCURVE",
"259 236 OFFCURVE",
"334 399 CURVE",
"378 395 OFFCURVE",
"417 386 OFFCURVE",
"468 363 CURVE",
"391 0 LINE"
);
},
{
closed = 1;
nodes = (
"477 407 LINE",
"438 423 OFFCURVE",
"395 434 OFFCURVE",
"355 442 CURVE",
"411 554 OFFCURVE",
"475 647 OFFCURVE",
"535 679 CURVE"
);
},
{
closed = 1;
nodes = (
"728 898 LINE",
"722 860 OFFCURVE",
"682 829 OFFCURVE",
"635 829 CURVE SMOOTH",
"594 829 OFFCURVE",
"569 854 OFFCURVE",
"569 898 CURVE",
"495 898 LINE",
"495 823 OFFCURVE",
"539 783 OFFCURVE",
"623 783 CURVE SMOOTH",
"713 783 OFFCURVE",
"790 833 OFFCURVE",
"799 898 CURVE"
);
},
{
closed = 1;
nodes = (
"673 866 LINE",
"760 1000 LINE",
"672 1000 LINE",
"610 866 LINE"
);
}
);
};
layerId = UUID0;
paths = (
{
closed = 1;
nodes = (
"211 -105 OFFCURVE",
"204 -90 OFFCURVE",
"204 -58 CURVE SMOOTH",
"204 46 OFFCURVE",
"259 236 OFFCURVE",
"334 399 CURVE",
"378 395 OFFCURVE",
"417 386 OFFCURVE",
"468 363 CURVE",
"391 0 LINE",
"535 0 LINE",
"692 736 LINE",
"668 747 OFFCURVE",
"636 750 OFFCURVE",
"613 750 CURVE SMOOTH",
"496 750 OFFCURVE",
"366 615 OFFCURVE",
"265 455 CURVE",
"244 457 OFFCURVE",
"226 458 OFFCURVE",
"213 458 CURVE SMOOTH",
"96 458 OFFCURVE",
"9 403 OFFCURVE",
"9 335 CURVE SMOOTH",
"9 296 OFFCURVE",
"36 277 OFFCURVE",
"71 277 CURVE SMOOTH",
"102 277 OFFCURVE",
"127 292 OFFCURVE",
"127 316 CURVE SMOOTH",
"127 331 OFFCURVE",
"119 347 OFFCURVE",
"114 347 CURVE",
"127 382 OFFCURVE",
"168 395 OFFCURVE",
"231 399 CURVE",
"143 246 OFFCURVE",
"84 81 OFFCURVE",
"84 -8 CURVE SMOOTH",
"84 -112 OFFCURVE",
"165 -114 OFFCURVE",
"218 -114 CURVE"
);
},
{
closed = 1;
nodes = (
"438 423 OFFCURVE",
"395 434 OFFCURVE",
"355 442 CURVE",
"411 554 OFFCURVE",
"475 647 OFFCURVE",
"535 679 CURVE",
"477 407 LINE"
);
},
{
closed = 1;
nodes = (
"713 783 OFFCURVE",
"790 833 OFFCURVE",
"799 898 CURVE",
"742 898 LINE",
"737 860 OFFCURVE",
"682 829 OFFCURVE",
"635 829 CURVE SMOOTH",
"594 829 OFFCURVE",
"555 854 OFFCURVE",
"555 898 CURVE",
"495 898 LINE",
"495 823 OFFCURVE",
"539 783 OFFCURVE",
"623 783 CURVE SMOOTH"
);
},
{
closed = 1;
nodes = (
"646 883 LINE",
"692 886 OFFCURVE",
"722 911 OFFCURVE",
"722 944 CURVE SMOOTH",
"722 977 OFFCURVE",
"692 1000 OFFCURVE",
"648 1000 CURVE SMOOTH",
"624 1000 OFFCURVE",
"597 993 OFFCURVE",
"581 982 CURVE",
"599 954 LINE",
"611 961 OFFCURVE",
"625 965 OFFCURVE",
"641 965 CURVE SMOOTH",
"664 965 OFFCURVE",
"674 957 OFFCURVE",
"674 940 CURVE SMOOTH",
"674 922 OFFCURVE",
"663 913 OFFCURVE",
"641 913 CURVE SMOOTH",
"633 913 OFFCURVE",
"621 915 OFFCURVE",
"610 917 CURVE",
"610 856 LINE",
"644 854 LINE"
);
}
);
width = 668;
}
);
unicode = 1EB2;
},
{
color = 4;
glyphname = Abrevetilde;
lastChange = "2016-09-22 17:50:23 +0000";
layers = (
{
background = {
paths = (
{
closed = 1;
nodes = (
"535 0 LINE",
"692 736 LINE",
"668 747 OFFCURVE",
"636 750 OFFCURVE",
"613 750 CURVE SMOOTH",
"496 750 OFFCURVE",
"366 615 OFFCURVE",
"265 455 CURVE",
"244 457 OFFCURVE",
"226 458 OFFCURVE",
"213 458 CURVE SMOOTH",
"96 458 OFFCURVE",
"9 403 OFFCURVE",
"9 335 CURVE SMOOTH",
"9 296 OFFCURVE",
"36 277 OFFCURVE",
"71 277 CURVE SMOOTH",
"102 277 OFFCURVE",
"127 292 OFFCURVE",
"127 316 CURVE SMOOTH",
"127 331 OFFCURVE",
"119 347 OFFCURVE",
"114 347 CURVE",
"127 382 OFFCURVE",
"168 395 OFFCURVE",
"231 399 CURVE",
"143 246 OFFCURVE",
"84 81 OFFCURVE",
"84 -8 CURVE SMOOTH",
"84 -112 OFFCURVE",
"165 -114 OFFCURVE",
"218 -114 CURVE",
"211 -105 OFFCURVE",
"204 -90 OFFCURVE",
"204 -58 CURVE SMOOTH",
"204 46 OFFCURVE",
"259 236 OFFCURVE",
"334 399 CURVE",
"378 395 OFFCURVE",
"417 386 OFFCURVE",
"468 363 CURVE",
"391 0 LINE"
);
},
{
closed = 1;
nodes = (
"477 407 LINE",
"438 423 OFFCURVE",
"395 434 OFFCURVE",
"355 442 CURVE",
"411 554 OFFCURVE",
"475 647 OFFCURVE",
"535 679 CURVE"
);
},
{
closed = 1;
nodes = (
"728 898 LINE",
"722 860 OFFCURVE",
"682 829 OFFCURVE",
"635 829 CURVE SMOOTH",
"594 829 OFFCURVE",
"569 854 OFFCURVE",
"569 898 CURVE",
"495 898 LINE",
"495 823 OFFCURVE",
"539 783 OFFCURVE",
"623 783 CURVE SMOOTH",
"713 783 OFFCURVE",
"790 833 OFFCURVE",
"799 898 CURVE"
);
},
{
closed = 1;
nodes = (
"673 866 LINE",
"760 1000 LINE",
"672 1000 LINE",
"610 866 LINE"
);
}
);
};
layerId = UUID0;
paths = (
{
closed = 1;
nodes = (
"211 -105 OFFCURVE",
"204 -90 OFFCURVE",
"204 -58 CURVE SMOOTH",
"204 46 OFFCURVE",
"259 236 OFFCURVE",
"334 399 CURVE",
"378 395 OFFCURVE",
"417 386 OFFCURVE",
"468 363 CURVE",
"391 0 LINE",
"535 0 LINE",
"692 736 LINE",
"668 747 OFFCURVE",
"636 750 OFFCURVE",
"613 750 CURVE SMOOTH",
"496 750 OFFCURVE",
"366 615 OFFCURVE",
"265 455 CURVE",
"244 457 OFFCURVE",
"226 458 OFFCURVE",
"213 458 CURVE SMOOTH",
"96 458 OFFCURVE",
"9 403 OFFCURVE",
"9 335 CURVE SMOOTH",
"9 296 OFFCURVE",
"36 277 OFFCURVE",
"71 277 CURVE SMOOTH",
"102 277 OFFCURVE",
"127 292 OFFCURVE",
"127 316 CURVE SMOOTH",
"127 331 OFFCURVE",
"119 347 OFFCURVE",
"114 347 CURVE",
"127 382 OFFCURVE",
"168 395 OFFCURVE",
"231 399 CURVE",
"143 246 OFFCURVE",
"84 81 OFFCURVE",
"84 -8 CURVE SMOOTH",
"84 -112 OFFCURVE",
"165 -114 OFFCURVE",
"218 -114 CURVE"
);
},
{
closed = 1;
nodes = (
"438 423 OFFCURVE",
"395 434 OFFCURVE",
"355 442 CURVE",
"411 554 OFFCURVE",
"475 647 OFFCURVE",
"535 679 CURVE",
"477 407 LINE"
);
},
{
closed = 1;
nodes = (
"713 783 OFFCURVE",
"790 833 OFFCURVE",
"799 898 CURVE",
"728 898 LINE",
"722 860 OFFCURVE",
"682 829 OFFCURVE",
"635 829 CURVE SMOOTH",
"594 829 OFFCURVE",
"569 854 OFFCURVE",
"569 898 CURVE",
"495 898 LINE",
"495 823 OFFCURVE",
"539 783 OFFCURVE",
"623 783 CURVE SMOOTH"
);
},
{
closed = 1;
nodes = (
"738 920 OFFCURVE",
"792 958 OFFCURVE",
"798 991 CURVE",
"794 992 LINE",
"784 981 OFFCURVE",
"768 976 OFFCURVE",
"750 976 CURVE SMOOTH",
"709 976 OFFCURVE",
"684 1000 OFFCURVE",
"633 1000 CURVE SMOOTH",
"580 1000 OFFCURVE",
"538 975 OFFCURVE",
"516 930 CURVE",
"520 929 LINE",
"533 941 OFFCURVE",
"548 947 OFFCURVE",
"566 947 CURVE SMOOTH",
"606 947 OFFCURVE",
"638 920 OFFCURVE",
"685 920 CURVE SMOOTH"
);
}
);
width = 668;
}
);
unicode = 1EB4;
},
{
color = 4;
glyphname = Acaron;
lastChange = "2016-09-22 17:50:23 +0000";
layers = (
{
background = {
paths = (
{
closed = 1;
nodes = (
"535 0 LINE",
"692 736 LINE",
"668 747 OFFCURVE",
"636 750 OFFCURVE",
"613 750 CURVE SMOOTH",
"496 750 OFFCURVE",
"366 615 OFFCURVE",
"265 455 CURVE",
"244 457 OFFCURVE",
"226 458 OFFCURVE",
"213 458 CURVE SMOOTH",
"96 458 OFFCURVE",
"9 403 OFFCURVE",
"9 335 CURVE SMOOTH",
"9 296 OFFCURVE",
"36 277 OFFCURVE",
"71 277 CURVE SMOOTH",
"102 277 OFFCURVE",
"127 292 OFFCURVE",
"127 316 CURVE SMOOTH",
"127 331 OFFCURVE",
"119 347 OFFCURVE",
"114 347 CURVE",
"127 382 OFFCURVE",
"168 395 OFFCURVE",
"231 399 CURVE",
"143 246 OFFCURVE",
"84 81 OFFCURVE",
"84 -8 CURVE SMOOTH",
"84 -112 OFFCURVE",
"165 -114 OFFCURVE",
"218 -114 CURVE",
"211 -105 OFFCURVE",
"204 -90 OFFCURVE",
"204 -58 CURVE SMOOTH",
"204 46 OFFCURVE",
"259 236 OFFCURVE",
"334 399 CURVE",
"378 395 OFFCURVE",
"417 386 OFFCURVE",
"468 363 CURVE",
"391 0 LINE"
);
},
{
closed = 1;
nodes = (
"477 407 LINE",
"438 423 OFFCURVE",
"395 434 OFFCURVE",
"355 442 CURVE",
"411 554 OFFCURVE",
"475 647 OFFCURVE",
"535 679 CURVE"
);
},
{
closed = 1;
nodes = (
"764 811 LINE",
"704 1000 LINE",
"683 1000 LINE",
"471 811 LINE",
"515 811 LINE",
"671 891 LINE",
"731 811 LINE"
);
}
);
};
layerId = UUID0;
paths = (
{
closed = 1;
nodes = (
"211 -105 OFFCURVE",
"204 -90 OFFCURVE",
"204 -58 CURVE SMOOTH",
"204 46 OFFCURVE",
"259 236 OFFCURVE",
"334 399 CURVE",
"378 395 OFFCURVE",
"417 386 OFFCURVE",
"468 363 CURVE",
"391 0 LINE",
"535 0 LINE",
"692 736 LINE",
"668 747 OFFCURVE",
"636 750 OFFCURVE",
"613 750 CURVE SMOOTH",
"496 750 OFFCURVE",
"366 615 OFFCURVE",
"265 455 CURVE",
"244 457 OFFCURVE",
"226 458 OFFCURVE",
"213 458 CURVE SMOOTH",
"96 458 OFFCURVE",
"9 403 OFFCURVE",
"9 335 CURVE SMOOTH",
"9 296 OFFCURVE",
"36 277 OFFCURVE",
"71 277 CURVE SMOOTH",
"102 277 OFFCURVE",
"127 292 OFFCURVE",
"127 316 CURVE SMOOTH",
"127 331 OFFCURVE",
"119 347 OFFCURVE",
"114 347 CURVE",
"127 382 OFFCURVE",
"168 395 OFFCURVE",
"231 399 CURVE",
"143 246 OFFCURVE",
"84 81 OFFCURVE",
"84 -8 CURVE SMOOTH",
"84 -112 OFFCURVE",
"165 -114 OFFCURVE",
"218 -114 CURVE"
);
},
{
closed = 1;
nodes = (
"438 423 OFFCURVE",
"395 434 OFFCURVE",
"355 442 CURVE",
"411 554 OFFCURVE",
"475 647 OFFCURVE",
"535 679 CURVE",
"477 407 LINE"
);
},
{
closed = 1;
nodes = (
"644 811 LINE",
"856 1000 LINE",
"812 1000 LINE",
"655 920 LINE",
"595 1000 LINE",
"563 1000 LINE",
"623 811 LINE"
);
}
);
width = 668;
}
);
unicode = 01CD;
},
{
color = 4;
glyphname = Acircumflex;
lastChange = "2016-09-22 17:50:23 +0000";
layers = (
{
background = {
paths = (
{
closed = 1;
nodes = (
"535 0 LINE",
"692 736 LINE",
"668 747 OFFCURVE",
"636 750 OFFCURVE",
"613 750 CURVE SMOOTH",
"496 750 OFFCURVE",
"366 615 OFFCURVE",
"265 455 CURVE",
"244 457 OFFCURVE",
"226 458 OFFCURVE",
"213 458 CURVE SMOOTH",
"96 458 OFFCURVE",
"9 403 OFFCURVE",
"9 335 CURVE SMOOTH",
"9 296 OFFCURVE",
"36 277 OFFCURVE",
"71 277 CURVE SMOOTH",
"102 277 OFFCURVE",
"127 292 OFFCURVE",
"127 316 CURVE SMOOTH",
"127 331 OFFCURVE",
"119 347 OFFCURVE",
"114 347 CURVE",
"127 382 OFFCURVE",
"168 395 OFFCURVE",
"231 399 CURVE",
"143 246 OFFCURVE",
"84 81 OFFCURVE",
"84 -8 CURVE SMOOTH",
"84 -112 OFFCURVE",
"165 -114 OFFCURVE",
"218 -114 CURVE",
"211 -105 OFFCURVE",
"204 -90 OFFCURVE",
"204 -58 CURVE SMOOTH",
"204 46 OFFCURVE",
"259 236 OFFCURVE",
"334 399 CURVE",
"378 395 OFFCURVE",
"417 386 OFFCURVE",
"468 363 CURVE",
"391 0 LINE"
);
},
{
closed = 1;
nodes = (
"477 407 LINE",
"438 423 OFFCURVE",
"395 434 OFFCURVE",
"355 442 CURVE",
"411 554 OFFCURVE",
"475 647 OFFCURVE",
"535 679 CURVE"
);
},
{
closed = 1;
nodes = (
"700 811 LINE",
"640 1000 LINE",
"619 1000 LINE",
"407 811 LINE",
"451 811 LINE",
"608 891 LINE",
"668 811 LINE"
);
}
);
};
layerId = UUID0;
paths = (
{
closed = 1;
nodes = (
"211 -105 OFFCURVE",
"204 -90 OFFCURVE",
"204 -58 CURVE SMOOTH",
"204 46 OFFCURVE",
"259 236 OFFCURVE",
"334 399 CURVE",
"378 395 OFFCURVE",
"417 386 OFFCURVE",
"468 363 CURVE",
"391 0 LINE",
"535 0 LINE",
"692 736 LINE",
"668 747 OFFCURVE",
"636 750 OFFCURVE",
"613 750 CURVE SMOOTH",
"496 750 OFFCURVE",
"366 615 OFFCURVE",
"265 455 CURVE",
"244 457 OFFCURVE",
"226 458 OFFCURVE",
"213 458 CURVE SMOOTH",
"96 458 OFFCURVE",
"9 403 OFFCURVE",
"9 335 CURVE SMOOTH",
"9 296 OFFCURVE",
"36 277 OFFCURVE",
"71 277 CURVE SMOOTH",
"102 277 OFFCURVE",
"127 292 OFFCURVE",
"127 316 CURVE SMOOTH",
"127 331 OFFCURVE",
"119 347 OFFCURVE",
"114 347 CURVE",
"127 382 OFFCURVE",
"168 395 OFFCURVE",
"231 399 CURVE",
"143 246 OFFCURVE",
"84 81 OFFCURVE",
"84 -8 CURVE SMOOTH",
"84 -112 OFFCURVE",
"165 -114 OFFCURVE",
"218 -114 CURVE"
);
},
{
closed = 1;
nodes = (
"438 423 OFFCURVE",
"395 434 OFFCURVE",
"355 442 CURVE",
"411 554 OFFCURVE",
"475 647 OFFCURVE",
"535 679 CURVE",
"477 407 LINE"
);
},
{
closed = 1;
nodes = (
"515 811 LINE",
"671 891 LINE",
"731 811 LINE",
"764 811 LINE",
"704 1000 LINE",
"683 1000 LINE",
"471 811 LINE"
);
}
);
width = 668;
}
);
unicode = 00C2;
},
{
color = 4;
glyphname = Acircumflexacute;
lastChange = "2016-09-22 17:50:23 +0000";
layers = (
{
background = {
paths = (
{
closed = 1;
nodes = (
"535 0 LINE",
"692 736 LINE",
"668 747 OFFCURVE",
"636 750 OFFCURVE",
"613 750 CURVE SMOOTH",
"496 750 OFFCURVE",
"366 615 OFFCURVE",
"265 455 CURVE",
"244 457 OFFCURVE",
"226 458 OFFCURVE",
"213 458 CURVE SMOOTH",
"96 458 OFFCURVE",
"9 403 OFFCURVE",
"9 335 CURVE SMOOTH",
"9 296 OFFCURVE",
"36 277 OFFCURVE",
"71 277 CURVE SMOOTH",
"102 277 OFFCURVE",
"127 292 OFFCURVE",
"127 316 CURVE SMOOTH",
"127 331 OFFCURVE",
"119 347 OFFCURVE",
"114 347 CURVE",
"127 382 OFFCURVE",
"168 395 OFFCURVE",
"231 399 CURVE",
"143 246 OFFCURVE",
"84 81 OFFCURVE",
"84 -8 CURVE SMOOTH",
"84 -112 OFFCURVE",
"165 -114 OFFCURVE",
"218 -114 CURVE",
"211 -105 OFFCURVE",
"204 -90 OFFCURVE",
"204 -58 CURVE SMOOTH",
"204 46 OFFCURVE",
"259 236 OFFCURVE",
"334 399 CURVE",
"378 395 OFFCURVE",
"417 386 OFFCURVE",
"468 363 CURVE",
"391 0 LINE"
);
},
{
closed = 1;
nodes = (
"477 407 LINE",
"438 423 OFFCURVE",
"395 434 OFFCURVE",
"355 442 CURVE",
"411 554 OFFCURVE",
"475 647 OFFCURVE",
"535 679 CURVE"
);
},
{
closed = 1;
nodes = (
"764 811 LINE",
"704 1000 LINE",
"683 1000 LINE",
"471 811 LINE",
"515 811 LINE",
"671 891 LINE",
"731 811 LINE"
);
}
);
};
layerId = UUID0;
paths = (
{
closed = 1;
nodes = (
"211 -105 OFFCURVE",
"204 -90 OFFCURVE",
"204 -58 CURVE SMOOTH",
"204 46 OFFCURVE",
"259 236 OFFCURVE",
"334 399 CURVE",
"378 395 OFFCURVE",
"417 386 OFFCURVE",
"468 363 CURVE",
"391 0 LINE",
"535 0 LINE",
"692 736 LINE",
"668 747 OFFCURVE",
"636 750 OFFCURVE",
"613 750 CURVE SMOOTH",
"496 750 OFFCURVE",
"366 615 OFFCURVE",
"265 455 CURVE",
"244 457 OFFCURVE",
"226 458 OFFCURVE",
"213 458 CURVE SMOOTH",
"96 458 OFFCURVE",
"9 403 OFFCURVE",
"9 335 CURVE SMOOTH",
"9 296 OFFCURVE",
"36 277 OFFCURVE",
"71 277 CURVE SMOOTH",
"102 277 OFFCURVE",
"127 292 OFFCURVE",
"127 316 CURVE SMOOTH",
"127 331 OFFCURVE",
"119 347 OFFCURVE",
"114 347 CURVE",
"127 382 OFFCURVE",
"168 395 OFFCURVE",
"231 399 CURVE",
"143 246 OFFCURVE",
"84 81 OFFCURVE",
"84 -8 CURVE SMOOTH",
"84 -112 OFFCURVE",
"165 -114 OFFCURVE",
"218 -114 CURVE"
);
},
{
closed = 1;
nodes = (
"438 423 OFFCURVE",
"395 434 OFFCURVE",
"355 442 CURVE",
"411 554 OFFCURVE",
"475 647 OFFCURVE",
"535 679 CURVE",
"477 407 LINE"
);
},
{
closed = 1;
nodes = (
"548 811 LINE",
"658 883 LINE",
"690 811 LINE",
"735 811 LINE",
"685 950 LINE",
"667 950 LINE",
"489 811 LINE"
);
},
{
closed = 1;
nodes = (
"773 866 LINE",
"860 1000 LINE",
"791 1000 LINE",
"729 866 LINE"
);
}
);
width = 668;
}
);
unicode = 1EA4;
},
{
color = 4;
glyphname = Acircumflexdotbelow;
lastChange = "2016-09-22 17:50:23 +0000";
layers = (
{
background = {
paths = (
{
closed = 1;
nodes = (
"535 0 LINE",
"692 736 LINE",
"668 747 OFFCURVE",
"636 750 OFFCURVE",
"613 750 CURVE SMOOTH",
"496 750 OFFCURVE",
"366 615 OFFCURVE",
"265 455 CURVE",
"244 457 OFFCURVE",
"226 458 OFFCURVE",
"213 458 CURVE SMOOTH",
"96 458 OFFCURVE",
"9 403 OFFCURVE",
"9 335 CURVE SMOOTH",
"9 296 OFFCURVE",
"36 277 OFFCURVE",
"71 277 CURVE SMOOTH",
"102 277 OFFCURVE",
"127 292 OFFCURVE",
"127 316 CURVE SMOOTH",
"127 331 OFFCURVE",
"119 347 OFFCURVE",
"114 347 CURVE",
"127 382 OFFCURVE",
"168 395 OFFCURVE",
"231 399 CURVE",
"143 246 OFFCURVE",
"84 81 OFFCURVE",
"84 -8 CURVE SMOOTH",
"84 -112 OFFCURVE",
"165 -114 OFFCURVE",
"218 -114 CURVE",
"211 -105 OFFCURVE",
"204 -90 OFFCURVE",
"204 -58 CURVE SMOOTH",
"204 46 OFFCURVE",
"259 236 OFFCURVE",
"334 399 CURVE",
"378 395 OFFCURVE",
"417 386 OFFCURVE",
"468 363 CURVE",
"391 0 LINE"
);
},
{
closed = 1;
nodes = (
"477 407 LINE",
"438 423 OFFCURVE",
"395 434 OFFCURVE",
"355 442 CURVE",
"411 554 OFFCURVE",
"475 647 OFFCURVE",
"535 679 CURVE"
);
},
{
closed = 1;
nodes = (
"764 811 LINE",
"704 1000 LINE",
"683 1000 LINE",
"471 811 LINE",
"515 811 LINE",
"671 891 LINE",
"731 811 LINE"
);
}
);
};
layerId = UUID0;
paths = (
{
closed = 1;
nodes = (
"211 -105 OFFCURVE",
"204 -90 OFFCURVE",
"204 -58 CURVE SMOOTH",
"204 46 OFFCURVE",
"259 236 OFFCURVE",
"334 399 CURVE",
"378 395 OFFCURVE",
"417 386 OFFCURVE",
"468 363 CURVE",
"391 0 LINE",
"535 0 LINE",
"692 736 LINE",
"668 747 OFFCURVE",
"636 750 OFFCURVE",
"613 750 CURVE SMOOTH",
"496 750 OFFCURVE",
"366 615 OFFCURVE",
"265 455 CURVE",
"244 457 OFFCURVE",
"226 458 OFFCURVE",
"213 458 CURVE SMOOTH",
"96 458 OFFCURVE",
"9 403 OFFCURVE",
"9 335 CURVE SMOOTH",
"9 296 OFFCURVE",
"36 277 OFFCURVE",
"71 277 CURVE SMOOTH",
"102 277 OFFCURVE",
"127 292 OFFCURVE",
"127 316 CURVE SMOOTH",
"127 331 OFFCURVE",
"119 347 OFFCURVE",
"114 347 CURVE",
"127 382 OFFCURVE",
"168 395 OFFCURVE",
"231 399 CURVE",
"143 246 OFFCURVE",
"84 81 OFFCURVE",
"84 -8 CURVE SMOOTH",
"84 -112 OFFCURVE",
"165 -114 OFFCURVE",
"218 -114 CURVE"
);
},
{
closed = 1;
nodes = (
"417 -231 OFFCURVE",
"453 -196 OFFCURVE",
"453 -152 CURVE SMOOTH",
"453 -108 OFFCURVE",
"417 -72 OFFCURVE",
"373 -72 CURVE SMOOTH",
"329 -72 OFFCURVE",
"293 -108 OFFCURVE",
"293 -152 CURVE SMOOTH",
"293 -196 OFFCURVE",
"329 -231 OFFCURVE",
"373 -231 CURVE SMOOTH"
);
},
{
closed = 1;
nodes = (
"438 423 OFFCURVE",
"395 434 OFFCURVE",
"355 442 CURVE",
"411 554 OFFCURVE",
"475 647 OFFCURVE",
"535 679 CURVE",
"477 407 LINE"
);
},
{
closed = 1;
nodes = (
"515 811 LINE",
"671 891 LINE",
"731 811 LINE",
"764 811 LINE",
"704 1000 LINE",
"683 1000 LINE",
"471 811 LINE"
);
}
);
width = 668;
}
);
unicode = 1EAC;
},
{
color = 4;
glyphname = Acircumflexgrave;
lastChange = "2016-09-22 17:50:23 +0000";
layers = (
{
background = {
paths = (
{
closed = 1;
nodes = (
"535 0 LINE",
"692 736 LINE",
"668 747 OFFCURVE",
"636 750 OFFCURVE",
"613 750 CURVE SMOOTH",
"496 750 OFFCURVE",
"366 615 OFFCURVE",
"265 455 CURVE",
"244 457 OFFCURVE",
"226 458 OFFCURVE",
"213 458 CURVE SMOOTH",
"96 458 OFFCURVE",
"9 403 OFFCURVE",
"9 335 CURVE SMOOTH",
"9 296 OFFCURVE",
"36 277 OFFCURVE",
"71 277 CURVE SMOOTH",
"102 277 OFFCURVE",
"127 292 OFFCURVE",
"127 316 CURVE SMOOTH",
"127 331 OFFCURVE",
"119 347 OFFCURVE",
"114 347 CURVE",
"127 382 OFFCURVE",
"168 395 OFFCURVE",
"231 399 CURVE",
"143 246 OFFCURVE",
"84 81 OFFCURVE",
"84 -8 CURVE SMOOTH",
"84 -112 OFFCURVE",
"165 -114 OFFCURVE",
"218 -114 CURVE",
"211 -105 OFFCURVE",
"204 -90 OFFCURVE",
"204 -58 CURVE SMOOTH",
"204 46 OFFCURVE",
"259 236 OFFCURVE",
"334 399 CURVE",
"378 395 OFFCURVE",
"417 386 OFFCURVE",
"468 363 CURVE",
"391 0 LINE"
);
},
{
closed = 1;
nodes = (
"477 407 LINE",
"438 423 OFFCURVE",
"395 434 OFFCURVE",
"355 442 CURVE",
"411 554 OFFCURVE",
"475 647 OFFCURVE",
"535 679 CURVE"
);
},
{
closed = 1;
nodes = (
"735 811 LINE",
"685 950 LINE",
"667 950 LINE",
"489 811 LINE",
"548 811 LINE",
"658 883 LINE",
"690 811 LINE"
);
},
{
closed = 1;
nodes = (
"773 866 LINE",
"860 1000 LINE",
"791 1000 LINE",
"729 866 LINE"
);
}
);
};
layerId = UUID0;
paths = (
{
closed = 1;
nodes = (
"211 -105 OFFCURVE",
"204 -90 OFFCURVE",
"204 -58 CURVE SMOOTH",
"204 46 OFFCURVE",
"259 236 OFFCURVE",
"334 399 CURVE",
"378 395 OFFCURVE",
"417 386 OFFCURVE",
"468 363 CURVE",
"391 0 LINE",
"535 0 LINE",
"692 736 LINE",
"668 747 OFFCURVE",
"636 750 OFFCURVE",
"613 750 CURVE SMOOTH",
"496 750 OFFCURVE",
"366 615 OFFCURVE",
"265 455 CURVE",
"244 457 OFFCURVE",
"226 458 OFFCURVE",
"213 458 CURVE SMOOTH",
"96 458 OFFCURVE",
"9 403 OFFCURVE",
"9 335 CURVE SMOOTH",
"9 296 OFFCURVE",
"36 277 OFFCURVE",
"71 277 CURVE SMOOTH",
"102 277 OFFCURVE",
"127 292 OFFCURVE",
"127 316 CURVE SMOOTH",
"127 331 OFFCURVE",
"119 347 OFFCURVE",
"114 347 CURVE",
"127 382 OFFCURVE",
"168 395 OFFCURVE",
"231 399 CURVE",
"143 246 OFFCURVE",
"84 81 OFFCURVE",
"84 -8 CURVE SMOOTH",
"84 -112 OFFCURVE",
"165 -114 OFFCURVE",
"218 -114 CURVE"
);
},
{
closed = 1;
nodes = (
"438 423 OFFCURVE",
"395 434 OFFCURVE",
"355 442 CURVE",
"411 554 OFFCURVE",
"475 647 OFFCURVE",
"535 679 CURVE",
"477 407 LINE"
);
},
{
closed = 1;
nodes = (
"548 811 LINE",
"658 883 LINE",
"690 811 LINE",
"735 811 LINE",
"685 950 LINE",
"667 950 LINE",
"489 811 LINE"
);
},
{
closed = 1;
nodes = (
"813 865 LINE",
"794 1000 LINE",
"728 1000 LINE",
"773 865 LINE"
);
}
);
width = 668;
}
);
unicode = 1EA6;
},
{
color = 4;
glyphname = Acircumflexhookabove;
lastChange = "2016-09-22 17:50:23 +0000";
layers = (
{
background = {
paths = (
{
closed = 1;
nodes = (
"535 0 LINE",
"692 736 LINE",
"668 747 OFFCURVE",
"636 750 OFFCURVE",
"613 750 CURVE SMOOTH",
"496 750 OFFCURVE",
"366 615 OFFCURVE",
"265 455 CURVE",
"244 457 OFFCURVE",
"226 458 OFFCURVE",
"213 458 CURVE SMOOTH",
"96 458 OFFCURVE",
"9 403 OFFCURVE",
"9 335 CURVE SMOOTH",
"9 296 OFFCURVE",
"36 277 OFFCURVE",
"71 277 CURVE SMOOTH",
"102 277 OFFCURVE",
"127 292 OFFCURVE",
"127 316 CURVE SMOOTH",
"127 331 OFFCURVE",
"119 347 OFFCURVE",
"114 347 CURVE",
"127 382 OFFCURVE",
"168 395 OFFCURVE",
"231 399 CURVE",
"143 246 OFFCURVE",
"84 81 OFFCURVE",
"84 -8 CURVE SMOOTH",
"84 -112 OFFCURVE",
"165 -114 OFFCURVE",
"218 -114 CURVE",
"211 -105 OFFCURVE",
"204 -90 OFFCURVE",
"204 -58 CURVE SMOOTH",
"204 46 OFFCURVE",
"259 236 OFFCURVE",
"334 399 CURVE",
"378 395 OFFCURVE",
"417 386 OFFCURVE",
"468 363 CURVE",
"391 0 LINE"
);
},
{
closed = 1;
nodes = (
"477 407 LINE",
"438 423 OFFCURVE",
"395 434 OFFCURVE",
"355 442 CURVE",
"411 554 OFFCURVE",
"475 647 OFFCURVE",
"535 679 CURVE"
);
},
{
closed = 1;
nodes = (
"735 811 LINE",
"685 950 LINE",
"667 950 LINE",
"489 811 LINE",
"548 811 LINE",
"658 883 LINE",
"690 811 LINE"
);
},
{
closed = 1;
nodes = (
"773 866 LINE",
"860 1000 LINE",
"791 1000 LINE",
"729 866 LINE"
);
}
);
};
layerId = UUID0;
paths = (
{
closed = 1;
nodes = (
"211 -105 OFFCURVE",
"204 -90 OFFCURVE",
"204 -58 CURVE SMOOTH",
"204 46 OFFCURVE",
"259 236 OFFCURVE",
"334 399 CURVE",
"378 395 OFFCURVE",
"417 386 OFFCURVE",
"468 363 CURVE",
"391 0 LINE",
"535 0 LINE",
"692 736 LINE",
"668 747 OFFCURVE",
"636 750 OFFCURVE",
"613 750 CURVE SMOOTH",
"496 750 OFFCURVE",
"366 615 OFFCURVE",
"265 455 CURVE",
"244 457 OFFCURVE",
"226 458 OFFCURVE",
"213 458 CURVE SMOOTH",
"96 458 OFFCURVE",
"9 403 OFFCURVE",
"9 335 CURVE SMOOTH",
"9 296 OFFCURVE",
"36 277 OFFCURVE",
"71 277 CURVE SMOOTH",
"102 277 OFFCURVE",
"127 292 OFFCURVE",
"127 316 CURVE SMOOTH",
"127 331 OFFCURVE",
"119 347 OFFCURVE",
"114 347 CURVE",
"127 382 OFFCURVE",
"168 395 OFFCURVE",
"231 399 CURVE",
"143 246 OFFCURVE",
"84 81 OFFCURVE",
"84 -8 CURVE SMOOTH",
"84 -112 OFFCURVE",
"165 -114 OFFCURVE",
"218 -114 CURVE"
);
},
{
closed = 1;
nodes = (
"438 423 OFFCURVE",
"395 434 OFFCURVE",
"355 442 CURVE",
"411 554 OFFCURVE",
"475 647 OFFCURVE",
"535 679 CURVE",
"477 407 LINE"
);
},
{
closed = 1;
nodes = (
"548 811 LINE",
"658 883 LINE",
"690 811 LINE",
"735 811 LINE",
"685 950 LINE",
"667 950 LINE",
"489 811 LINE"
);
},
{
closed = 1;
nodes = (
"783 883 LINE",
"829 886 OFFCURVE",
"859 911 OFFCURVE",
"859 944 CURVE SMOOTH",
"859 977 OFFCURVE",
"829 1000 OFFCURVE",
"785 1000 CURVE SMOOTH",
"761 1000 OFFCURVE",
"733 993 OFFCURVE",
"718 982 CURVE",
"736 954 LINE",
"748 961 OFFCURVE",
"762 965 OFFCURVE",
"778 965 CURVE SMOOTH",
"800 965 OFFCURVE",
"811 957 OFFCURVE",
"811 940 CURVE SMOOTH",
"811 922 OFFCURVE",
"799 913 OFFCURVE",
"778 913 CURVE SMOOTH",
"770 913 OFFCURVE",
"757 915 OFFCURVE",
"747 917 CURVE",
"747 856 LINE",
"780 854 LINE"
);
}
);
width = 668;
}
);
unicode = 1EA8;
},
{
color = 4;
glyphname = Acircumflextilde;
lastChange = "2016-09-22 17:50:23 +0000";
layers = (
{
background = {
paths = (
{
closed = 1;
nodes = (
"535 0 LINE",
"692 736 LINE",
"668 747 OFFCURVE",
"636 750 OFFCURVE",
"613 750 CURVE SMOOTH",
"496 750 OFFCURVE",
"366 615 OFFCURVE",
"265 455 CURVE",
"244 457 OFFCURVE",
"226 458 OFFCURVE",
"213 458 CURVE SMOOTH",
"96 458 OFFCURVE",
"9 403 OFFCURVE",
"9 335 CURVE SMOOTH",
"9 296 OFFCURVE",
"36 277 OFFCURVE",
"71 277 CURVE SMOOTH",
"102 277 OFFCURVE",
"127 292 OFFCURVE",
"127 316 CURVE SMOOTH",
"127 331 OFFCURVE",
"119 347 OFFCURVE",
"114 347 CURVE",
"127 382 OFFCURVE",
"168 395 OFFCURVE",
"231 399 CURVE",
"143 246 OFFCURVE",
"84 81 OFFCURVE",
"84 -8 CURVE SMOOTH",
"84 -112 OFFCURVE",
"165 -114 OFFCURVE",
"218 -114 CURVE",
"211 -105 OFFCURVE",
"204 -90 OFFCURVE",
"204 -58 CURVE SMOOTH",
"204 46 OFFCURVE",
"259 236 OFFCURVE",
"334 399 CURVE",
"378 395 OFFCURVE",
"417 386 OFFCURVE",
"468 363 CURVE",
"391 0 LINE"
);
},
{
closed = 1;
nodes = (
"477 407 LINE",
"438 423 OFFCURVE",
"395 434 OFFCURVE",
"355 442 CURVE",
"411 554 OFFCURVE",
"475 647 OFFCURVE",
"535 679 CURVE"
);
},
{
closed = 1;
nodes = (
"735 811 LINE",
"685 950 LINE",
"667 950 LINE",
"489 811 LINE",
"548 811 LINE",
"658 883 LINE",
"690 811 LINE"
);
},
{
closed = 1;
nodes = (
"773 866 LINE",
"860 1000 LINE",
"791 1000 LINE",
"729 866 LINE"
);
}
);
};
layerId = UUID0;
paths = (
{
closed = 1;
nodes = (
"211 -105 OFFCURVE",
"204 -90 OFFCURVE",
"204 -58 CURVE SMOOTH",
"204 46 OFFCURVE",
"259 236 OFFCURVE",
"334 399 CURVE",
"378 395 OFFCURVE",
"417 386 OFFCURVE",
"468 363 CURVE",
"391 0 LINE",
"535 0 LINE",
"692 736 LINE",
"668 747 OFFCURVE",
"636 750 OFFCURVE",
"613 750 CURVE SMOOTH",
"496 750 OFFCURVE",
"366 615 OFFCURVE",
"265 455 CURVE",
"244 457 OFFCURVE",
"226 458 OFFCURVE",
"213 458 CURVE SMOOTH",
"96 458 OFFCURVE",
"9 403 OFFCURVE",
"9 335 CURVE SMOOTH",
"9 296 OFFCURVE",
"36 277 OFFCURVE",
"71 277 CURVE SMOOTH",
"102 277 OFFCURVE",
"127 292 OFFCURVE",
"127 316 CURVE SMOOTH",
"127 331 OFFCURVE",
"119 347 OFFCURVE",
"114 347 CURVE",
"127 382 OFFCURVE",
"168 395 OFFCURVE",
"231 399 CURVE",
"143 246 OFFCURVE",
"84 81 OFFCURVE",
"84 -8 CURVE SMOOTH",
"84 -112 OFFCURVE",
"165 -114 OFFCURVE",
"218 -114 CURVE"
);
},
{
closed = 1;
nodes = (
"438 423 OFFCURVE",
"395 434 OFFCURVE",
"355 442 CURVE",
"411 554 OFFCURVE",
"475 647 OFFCURVE",
"535 679 CURVE",
"477 407 LINE"
);
},
{
closed = 1;
nodes = (
"548 811 LINE",
"658 883 LINE",
"690 811 LINE",
"735 811 LINE",
"685 950 LINE",
"667 950 LINE",
"489 811 LINE"
);
},
{
closed = 1;
nodes = (
"758 920 OFFCURVE",
"811 958 OFFCURVE",
"818 991 CURVE",
"813 992 LINE",
"803 981 OFFCURVE",
"787 976 OFFCURVE",
"770 976 CURVE SMOOTH",
"729 976 OFFCURVE",
"704 1000 OFFCURVE",
"653 1000 CURVE SMOOTH",
"599 1000 OFFCURVE",
"557 975 OFFCURVE",
"535 930 CURVE",
"540 929 LINE",
"553 941 OFFCURVE",
"568 947 OFFCURVE",
"585 947 CURVE SMOOTH",
"625 947 OFFCURVE",
"657 920 OFFCURVE",
"704 920 CURVE SMOOTH"
);
}
);
width = 668;
}
);
unicode = 1EAA;
},
{
color = 4;
glyphname = Adblgrave;
lastChange = "2016-09-22 17:50:23 +0000";
layers = (
{
background = {
paths = (
{
closed = 1;
nodes = (
"535 0 LINE",
"692 736 LINE",
"668 747 OFFCURVE",
"636 750 OFFCURVE",
"613 750 CURVE SMOOTH",
"496 750 OFFCURVE",
"366 615 OFFCURVE",
"265 455 CURVE",
"244 457 OFFCURVE",
"226 458 OFFCURVE",
"213 458 CURVE SMOOTH",
"96 458 OFFCURVE",
"9 403 OFFCURVE",
"9 335 CURVE SMOOTH",
"9 296 OFFCURVE",
"36 277 OFFCURVE",
"71 277 CURVE SMOOTH",
"102 277 OFFCURVE",
"127 292 OFFCURVE",
"127 316 CURVE SMOOTH",
"127 331 OFFCURVE",
"119 347 OFFCURVE",
"114 347 CURVE",
"127 382 OFFCURVE",
"168 395 OFFCURVE",
"231 399 CURVE",
"143 246 OFFCURVE",
"84 81 OFFCURVE",
"84 -8 CURVE SMOOTH",
"84 -112 OFFCURVE",
"165 -114 OFFCURVE",
"218 -114 CURVE",
"211 -105 OFFCURVE",
"204 -90 OFFCURVE",
"204 -58 CURVE SMOOTH",
"204 46 OFFCURVE",
"259 236 OFFCURVE",
"334 399 CURVE",
"378 395 OFFCURVE",
"417 386 OFFCURVE",
"468 363 CURVE",
"391 0 LINE"
);
},
{
closed = 1;
nodes = (
"477 407 LINE",
"438 423 OFFCURVE",
"395 434 OFFCURVE",
"355 442 CURVE",
"411 554 OFFCURVE",
"475 647 OFFCURVE",
"535 679 CURVE"
);
},
{
closed = 1;
nodes = (
"804 920 LINE",
"789 905 OFFCURVE",
"766 897 OFFCURVE",
"741 897 CURVE SMOOTH",
"683 897 OFFCURVE",
"648 930 OFFCURVE",
"576 930 CURVE SMOOTH",
"500 930 OFFCURVE",
"441 896 OFFCURVE",
"409 832 CURVE",
"415 830 LINE",
"434 847 OFFCURVE",
"456 856 OFFCURVE",
"481 856 CURVE SMOOTH",
"537 856 OFFCURVE",
"582 819 OFFCURVE",
"649 819 CURVE SMOOTH",
"725 819 OFFCURVE",
"800 872 OFFCURVE",
"810 919 CURVE"
);
}
);
};
layerId = UUID0;
paths = (
{
closed = 1;
nodes = (
"211 -105 OFFCURVE",
"204 -90 OFFCURVE",
"204 -58 CURVE SMOOTH",
"204 46 OFFCURVE",
"259 236 OFFCURVE",
"334 399 CURVE",
"378 395 OFFCURVE",
"417 386 OFFCURVE",
"468 363 CURVE",
"391 0 LINE",
"535 0 LINE",
"692 736 LINE",
"668 747 OFFCURVE",
"636 750 OFFCURVE",
"613 750 CURVE SMOOTH",
"496 750 OFFCURVE",
"366 615 OFFCURVE",
"265 455 CURVE",
"244 457 OFFCURVE",
"226 458 OFFCURVE",
"213 458 CURVE SMOOTH",
"96 458 OFFCURVE",
"9 403 OFFCURVE",
"9 335 CURVE SMOOTH",
"9 296 OFFCURVE",
"36 277 OFFCURVE",
"71 277 CURVE SMOOTH",
"102 277 OFFCURVE",
"127 292 OFFCURVE",
"127 316 CURVE SMOOTH",
"127 331 OFFCURVE",
"119 347 OFFCURVE",
"114 347 CURVE",
"127 382 OFFCURVE",
"168 395 OFFCURVE",
"231 399 CURVE",
"143 246 OFFCURVE",
"84 81 OFFCURVE",
"84 -8 CURVE SMOOTH",
"84 -112 OFFCURVE",
"165 -114 OFFCURVE",
"218 -114 CURVE"
);
},
{
closed = 1;
nodes = (
"438 423 OFFCURVE",
"395 434 OFFCURVE",
"355 442 CURVE",
"411 554 OFFCURVE",
"475 647 OFFCURVE",
"535 679 CURVE",
"477 407 LINE"
);
},
{
closed = 1;
nodes = (
"547 811 LINE",
"456 1000 LINE",
"351 1000 LINE",
"492 811 LINE"
);
},
{
closed = 1;
nodes = (
"708 811 LINE",
"618 1000 LINE",
"513 1000 LINE",
"654 811 LINE"
);
}
);
width = 668;
}
);
unicode = 0200;
},
{
color = 4;
glyphname = Adieresis;
lastChange = "2016-09-22 17:50:23 +0000";
layers = (
{
background = {
paths = (
{
closed = 1;
nodes = (
"535 0 LINE",
"692 736 LINE",
"668 747 OFFCURVE",
"636 750 OFFCURVE",
"613 750 CURVE SMOOTH",
"496 750 OFFCURVE",
"366 615 OFFCURVE",
"265 455 CURVE",
"244 457 OFFCURVE",
"226 458 OFFCURVE",
"213 458 CURVE SMOOTH",
"96 458 OFFCURVE",
"9 403 OFFCURVE",
"9 335 CURVE SMOOTH",
"9 296 OFFCURVE",
"36 277 OFFCURVE",
"71 277 CURVE SMOOTH",
"102 277 OFFCURVE",
"127 292 OFFCURVE",
"127 316 CURVE SMOOTH",
"127 331 OFFCURVE",
"119 347 OFFCURVE",
"114 347 CURVE",
"127 382 OFFCURVE",
"168 395 OFFCURVE",
"231 399 CURVE",
"143 246 OFFCURVE",
"84 81 OFFCURVE",
"84 -8 CURVE SMOOTH",
"84 -112 OFFCURVE",
"165 -114 OFFCURVE",
"218 -114 CURVE",
"211 -105 OFFCURVE",
"204 -90 OFFCURVE",
"204 -58 CURVE SMOOTH",
"204 46 OFFCURVE",
"259 236 OFFCURVE",
"334 399 CURVE",
"378 395 OFFCURVE",
"417 386 OFFCURVE",
"468 363 CURVE",
"391 0 LINE"
);
},
{
closed = 1;
nodes = (
"477 407 LINE",
"438 423 OFFCURVE",
"395 434 OFFCURVE",
"355 442 CURVE",
"411 554 OFFCURVE",
"475 647 OFFCURVE",
"535 679 CURVE"
);
},
{
closed = 1;
nodes = (
"524 823 OFFCURVE",
"552 849 OFFCURVE",
"552 884 CURVE SMOOTH",
"552 917 OFFCURVE",
"524 945 OFFCURVE",
"491 945 CURVE SMOOTH",
"456 945 OFFCURVE",
"430 917 OFFCURVE",
"430 884 CURVE SMOOTH",
"430 849 OFFCURVE",
"456 823 OFFCURVE",
"491 823 CURVE SMOOTH"
);
},
{
closed = 1;
nodes = (
"732 917 OFFCURVE",
"704 945 OFFCURVE",
"671 945 CURVE SMOOTH",
"636 945 OFFCURVE",
"610 917 OFFCURVE",
"610 884 CURVE SMOOTH",
"610 849 OFFCURVE",
"636 823 OFFCURVE",
"671 823 CURVE SMOOTH",
"704 823 OFFCURVE",
"732 849 OFFCURVE",
"732 884 CURVE SMOOTH"
);
}
);
};
layerId = UUID0;
paths = (
{
closed = 1;
nodes = (
"211 -105 OFFCURVE",
"204 -90 OFFCURVE",
"204 -58 CURVE SMOOTH",
"204 46 OFFCURVE",
"259 236 OFFCURVE",
"334 399 CURVE",
"378 395 OFFCURVE",
"417 386 OFFCURVE",
"468 363 CURVE",
"391 0 LINE",
"535 0 LINE",
"692 736 LINE",
"668 747 OFFCURVE",
"636 750 OFFCURVE",
"613 750 CURVE SMOOTH",
"496 750 OFFCURVE",
"366 615 OFFCURVE",
"265 455 CURVE",
"244 457 OFFCURVE",
"226 458 OFFCURVE",
"213 458 CURVE SMOOTH",
"96 458 OFFCURVE",
"9 403 OFFCURVE",
"9 335 CURVE SMOOTH",
"9 296 OFFCURVE",
"36 277 OFFCURVE",
"71 277 CURVE SMOOTH",
"102 277 OFFCURVE",
"127 292 OFFCURVE",
"127 316 CURVE SMOOTH",
"127 331 OFFCURVE",
"119 347 OFFCURVE",
"114 347 CURVE",
"127 382 OFFCURVE",
"168 395 OFFCURVE",
"231 399 CURVE",
"143 246 OFFCURVE",
"84 81 OFFCURVE",
"84 -8 CURVE SMOOTH",
"84 -112 OFFCURVE",
"165 -114 OFFCURVE",
"218 -114 CURVE"
);
},
{
closed = 1;
nodes = (
"438 423 OFFCURVE",
"395 434 OFFCURVE",
"355 442 CURVE",
"411 554 OFFCURVE",
"475 647 OFFCURVE",
"535 679 CURVE",
"477 407 LINE"
);
},
{
closed = 1;
nodes = (
"548 823 OFFCURVE",
"576 849 OFFCURVE",
"576 884 CURVE SMOOTH",
"576 917 OFFCURVE",
"548 945 OFFCURVE",
"516 945 CURVE SMOOTH",
"480 945 OFFCURVE",
"455 917 OFFCURVE",
"455 884 CURVE SMOOTH",
"455 849 OFFCURVE",
"480 823 OFFCURVE",
"516 823 CURVE SMOOTH"
);
},
{
closed = 1;
nodes = (
"729 823 OFFCURVE",
"756 849 OFFCURVE",
"756 884 CURVE SMOOTH",
"756 917 OFFCURVE",
"729 945 OFFCURVE",
"695 945 CURVE SMOOTH",
"661 945 OFFCURVE",
"634 917 OFFCURVE",
"634 884 CURVE SMOOTH",
"634 849 OFFCURVE",
"661 823 OFFCURVE",
"695 823 CURVE SMOOTH"
);
}
);
width = 668;
}
);
unicode = 00C4;
},
{
color = 4;
glyphname = Adotbelow;
lastChange = "2016-09-22 17:50:23 +0000";
layers = (
{
background = {
paths = (
{
closed = 1;
nodes = (
"535 0 LINE",
"692 736 LINE",
"668 747 OFFCURVE",
"636 750 OFFCURVE",
"613 750 CURVE SMOOTH",
"496 750 OFFCURVE",
"366 615 OFFCURVE",
"265 455 CURVE",
"244 457 OFFCURVE",
"226 458 OFFCURVE",
"213 458 CURVE SMOOTH",
"96 458 OFFCURVE",
"9 403 OFFCURVE",
"9 335 CURVE SMOOTH",
"9 296 OFFCURVE",
"36 277 OFFCURVE",
"71 277 CURVE SMOOTH",
"102 277 OFFCURVE",
"127 292 OFFCURVE",
"127 316 CURVE SMOOTH",
"127 331 OFFCURVE",
"119 347 OFFCURVE",
"114 347 CURVE",
"127 382 OFFCURVE",
"168 395 OFFCURVE",
"231 399 CURVE",
"143 246 OFFCURVE",
"84 81 OFFCURVE",
"84 -8 CURVE SMOOTH",
"84 -112 OFFCURVE",
"165 -114 OFFCURVE",
"218 -114 CURVE",
"211 -105 OFFCURVE",
"204 -90 OFFCURVE",
"204 -58 CURVE SMOOTH",
"204 46 OFFCURVE",
"259 236 OFFCURVE",
"334 399 CURVE",
"378 395 OFFCURVE",
"417 386 OFFCURVE",
"468 363 CURVE",
"391 0 LINE"
);
},
{
closed = 1;
nodes = (
"477 407 LINE",
"438 423 OFFCURVE",
"395 434 OFFCURVE",
"355 442 CURVE",
"411 554 OFFCURVE",
"475 647 OFFCURVE",
"535 679 CURVE"
);
},
{
closed = 1;
nodes = (
"804 920 LINE",
"789 905 OFFCURVE",
"766 897 OFFCURVE",
"741 897 CURVE SMOOTH",
"683 897 OFFCURVE",
"648 930 OFFCURVE",
"576 930 CURVE SMOOTH",
"500 930 OFFCURVE",
"441 896 OFFCURVE",
"409 832 CURVE",
"415 830 LINE",
"434 847 OFFCURVE",
"456 856 OFFCURVE",
"481 856 CURVE SMOOTH",
"537 856 OFFCURVE",
"582 819 OFFCURVE",
"649 819 CURVE SMOOTH",
"725 819 OFFCURVE",
"800 872 OFFCURVE",
"810 919 CURVE"
);
}
);
};
layerId = UUID0;
paths = (
{
closed = 1;
nodes = (
"211 -105 OFFCURVE",
"204 -90 OFFCURVE",
"204 -58 CURVE SMOOTH",
"204 46 OFFCURVE",
"259 236 OFFCURVE",
"334 399 CURVE",
"378 395 OFFCURVE",
"417 386 OFFCURVE",
"468 363 CURVE",
"391 0 LINE",
"535 0 LINE",
"692 736 LINE",
"668 747 OFFCURVE",
"636 750 OFFCURVE",
"613 750 CURVE SMOOTH",
"496 750 OFFCURVE",
"366 615 OFFCURVE",
"265 455 CURVE",
"244 457 OFFCURVE",
"226 458 OFFCURVE",
"213 458 CURVE SMOOTH",
"96 458 OFFCURVE",
"9 403 OFFCURVE",
"9 335 CURVE SMOOTH",
"9 296 OFFCURVE",
"36 277 OFFCURVE",
"71 277 CURVE SMOOTH",
"102 277 OFFCURVE",
"127 292 OFFCURVE",
"127 316 CURVE SMOOTH",
"127 331 OFFCURVE",
"119 347 OFFCURVE",
"114 347 CURVE",
"127 382 OFFCURVE",
"168 395 OFFCURVE",
"231 399 CURVE",
"143 246 OFFCURVE",
"84 81 OFFCURVE",
"84 -8 CURVE SMOOTH",
"84 -112 OFFCURVE",
"165 -114 OFFCURVE",
"218 -114 CURVE"
);
},
{
closed = 1;
nodes = (
"417 -231 OFFCURVE",
"453 -196 OFFCURVE",
"453 -152 CURVE SMOOTH",
"453 -108 OFFCURVE",
"417 -72 OFFCURVE",
"373 -72 CURVE SMOOTH",
"329 -72 OFFCURVE",
"293 -108 OFFCURVE",
"293 -152 CURVE SMOOTH",
"293 -196 OFFCURVE",
"329 -231 OFFCURVE",
"373 -231 CURVE SMOOTH"
);
},
{
closed = 1;
nodes = (
"438 423 OFFCURVE",
"395 434 OFFCURVE",
"355 442 CURVE",
"411 554 OFFCURVE",
"475 647 OFFCURVE",
"535 679 CURVE",
"477 407 LINE"
);
}
);
width = 668;
}
);
unicode = 1EA0;
},
{
color = 4;
glyphname = Agrave;
lastChange = "2016-09-22 17:50:23 +0000";
layers = (
{
background = {
paths = (
{
closed = 1;
nodes = (
"535 0 LINE",
"692 736 LINE",
"668 747 OFFCURVE",
"636 750 OFFCURVE",
"613 750 CURVE SMOOTH",
"496 750 OFFCURVE",
"366 615 OFFCURVE",
"265 455 CURVE",
"244 457 OFFCURVE",
"226 458 OFFCURVE",
"213 458 CURVE SMOOTH",
"96 458 OFFCURVE",
"9 403 OFFCURVE",
"9 335 CURVE SMOOTH",
"9 296 OFFCURVE",
"36 277 OFFCURVE",
"71 277 CURVE SMOOTH",
"102 277 OFFCURVE",
"127 292 OFFCURVE",
"127 316 CURVE SMOOTH",
"127 331 OFFCURVE",
"119 347 OFFCURVE",
"114 347 CURVE",
"127 382 OFFCURVE",
"168 395 OFFCURVE",
"231 399 CURVE",
"143 246 OFFCURVE",
"84 81 OFFCURVE",
"84 -8 CURVE SMOOTH",
"84 -112 OFFCURVE",
"165 -114 OFFCURVE",
"218 -114 CURVE",
"211 -105 OFFCURVE",
"204 -90 OFFCURVE",
"204 -58 CURVE SMOOTH",
"204 46 OFFCURVE",
"259 236 OFFCURVE",
"334 399 CURVE",
"378 395 OFFCURVE",
"417 386 OFFCURVE",
"468 363 CURVE",
"391 0 LINE"
);
},
{
closed = 1;
nodes = (
"477 407 LINE",
"438 423 OFFCURVE",
"395 434 OFFCURVE",
"355 442 CURVE",
"411 554 OFFCURVE",
"475 647 OFFCURVE",
"535 679 CURVE"
);
},
{
closed = 1;
nodes = (
"571 811 LINE",
"542 1000 LINE",
"437 1000 LINE",
"496 811 LINE"
);
}
);
};
layerId = UUID0;
paths = (
{
closed = 1;
nodes = (
"211 -105 OFFCURVE",
"204 -90 OFFCURVE",
"204 -58 CURVE SMOOTH",
"204 46 OFFCURVE",
"259 236 OFFCURVE",
"334 399 CURVE",
"378 395 OFFCURVE",
"417 386 OFFCURVE",
"468 363 CURVE",
"391 0 LINE",
"535 0 LINE",
"692 736 LINE",
"668 747 OFFCURVE",
"636 750 OFFCURVE",
"613 750 CURVE SMOOTH",
"496 750 OFFCURVE",
"366 615 OFFCURVE",
"265 455 CURVE",
"244 457 OFFCURVE",
"226 458 OFFCURVE",
"213 458 CURVE SMOOTH",
"96 458 OFFCURVE",
"9 403 OFFCURVE",
"9 335 CURVE SMOOTH",
"9 296 OFFCURVE",
"36 277 OFFCURVE",
"71 277 CURVE SMOOTH",
"102 277 OFFCURVE",
"127 292 OFFCURVE",
"127 316 CURVE SMOOTH",
"127 331 OFFCURVE",
"119 347 OFFCURVE",
"114 347 CURVE",
"127 382 OFFCURVE",
"168 395 OFFCURVE",
"231 399 CURVE",
"143 246 OFFCURVE",
"84 81 OFFCURVE",
"84 -8 CURVE SMOOTH",
"84 -112 OFFCURVE",
"165 -114 OFFCURVE",
"218 -114 CURVE"
);
},
{
closed = 1;
nodes = (
"438 423 OFFCURVE",
"395 434 OFFCURVE",
"355 442 CURVE",
"411 554 OFFCURVE",
"475 647 OFFCURVE",
"535 679 CURVE",
"477 407 LINE"
);
},
{
closed = 1;
nodes = (
"620 811 LINE",
"591 1000 LINE",
"486 1000 LINE",
"545 811 LINE"
);
}
);
width = 668;
}
);
unicode = 00C0;
},
{
color = 4;
glyphname = Ahookabove;
lastChange = "2016-09-22 17:50:23 +0000";
layers = (
{
background = {
paths = (
{
closed = 1;
nodes = (
"535 0 LINE",
"692 736 LINE",
"668 747 OFFCURVE",
"636 750 OFFCURVE",
"613 750 CURVE SMOOTH",
"496 750 OFFCURVE",
"366 615 OFFCURVE",
"265 455 CURVE",
"244 457 OFFCURVE",
"226 458 OFFCURVE",
"213 458 CURVE SMOOTH",
"96 458 OFFCURVE",
"9 403 OFFCURVE",
"9 335 CURVE SMOOTH",
"9 296 OFFCURVE",
"36 277 OFFCURVE",
"71 277 CURVE SMOOTH",
"102 277 OFFCURVE",
"127 292 OFFCURVE",
"127 316 CURVE SMOOTH",
"127 331 OFFCURVE",
"119 347 OFFCURVE",
"114 347 CURVE",
"127 382 OFFCURVE",
"168 395 OFFCURVE",
"231 399 CURVE",
"143 246 OFFCURVE",
"84 81 OFFCURVE",
"84 -8 CURVE SMOOTH",
"84 -112 OFFCURVE",
"165 -114 OFFCURVE",
"218 -114 CURVE",
"211 -105 OFFCURVE",
"204 -90 OFFCURVE",
"204 -58 CURVE SMOOTH",
"204 46 OFFCURVE",
"259 236 OFFCURVE",
"334 399 CURVE",
"378 395 OFFCURVE",
"417 386 OFFCURVE",
"468 363 CURVE",
"391 0 LINE"
);
},
{
closed = 1;
nodes = (
"477 407 LINE",
"438 423 OFFCURVE",
"395 434 OFFCURVE",
"355 442 CURVE",
"411 554 OFFCURVE",
"475 647 OFFCURVE",
"535 679 CURVE"
);
},
{
closed = 1;
nodes = (
"620 811 LINE",
"591 1000 LINE",
"486 1000 LINE",
"545 811 LINE"
);
}
);
};
layerId = UUID0;
paths = (
{
closed = 1;
nodes = (
"211 -105 OFFCURVE",
"204 -90 OFFCURVE",
"204 -58 CURVE SMOOTH",
"204 46 OFFCURVE",
"259 236 OFFCURVE",
"334 399 CURVE",
"378 395 OFFCURVE",
"417 386 OFFCURVE",
"468 363 CURVE",
"391 0 LINE",
"535 0 LINE",
"692 736 LINE",
"668 747 OFFCURVE",
"636 750 OFFCURVE",
"613 750 CURVE SMOOTH",
"496 750 OFFCURVE",
"366 615 OFFCURVE",
"265 455 CURVE",
"244 457 OFFCURVE",
"226 458 OFFCURVE",
"213 458 CURVE SMOOTH",
"96 458 OFFCURVE",
"9 403 OFFCURVE",
"9 335 CURVE SMOOTH",
"9 296 OFFCURVE",
"36 277 OFFCURVE",
"71 277 CURVE SMOOTH",
"102 277 OFFCURVE",
"127 292 OFFCURVE",
"127 316 CURVE SMOOTH",
"127 331 OFFCURVE",
"119 347 OFFCURVE",
"114 347 CURVE",
"127 382 OFFCURVE",
"168 395 OFFCURVE",
"231 399 CURVE",
"143 246 OFFCURVE",
"84 81 OFFCURVE",
"84 -8 CURVE SMOOTH",
"84 -112 OFFCURVE",
"165 -114 OFFCURVE",
"218 -114 CURVE"
);
},
{
closed = 1;
nodes = (
"438 423 OFFCURVE",
"395 434 OFFCURVE",
"355 442 CURVE",
"411 554 OFFCURVE",
"475 647 OFFCURVE",
"535 679 CURVE",
"477 407 LINE"
);
},
{
closed = 1;
nodes = (
"637 833 LINE",
"699 838 OFFCURVE",
"742 873 OFFCURVE",
"742 919 CURVE SMOOTH",
"742 967 OFFCURVE",
"699 1000 OFFCURVE",
"639 1000 CURVE SMOOTH",
"603 1000 OFFCURVE",
"563 989 OFFCURVE",
"541 975 CURVE",
"567 933 LINE",
"584 944 OFFCURVE",
"605 949 OFFCURVE",
"627 949 CURVE SMOOTH",
"658 949 OFFCURVE",
"674 938 OFFCURVE",
"674 913 CURVE SMOOTH",
"674 891 OFFCURVE",
"657 877 OFFCURVE",
"627 877 CURVE SMOOTH",
"614 877 OFFCURVE",
"598 879 OFFCURVE",
"583 882 CURVE",
"583 794 LINE",
"629 792 LINE"
);
}
);
width = 668;
}
);
unicode = 1EA2;
},
{
color = 4;
glyphname = Ainvertedbreve;
lastChange = "2016-09-22 17:50:23 +0000";
layers = (
{
background = {
paths = (
{
closed = 1;
nodes = (
"535 0 LINE",
"692 736 LINE",
"668 747 OFFCURVE",
"636 750 OFFCURVE",
"613 750 CURVE SMOOTH",
"496 750 OFFCURVE",
"366 615 OFFCURVE",
"265 455 CURVE",
"244 457 OFFCURVE",
"226 458 OFFCURVE",
"213 458 CURVE SMOOTH",
"96 458 OFFCURVE",
"9 403 OFFCURVE",
"9 335 CURVE SMOOTH",
"9 296 OFFCURVE",
"36 277 OFFCURVE",
"71 277 CURVE SMOOTH",
"102 277 OFFCURVE",
"127 292 OFFCURVE",
"127 316 CURVE SMOOTH",
"127 331 OFFCURVE",
"119 347 OFFCURVE",
"114 347 CURVE",
"127 382 OFFCURVE",
"168 395 OFFCURVE",
"231 399 CURVE",
"143 246 OFFCURVE",
"84 81 OFFCURVE",
"84 -8 CURVE SMOOTH",
"84 -112 OFFCURVE",
"165 -114 OFFCURVE",
"218 -114 CURVE",
"211 -105 OFFCURVE",
"204 -90 OFFCURVE",
"204 -58 CURVE SMOOTH",
"204 46 OFFCURVE",
"259 236 OFFCURVE",
"334 399 CURVE",
"378 395 OFFCURVE",
"417 386 OFFCURVE",
"468 363 CURVE",
"391 0 LINE"
);
},
{
closed = 1;
nodes = (
"477 407 LINE",
"438 423 OFFCURVE",
"395 434 OFFCURVE",
"355 442 CURVE",
"411 554 OFFCURVE",
"475 647 OFFCURVE",
"535 679 CURVE"
);
},
{
closed = 1;
nodes = (
"804 920 LINE",
"789 905 OFFCURVE",
"766 897 OFFCURVE",
"741 897 CURVE SMOOTH",
"683 897 OFFCURVE",
"648 930 OFFCURVE",
"576 930 CURVE SMOOTH",
"500 930 OFFCURVE",
"441 896 OFFCURVE",
"409 832 CURVE",
"415 830 LINE",
"434 847 OFFCURVE",
"456 856 OFFCURVE",
"481 856 CURVE SMOOTH",
"537 856 OFFCURVE",
"582 819 OFFCURVE",
"649 819 CURVE SMOOTH",
"725 819 OFFCURVE",
"800 872 OFFCURVE",
"810 919 CURVE"
);
}
);
};
layerId = UUID0;
paths = (
{
closed = 1;
nodes = (
"211 -105 OFFCURVE",
"204 -90 OFFCURVE",
"204 -58 CURVE SMOOTH",
"204 46 OFFCURVE",
"259 236 OFFCURVE",
"334 399 CURVE",
"378 395 OFFCURVE",
"417 386 OFFCURVE",
"468 363 CURVE",
"391 0 LINE",
"535 0 LINE",
"692 736 LINE",
"668 747 OFFCURVE",
"636 750 OFFCURVE",
"613 750 CURVE SMOOTH",
"496 750 OFFCURVE",
"366 615 OFFCURVE",
"265 455 CURVE",
"244 457 OFFCURVE",
"226 458 OFFCURVE",
"213 458 CURVE SMOOTH",
"96 458 OFFCURVE",
"9 403 OFFCURVE",
"9 335 CURVE SMOOTH",
"9 296 OFFCURVE",
"36 277 OFFCURVE",
"71 277 CURVE SMOOTH",
"102 277 OFFCURVE",
"127 292 OFFCURVE",
"127 316 CURVE SMOOTH",
"127 331 OFFCURVE",
"119 347 OFFCURVE",
"114 347 CURVE",
"127 382 OFFCURVE",
"168 395 OFFCURVE",
"231 399 CURVE",
"143 246 OFFCURVE",
"84 81 OFFCURVE",
"84 -8 CURVE SMOOTH",
"84 -112 OFFCURVE",
"165 -114 OFFCURVE",
"218 -114 CURVE"
);
},
{
closed = 1;
nodes = (
"438 423 OFFCURVE",
"395 434 OFFCURVE",
"355 442 CURVE",
"411 554 OFFCURVE",
"475 647 OFFCURVE",
"535 679 CURVE",
"477 407 LINE"
);
},
{
closed = 1;
nodes = (
"532 822 LINE",
"538 868 OFFCURVE",
"586 905 OFFCURVE",
"641 905 CURVE SMOOTH",
"691 905 OFFCURVE",
"720 875 OFFCURVE",
"720 822 CURVE",
"809 822 LINE",
"809 912 OFFCURVE",
"756 960 OFFCURVE",
"657 960 CURVE SMOOTH",
"549 960 OFFCURVE",
"457 900 OFFCURVE",
"446 822 CURVE"
);
}
);
width = 668;
}
);
unicode = 0202;
},
{
color = 4;
glyphname = Amacron;
lastChange = "2016-09-22 17:50:23 +0000";
layers = (
{
background = {
paths = (
{
closed = 1;
nodes = (
"535 0 LINE",
"692 736 LINE",
"668 747 OFFCURVE",
"636 750 OFFCURVE",
"613 750 CURVE SMOOTH",
"496 750 OFFCURVE",
"366 615 OFFCURVE",
"265 455 CURVE",
"244 457 OFFCURVE",
"226 458 OFFCURVE",
"213 458 CURVE SMOOTH",
"96 458 OFFCURVE",
"9 403 OFFCURVE",
"9 335 CURVE SMOOTH",
"9 296 OFFCURVE",
"36 277 OFFCURVE",
"71 277 CURVE SMOOTH",
"102 277 OFFCURVE",
"127 292 OFFCURVE",
"127 316 CURVE SMOOTH",
"127 331 OFFCURVE",
"119 347 OFFCURVE",
"114 347 CURVE",
"127 382 OFFCURVE",
"168 395 OFFCURVE",
"231 399 CURVE",
"143 246 OFFCURVE",
"84 81 OFFCURVE",
"84 -8 CURVE SMOOTH",
"84 -112 OFFCURVE",
"165 -114 OFFCURVE",
"218 -114 CURVE",
"211 -105 OFFCURVE",
"204 -90 OFFCURVE",
"204 -58 CURVE SMOOTH",
"204 46 OFFCURVE",
"259 236 OFFCURVE",
"334 399 CURVE",
"378 395 OFFCURVE",
"417 386 OFFCURVE",
"468 363 CURVE",
"391 0 LINE"
);
},
{
closed = 1;
nodes = (
"477 407 LINE",
"438 423 OFFCURVE",
"395 434 OFFCURVE",
"355 442 CURVE",
"411 554 OFFCURVE",
"475 647 OFFCURVE",
"535 679 CURVE"
);
},
{
closed = 1;
nodes = (
"804 920 LINE",
"789 905 OFFCURVE",
"766 897 OFFCURVE",
"741 897 CURVE SMOOTH",
"683 897 OFFCURVE",
"648 930 OFFCURVE",
"576 930 CURVE SMOOTH",
"500 930 OFFCURVE",
"441 896 OFFCURVE",
"409 832 CURVE",
"415 830 LINE",
"434 847 OFFCURVE",
"456 856 OFFCURVE",
"481 856 CURVE SMOOTH",
"537 856 OFFCURVE",
"582 819 OFFCURVE",
"649 819 CURVE SMOOTH",
"725 819 OFFCURVE",
"800 872 OFFCURVE",
"810 919 CURVE"
);
}
);
};
layerId = UUID0;
paths = (
{
closed = 1;
nodes = (
"211 -105 OFFCURVE",
"204 -90 OFFCURVE",
"204 -58 CURVE SMOOTH",
"204 46 OFFCURVE",
"259 236 OFFCURVE",
"334 399 CURVE",
"378 395 OFFCURVE",
"417 386 OFFCURVE",
"468 363 CURVE",
"391 0 LINE",
"535 0 LINE",
"692 736 LINE",
"668 747 OFFCURVE",
"636 750 OFFCURVE",
"613 750 CURVE SMOOTH",
"496 750 OFFCURVE",
"366 615 OFFCURVE",
"265 455 CURVE",
"244 457 OFFCURVE",
"226 458 OFFCURVE",
"213 458 CURVE SMOOTH",
"96 458 OFFCURVE",
"9 403 OFFCURVE",
"9 335 CURVE SMOOTH",
"9 296 OFFCURVE",
"36 277 OFFCURVE",
"71 277 CURVE SMOOTH",
"102 277 OFFCURVE",
"127 292 OFFCURVE",
"127 316 CURVE SMOOTH",
"127 331 OFFCURVE",
"119 347 OFFCURVE",
"114 347 CURVE",
"127 382 OFFCURVE",
"168 395 OFFCURVE",
"231 399 CURVE",
"143 246 OFFCURVE",
"84 81 OFFCURVE",
"84 -8 CURVE SMOOTH",
"84 -112 OFFCURVE",
"165 -114 OFFCURVE",
"218 -114 CURVE"
);
},
{
closed = 1;
nodes = (
"438 423 OFFCURVE",
"395 434 OFFCURVE",
"355 442 CURVE",
"411 554 OFFCURVE",
"475 647 OFFCURVE",
"535 679 CURVE",
"477 407 LINE"
);
},
{
closed = 1;
nodes = (
"767 849 LINE",
"782 923 LINE",
"462 923 LINE",
"446 849 LINE"
);
}
);
width = 668;
}
);
unicode = 0100;
},
{
color = 4;
glyphname = Aogonek;
lastChange = "2016-09-22 17:50:23 +0000";
layers = (
{
background = {
paths = (
{
closed = 1;
nodes = (
"535 0 LINE",
"692 736 LINE",
"668 747 OFFCURVE",
"636 750 OFFCURVE",
"613 750 CURVE SMOOTH",
"496 750 OFFCURVE",
"366 615 OFFCURVE",
"265 455 CURVE",
"244 457 OFFCURVE",
"226 458 OFFCURVE",
"213 458 CURVE SMOOTH",
"96 458 OFFCURVE",
"9 403 OFFCURVE",
"9 335 CURVE SMOOTH",
"9 296 OFFCURVE",
"36 277 OFFCURVE",
"71 277 CURVE SMOOTH",
"102 277 OFFCURVE",
"127 292 OFFCURVE",
"127 316 CURVE SMOOTH",
"127 331 OFFCURVE",
"119 347 OFFCURVE",
"114 347 CURVE",
"127 382 OFFCURVE",
"168 395 OFFCURVE",
"231 399 CURVE",
"143 246 OFFCURVE",
"84 81 OFFCURVE",
"84 -8 CURVE SMOOTH",
"84 -112 OFFCURVE",
"165 -114 OFFCURVE",
"218 -114 CURVE",
"211 -105 OFFCURVE",
"204 -90 OFFCURVE",
"204 -58 CURVE SMOOTH",
"204 46 OFFCURVE",
"259 236 OFFCURVE",
"334 399 CURVE",
"378 395 OFFCURVE",
"417 386 OFFCURVE",
"468 363 CURVE",
"391 0 LINE",
"432 0 LINE",
"385 -38 OFFCURVE",
"361 -80 OFFCURVE",
"361 -115 CURVE SMOOTH",
"361 -150 OFFCURVE",
"385 -193 OFFCURVE",
"440 -193 CURVE SMOOTH",
"490 -193 OFFCURVE",
"526 -154 OFFCURVE",
"549 -131 CURVE",
"549 -119 OFFCURVE",
"550 -112 OFFCURVE",
"551 -100 CURVE",
"531 -113 OFFCURVE",
"507 -134 OFFCURVE",
"483 -134 CURVE SMOOTH",
"455 -134 OFFCURVE",
"444 -107 OFFCURVE",
"444 -84 CURVE SMOOTH",
"444 -49 OFFCURVE",
"471 -15 OFFCURVE",
"498 0 CURVE"
);
},
{
closed = 1;
nodes = (
"477 407 LINE",
"438 423 OFFCURVE",
"395 434 OFFCURVE",
"355 442 CURVE",
"411 554 OFFCURVE",
"475 647 OFFCURVE",
"535 679 CURVE"
);
}
);
};
layerId = UUID0;
paths = (
{
closed = 1;
nodes = (
"490 -193 OFFCURVE",
"526 -154 OFFCURVE",
"549 -131 CURVE",
"549 -119 OFFCURVE",
"550 -112 OFFCURVE",
"551 -100 CURVE",
"531 -113 OFFCURVE",
"507 -134 OFFCURVE",
"483 -134 CURVE SMOOTH",
"455 -134 OFFCURVE",
"444 -107 OFFCURVE",
"444 -84 CURVE SMOOTH",
"444 -49 OFFCURVE",
"471 -15 OFFCURVE",
"498 0 CURVE",
"535 0 LINE",
"692 736 LINE",
"668 747 OFFCURVE",
"636 750 OFFCURVE",
"613 750 CURVE SMOOTH",
"496 750 OFFCURVE",
"366 615 OFFCURVE",
"265 455 CURVE",
"244 457 OFFCURVE",
"226 458 OFFCURVE",
"213 458 CURVE SMOOTH",
"96 458 OFFCURVE",
"9 403 OFFCURVE",
"9 335 CURVE SMOOTH",
"9 296 OFFCURVE",
"36 277 OFFCURVE",
"71 277 CURVE SMOOTH",
"102 277 OFFCURVE",
"127 292 OFFCURVE",
"127 316 CURVE SMOOTH",
"127 331 OFFCURVE",
"119 347 OFFCURVE",
"114 347 CURVE",
"127 382 OFFCURVE",
"168 395 OFFCURVE",
"231 399 CURVE",
"143 246 OFFCURVE",
"84 81 OFFCURVE",
"84 -8 CURVE SMOOTH",
"84 -112 OFFCURVE",
"165 -114 OFFCURVE",
"218 -114 CURVE",
"211 -105 OFFCURVE",
"204 -90 OFFCURVE",
"204 -58 CURVE SMOOTH",
"204 46 OFFCURVE",
"259 236 OFFCURVE",
"334 399 CURVE",
"378 395 OFFCURVE",
"417 386 OFFCURVE",
"468 363 CURVE",
"391 0 LINE",
"432 0 LINE",
"385 -38 OFFCURVE",
"361 -80 OFFCURVE",
"361 -115 CURVE SMOOTH",
"361 -150 OFFCURVE",
"385 -193 OFFCURVE",
"440 -193 CURVE SMOOTH"
);
},
{
closed = 1;
nodes = (
"438 423 OFFCURVE",
"395 434 OFFCURVE",
"355 442 CURVE",
"411 554 OFFCURVE",
"475 647 OFFCURVE",
"535 679 CURVE",
"477 407 LINE"
);
}
);
width = 668;
}
);
unicode = 0104;
},
{
color = 4;
glyphname = Aring;
lastChange = "2016-09-22 17:50:23 +0000";
layers = (
{
background = {
paths = (
{
closed = 1;
nodes = (
"535 0 LINE",
"692 736 LINE",
"668 747 OFFCURVE",
"636 750 OFFCURVE",
"613 750 CURVE SMOOTH",
"496 750 OFFCURVE",
"366 615 OFFCURVE",
"265 455 CURVE",
"244 457 OFFCURVE",
"226 458 OFFCURVE",
"213 458 CURVE SMOOTH",
"96 458 OFFCURVE",
"9 403 OFFCURVE",
"9 335 CURVE SMOOTH",
"9 296 OFFCURVE",
"36 277 OFFCURVE",
"71 277 CURVE SMOOTH",
"102 277 OFFCURVE",
"127 292 OFFCURVE",
"127 316 CURVE SMOOTH",
"127 331 OFFCURVE",
"119 347 OFFCURVE",
"114 347 CURVE",
"127 382 OFFCURVE",
"168 395 OFFCURVE",
"231 399 CURVE",
"143 246 OFFCURVE",
"84 81 OFFCURVE",
"84 -8 CURVE SMOOTH",
"84 -112 OFFCURVE",
"165 -114 OFFCURVE",
"218 -114 CURVE",
"211 -105 OFFCURVE",
"204 -90 OFFCURVE",
"204 -58 CURVE SMOOTH",
"204 46 OFFCURVE",
"259 236 OFFCURVE",
"334 399 CURVE",
"378 395 OFFCURVE",
"417 386 OFFCURVE",
"468 363 CURVE",
"391 0 LINE"
);
},
{
closed = 1;
nodes = (
"477 407 LINE",
"438 423 OFFCURVE",
"395 434 OFFCURVE",
"355 442 CURVE",
"411 554 OFFCURVE",
"475 647 OFFCURVE",
"535 679 CURVE"
);
},
{
closed = 1;
nodes = (
"642 929 OFFCURVE",
"619 963 OFFCURVE",
"570 963 CURVE SMOOTH",
"510 963 OFFCURVE",
"485 908 OFFCURVE",
"485 872 CURVE SMOOTH",
"485 833 OFFCURVE",
"512 802 OFFCURVE",
"555 802 CURVE SMOOTH",
"618 802 OFFCURVE",
"642 842 OFFCURVE",
"642 886 CURVE SMOOTH"
);
},
{
closed = 1;
nodes = (
"605 855 OFFCURVE",
"590 837 OFFCURVE",
"559 837 CURVE SMOOTH",
"535 837 OFFCURVE",
"525 851 OFFCURVE",
"525 874 CURVE SMOOTH",
"525 899 OFFCURVE",
"537 930 OFFCURVE",
"572 930 CURVE SMOOTH",
"604 930 OFFCURVE",
"605 903 OFFCURVE",
"605 883 CURVE SMOOTH"
);
}
);
};
layerId = UUID0;
paths = (
{
closed = 1;
nodes = (
"211 -105 OFFCURVE",
"204 -90 OFFCURVE",
"204 -58 CURVE SMOOTH",
"204 46 OFFCURVE",
"259 236 OFFCURVE",
"334 399 CURVE",
"378 395 OFFCURVE",
"417 386 OFFCURVE",
"468 363 CURVE",
"391 0 LINE",
"535 0 LINE",
"692 736 LINE",
"668 747 OFFCURVE",
"636 750 OFFCURVE",
"613 750 CURVE SMOOTH",
"496 750 OFFCURVE",
"366 615 OFFCURVE",
"265 455 CURVE",
"244 457 OFFCURVE",
"226 458 OFFCURVE",
"213 458 CURVE SMOOTH",
"96 458 OFFCURVE",
"9 403 OFFCURVE",
"9 335 CURVE SMOOTH",
"9 296 OFFCURVE",
"36 277 OFFCURVE",
"71 277 CURVE SMOOTH",
"102 277 OFFCURVE",
"127 292 OFFCURVE",
"127 316 CURVE SMOOTH",
"127 331 OFFCURVE",
"119 347 OFFCURVE",
"114 347 CURVE",
"127 382 OFFCURVE",
"168 395 OFFCURVE",
"231 399 CURVE",
"143 246 OFFCURVE",
"84 81 OFFCURVE",
"84 -8 CURVE SMOOTH",
"84 -112 OFFCURVE",
"165 -114 OFFCURVE",
"218 -114 CURVE"
);
},
{
closed = 1;
nodes = (
"438 423 OFFCURVE",
"395 434 OFFCURVE",
"355 442 CURVE",
"411 554 OFFCURVE",
"475 647 OFFCURVE",
"535 679 CURVE",
"477 407 LINE"
);
},
{
closed = 1;
nodes = (
"662 802 OFFCURVE",
"686 842 OFFCURVE",
"686 886 CURVE SMOOTH",
"686 929 OFFCURVE",
"663 963 OFFCURVE",
"614 963 CURVE SMOOTH",
"554 963 OFFCURVE",
"529 908 OFFCURVE",
"529 872 CURVE SMOOTH",
"529 833 OFFCURVE",
"556 802 OFFCURVE",
"599 802 CURVE SMOOTH"
);
},
{
closed = 1;
nodes = (
"579 837 OFFCURVE",
"569 851 OFFCURVE",
"569 874 CURVE SMOOTH",
"569 899 OFFCURVE",
"581 930 OFFCURVE",
"616 930 CURVE SMOOTH",
"648 930 OFFCURVE",
"649 903 OFFCURVE",
"649 883 CURVE SMOOTH",
"649 855 OFFCURVE",
"634 837 OFFCURVE",
"603 837 CURVE SMOOTH"
);
}
);
width = 668;
}
);
unicode = 00C5;
},
{
color = 4;
glyphname = Aringacute;
lastChange = "2016-09-22 17:50:23 +0000";
layers = (
{
background = {
paths = (
{
closed = 1;
nodes = (
"535 0 LINE",
"692 736 LINE",
"668 747 OFFCURVE",
"636 750 OFFCURVE",
"613 750 CURVE SMOOTH",
"496 750 OFFCURVE",
"366 615 OFFCURVE",
"265 455 CURVE",
"244 457 OFFCURVE",
"226 458 OFFCURVE",
"213 458 CURVE SMOOTH",
"96 458 OFFCURVE",
"9 403 OFFCURVE",
"9 335 CURVE SMOOTH",
"9 296 OFFCURVE",
"36 277 OFFCURVE",
"71 277 CURVE SMOOTH",
"102 277 OFFCURVE",
"127 292 OFFCURVE",
"127 316 CURVE SMOOTH",
"127 331 OFFCURVE",
"119 347 OFFCURVE",
"114 347 CURVE",
"127 382 OFFCURVE",
"168 395 OFFCURVE",
"231 399 CURVE",
"143 246 OFFCURVE",
"84 81 OFFCURVE",
"84 -8 CURVE SMOOTH",
"84 -112 OFFCURVE",
"165 -114 OFFCURVE",
"218 -114 CURVE",
"211 -105 OFFCURVE",
"204 -90 OFFCURVE",
"204 -58 CURVE SMOOTH",
"204 46 OFFCURVE",
"259 236 OFFCURVE",
"334 399 CURVE",
"378 395 OFFCURVE",
"417 386 OFFCURVE",
"468 363 CURVE",
"391 0 LINE"
);
},
{
closed = 1;
nodes = (
"477 407 LINE",
"438 423 OFFCURVE",
"395 434 OFFCURVE",
"355 442 CURVE",
"411 554 OFFCURVE",
"475 647 OFFCURVE",
"535 679 CURVE"
);
},
{
closed = 1;
nodes = (
"804 920 LINE",
"789 905 OFFCURVE",
"766 897 OFFCURVE",
"741 897 CURVE SMOOTH",
"683 897 OFFCURVE",
"648 930 OFFCURVE",
"576 930 CURVE SMOOTH",
"500 930 OFFCURVE",
"441 896 OFFCURVE",
"409 832 CURVE",
"415 830 LINE",
"434 847 OFFCURVE",
"456 856 OFFCURVE",
"481 856 CURVE SMOOTH",
"537 856 OFFCURVE",
"582 819 OFFCURVE",
"649 819 CURVE SMOOTH",
"725 819 OFFCURVE",
"800 872 OFFCURVE",
"810 919 CURVE"
);
}
);
};
layerId = UUID0;
paths = (
{
closed = 1;
nodes = (
"211 -105 OFFCURVE",
"204 -90 OFFCURVE",
"204 -58 CURVE SMOOTH",
"204 46 OFFCURVE",
"259 236 OFFCURVE",
"334 399 CURVE",
"378 395 OFFCURVE",
"417 386 OFFCURVE",
"468 363 CURVE",
"391 0 LINE",
"535 0 LINE",
"692 736 LINE",
"668 747 OFFCURVE",
"636 750 OFFCURVE",
"613 750 CURVE SMOOTH",
"496 750 OFFCURVE",
"366 615 OFFCURVE",
"265 455 CURVE",
"244 457 OFFCURVE",
"226 458 OFFCURVE",
"213 458 CURVE SMOOTH",
"96 458 OFFCURVE",
"9 403 OFFCURVE",
"9 335 CURVE SMOOTH",
"9 296 OFFCURVE",
"36 277 OFFCURVE",
"71 277 CURVE SMOOTH",
"102 277 OFFCURVE",
"127 292 OFFCURVE",
"127 316 CURVE SMOOTH",
"127 331 OFFCURVE",
"119 347 OFFCURVE",
"114 347 CURVE",
"127 382 OFFCURVE",
"168 395 OFFCURVE",
"231 399 CURVE",
"143 246 OFFCURVE",
"84 81 OFFCURVE",
"84 -8 CURVE SMOOTH",
"84 -112 OFFCURVE",
"165 -114 OFFCURVE",
"218 -114 CURVE"
);
},
{
closed = 1;
nodes = (
"438 423 OFFCURVE",
"395 434 OFFCURVE",
"355 442 CURVE",
"411 554 OFFCURVE",
"475 647 OFFCURVE",
"535 679 CURVE",
"477 407 LINE"
);
},
{
closed = 1;
nodes = (
"676 735 OFFCURVE",
"708 768 OFFCURVE",
"708 819 CURVE SMOOTH",
"708 866 OFFCURVE",
"681 896 OFFCURVE",
"637 896 CURVE SMOOTH",
"590 896 OFFCURVE",
"552 856 OFFCURVE",
"552 805 CURVE SMOOTH",
"552 762 OFFCURVE",
"581 735 OFFCURVE",
"625 735 CURVE SMOOTH"
);
},
{
closed = 1;
nodes = (
"613 784 OFFCURVE",
"604 794 OFFCURVE",
"604 809 CURVE SMOOTH",
"604 833 OFFCURVE",
"618 848 OFFCURVE",
"636 848 CURVE SMOOTH",
"651 848 OFFCURVE",
"660 838 OFFCURVE",
"660 820 CURVE SMOOTH",
"660 796 OFFCURVE",
"650 784 OFFCURVE",
"629 784 CURVE SMOOTH"
);
},
{
closed = 1;
nodes = (
"791 1000 LINE",
"686 1000 LINE",
"620 859 LINE",
"667 850 LINE"
);
}
);
width = 668;
}
);
unicode = 01FA;
},
{
color = 4;
glyphname = Atilde;
lastChange = "2016-09-22 17:50:23 +0000";
layers = (
{
background = {
paths = (
{
closed = 1;
nodes = (
"535 0 LINE",
"692 736 LINE",
"668 747 OFFCURVE",
"636 750 OFFCURVE",
"613 750 CURVE SMOOTH",
"496 750 OFFCURVE",
"366 615 OFFCURVE",
"265 455 CURVE",
"244 457 OFFCURVE",
"226 458 OFFCURVE",
"213 458 CURVE SMOOTH",
"96 458 OFFCURVE",
"9 403 OFFCURVE",
"9 335 CURVE SMOOTH",
"9 296 OFFCURVE",
"36 277 OFFCURVE",
"71 277 CURVE SMOOTH",
"102 277 OFFCURVE",
"127 292 OFFCURVE",
"127 316 CURVE SMOOTH",
"127 331 OFFCURVE",
"119 347 OFFCURVE",
"114 347 CURVE",
"127 382 OFFCURVE",
"168 395 OFFCURVE",
"231 399 CURVE",
"143 246 OFFCURVE",
"84 81 OFFCURVE",
"84 -8 CURVE SMOOTH",
"84 -112 OFFCURVE",
"165 -114 OFFCURVE",
"218 -114 CURVE",
"211 -105 OFFCURVE",
"204 -90 OFFCURVE",
"204 -58 CURVE SMOOTH",
"204 46 OFFCURVE",
"259 236 OFFCURVE",
"334 399 CURVE",
"378 395 OFFCURVE",
"417 386 OFFCURVE",
"468 363 CURVE",
"391 0 LINE"
);
},
{
closed = 1;
nodes = (
"477 407 LINE",
"438 423 OFFCURVE",
"395 434 OFFCURVE",
"355 442 CURVE",
"411 554 OFFCURVE",
"475 647 OFFCURVE",
"535 679 CURVE"
);
},
{
closed = 1;
nodes = (
"804 920 LINE",
"789 905 OFFCURVE",
"766 897 OFFCURVE",
"741 897 CURVE SMOOTH",
"683 897 OFFCURVE",
"648 930 OFFCURVE",
"576 930 CURVE SMOOTH",
"500 930 OFFCURVE",
"441 896 OFFCURVE",
"409 832 CURVE",
"415 830 LINE",
"434 847 OFFCURVE",
"456 856 OFFCURVE",
"481 856 CURVE SMOOTH",
"537 856 OFFCURVE",
"582 819 OFFCURVE",
"649 819 CURVE SMOOTH",
"725 819 OFFCURVE",
"800 872 OFFCURVE",
"810 919 CURVE"
);
}
);
};
layerId = UUID0;
paths = (
{
closed = 1;
nodes = (
"211 -105 OFFCURVE",
"204 -90 OFFCURVE",
"204 -58 CURVE SMOOTH",
"204 46 OFFCURVE",
"259 236 OFFCURVE",
"334 399 CURVE",
"378 395 OFFCURVE",
"417 386 OFFCURVE",
"468 363 CURVE",
"391 0 LINE",
"535 0 LINE",
"692 736 LINE",
"668 747 OFFCURVE",
"636 750 OFFCURVE",
"613 750 CURVE SMOOTH",
"496 750 OFFCURVE",
"366 615 OFFCURVE",
"265 455 CURVE",
"244 457 OFFCURVE",
"226 458 OFFCURVE",
"213 458 CURVE SMOOTH",
"96 458 OFFCURVE",
"9 403 OFFCURVE",
"9 335 CURVE SMOOTH",
"9 296 OFFCURVE",
"36 277 OFFCURVE",
"71 277 CURVE SMOOTH",
"102 277 OFFCURVE",
"127 292 OFFCURVE",
"127 316 CURVE SMOOTH",
"127 331 OFFCURVE",
"119 347 OFFCURVE",
"114 347 CURVE",
"127 382 OFFCURVE",
"168 395 OFFCURVE",
"231 399 CURVE",
"143 246 OFFCURVE",
"84 81 OFFCURVE",
"84 -8 CURVE SMOOTH",
"84 -112 OFFCURVE",
"165 -114 OFFCURVE",
"218 -114 CURVE"
);
},
{
closed = 1;
nodes = (
"438 423 OFFCURVE",
"395 434 OFFCURVE",
"355 442 CURVE",
"411 554 OFFCURVE",
"475 647 OFFCURVE",
"535 679 CURVE",
"477 407 LINE"
);
},
{
closed = 1;
nodes = (
"725 819 OFFCURVE",
"800 872 OFFCURVE",
"810 919 CURVE",
"804 920 LINE",
"789 905 OFFCURVE",
"766 897 OFFCURVE",
"741 897 CURVE SMOOTH",
"683 897 OFFCURVE",
"648 930 OFFCURVE",
"576 930 CURVE SMOOTH",
"500 930 OFFCURVE",
"441 896 OFFCURVE",
"409 832 CURVE",
"415 830 LINE",
"434 847 OFFCURVE",
"456 856 OFFCURVE",
"481 856 CURVE SMOOTH",
"537 856 OFFCURVE",
"582 819 OFFCURVE",
"649 819 CURVE SMOOTH"
);
}
);
width = 668;
}
);
unicode = 00C3;
},
{
color = 4;
glyphname = AE;
lastChange = "2016-09-22 17:50:23 +0000";
layers = (
{
background = {
paths = (
{
closed = 1;
nodes = (
"760 0 LINE",
"781 106 LINE",
"557 106 LINE",
"608 345 LINE",
"759 345 LINE",
"779 419 LINE",
"624 419 LINE",
"678 672 LINE",
"717 657 OFFCURVE",
"751 640 OFFCURVE",
"802 640 CURVE SMOOTH",
"884 640 OFFCURVE",
"895 706 OFFCURVE",
"909 750 CURVE",
"865 735 OFFCURVE",
"827 731 OFFCURVE",
"792 731 CURVE SMOOTH",
"722 731 OFFCURVE",
"667 751 OFFCURVE",
"612 751 CURVE SMOOTH",
"494 751 OFFCURVE",
"364 614 OFFCURVE",
"263 452 CURVE",
"241 454 OFFCURVE",
"221 455 OFFCURVE",
"204 455 CURVE SMOOTH",
"101 455 OFFCURVE",
"9 401 OFFCURVE",
"9 340 CURVE SMOOTH",
"9 295 OFFCURVE",
"37 277 OFFCURVE",
"66 277 CURVE SMOOTH",
"109 277 OFFCURVE",
"127 295 OFFCURVE",
"127 316 CURVE SMOOTH",
"127 331 OFFCURVE",
"119 347 OFFCURVE",
"114 347 CURVE",
"129 383 OFFCURVE",
"171 395 OFFCURVE",
"231 399 CURVE",
"143 247 OFFCURVE",
"84 84 OFFCURVE",
"84 -1 CURVE SMOOTH",
"84 -107 OFFCURVE",
"149 -110 OFFCURVE",
"218 -113 CURVE",
"218 -105 OFFCURVE",
"204 -108 OFFCURVE",
"204 -57 CURVE SMOOTH",
"204 48 OFFCURVE",
"259 237 OFFCURVE",
"333 399 CURVE",
"376 396 OFFCURVE",
"417 386 OFFCURVE",
"468 363 CURVE",
"391 0 LINE"
);
},
{
closed = 1;
nodes = (
"477 407 LINE",
"438 422 OFFCURVE",
"396 433 OFFCURVE",
"353 441 CURVE",
"409 554 OFFCURVE",
"474 646 OFFCURVE",
"535 679 CURVE"
);
}
);
};
layerId = UUID0;
paths = (
{
closed = 1;
nodes = (
"218 -105 OFFCURVE",
"204 -108 OFFCURVE",
"204 -57 CURVE SMOOTH",
"204 48 OFFCURVE",
"259 237 OFFCURVE",
"333 399 CURVE",
"376 396 OFFCURVE",
"417 386 OFFCURVE",
"468 363 CURVE",
"391 0 LINE",
"760 0 LINE",
"781 106 LINE",
"557 106 LINE",
"608 345 LINE",
"759 345 LINE",
"779 419 LINE",
"624 419 LINE",
"678 672 LINE",
"717 657 OFFCURVE",
"751 640 OFFCURVE",
"802 640 CURVE SMOOTH",
"884 640 OFFCURVE",
"895 706 OFFCURVE",
"909 750 CURVE",
"865 735 OFFCURVE",
"827 731 OFFCURVE",
"792 731 CURVE SMOOTH",
"722 731 OFFCURVE",
"667 751 OFFCURVE",
"612 751 CURVE SMOOTH",
"494 751 OFFCURVE",
"364 614 OFFCURVE",
"263 452 CURVE",
"241 454 OFFCURVE",
"221 455 OFFCURVE",
"204 455 CURVE SMOOTH",
"101 455 OFFCURVE",
"9 401 OFFCURVE",
"9 340 CURVE SMOOTH",
"9 295 OFFCURVE",
"37 277 OFFCURVE",
"66 277 CURVE SMOOTH",
"109 277 OFFCURVE",
"127 295 OFFCURVE",
"127 316 CURVE SMOOTH",
"127 331 OFFCURVE",
"119 347 OFFCURVE",
"114 347 CURVE",
"129 383 OFFCURVE",
"171 395 OFFCURVE",
"231 399 CURVE",
"143 247 OFFCURVE",
"84 84 OFFCURVE",
"84 -1 CURVE SMOOTH",
"84 -107 OFFCURVE",
"149 -110 OFFCURVE",
"218 -113 CURVE"
);
},
{
closed = 1;
nodes = (
"438 422 OFFCURVE",
"396 433 OFFCURVE",
"353 441 CURVE",
"409 554 OFFCURVE",
"474 646 OFFCURVE",
"535 679 CURVE",
"477 407 LINE"
);
}
);
width = 764;
}
);
unicode = 00C6;
},
{
color = 4;
glyphname = AEacute;
lastChange = "2016-09-22 17:50:23 +0000";
layers = (
{
background = {
paths = (
{
closed = 1;
nodes = (
"760 0 LINE",
"781 106 LINE",
"557 106 LINE",
"608 345 LINE",
"759 345 LINE",
"779 419 LINE",
"624 419 LINE",
"678 672 LINE",
"717 657 OFFCURVE",
"751 640 OFFCURVE",
"802 640 CURVE SMOOTH",
"884 640 OFFCURVE",
"895 706 OFFCURVE",
"909 750 CURVE",
"865 735 OFFCURVE",
"827 731 OFFCURVE",
"792 731 CURVE SMOOTH",
"722 731 OFFCURVE",
"667 751 OFFCURVE",
"612 751 CURVE SMOOTH",
"494 751 OFFCURVE",
"364 614 OFFCURVE",
"263 452 CURVE",
"241 454 OFFCURVE",
"221 455 OFFCURVE",
"204 455 CURVE SMOOTH",
"101 455 OFFCURVE",
"9 401 OFFCURVE",
"9 340 CURVE SMOOTH",
"9 295 OFFCURVE",
"37 277 OFFCURVE",
"66 277 CURVE SMOOTH",
"109 277 OFFCURVE",
"127 295 OFFCURVE",
"127 316 CURVE SMOOTH",
"127 331 OFFCURVE",
"119 347 OFFCURVE",
"114 347 CURVE",
"129 383 OFFCURVE",
"171 395 OFFCURVE",
"231 399 CURVE",
"143 247 OFFCURVE",
"84 84 OFFCURVE",
"84 -1 CURVE SMOOTH",
"84 -107 OFFCURVE",
"149 -110 OFFCURVE",
"218 -113 CURVE",
"218 -105 OFFCURVE",
"204 -108 OFFCURVE",
"204 -57 CURVE SMOOTH",
"204 48 OFFCURVE",
"259 237 OFFCURVE",
"333 399 CURVE",
"376 396 OFFCURVE",
"417 386 OFFCURVE",
"468 363 CURVE",
"391 0 LINE"
);
},
{
closed = 1;
nodes = (
"477 407 LINE",
"438 422 OFFCURVE",
"396 433 OFFCURVE",
"353 441 CURVE",
"409 554 OFFCURVE",
"474 646 OFFCURVE",
"535 679 CURVE"
);
}
);
};
layerId = UUID0;
paths = (
{
closed = 1;
nodes = (
"218 -105 OFFCURVE",
"204 -108 OFFCURVE",
"204 -57 CURVE SMOOTH",
"204 48 OFFCURVE",
"259 237 OFFCURVE",
"333 399 CURVE",
"376 396 OFFCURVE",
"417 386 OFFCURVE",
"468 363 CURVE",
"391 0 LINE",
"760 0 LINE",
"781 106 LINE",
"557 106 LINE",
"608 345 LINE",
"759 345 LINE",
"779 419 LINE",
"624 419 LINE",
"678 672 LINE",
"717 657 OFFCURVE",
"751 640 OFFCURVE",
"802 640 CURVE SMOOTH",
"884 640 OFFCURVE",
"895 706 OFFCURVE",
"909 750 CURVE",
"865 735 OFFCURVE",
"827 731 OFFCURVE",
"792 731 CURVE SMOOTH",
"722 731 OFFCURVE",
"667 751 OFFCURVE",
"612 751 CURVE SMOOTH",
"494 751 OFFCURVE",
"364 614 OFFCURVE",
"263 452 CURVE",
"241 454 OFFCURVE",
"221 455 OFFCURVE",
"204 455 CURVE SMOOTH",
"101 455 OFFCURVE",
"9 401 OFFCURVE",
"9 340 CURVE SMOOTH",
"9 295 OFFCURVE",
"37 277 OFFCURVE",
"66 277 CURVE SMOOTH",
"109 277 OFFCURVE",
"127 295 OFFCURVE",
"127 316 CURVE SMOOTH",
"127 331 OFFCURVE",
"119 347 OFFCURVE",
"114 347 CURVE",
"129 383 OFFCURVE",
"171 395 OFFCURVE",
"231 399 CURVE",
"143 247 OFFCURVE",
"84 84 OFFCURVE",
"84 -1 CURVE SMOOTH",
"84 -107 OFFCURVE",
"149 -110 OFFCURVE",
"218 -113 CURVE"
);
},
{
closed = 1;
nodes = (
"438 422 OFFCURVE",
"396 433 OFFCURVE",
"353 441 CURVE",
"409 554 OFFCURVE",
"474 646 OFFCURVE",
"535 679 CURVE",
"477 407 LINE"
);
},
{
closed = 1;
nodes = (
"689 811 LINE",
"831 1000 LINE",
"726 1000 LINE",
"635 811 LINE"
);
}
);
width = 764;
}
);
unicode = 01FC;
},
{
color = 4;
glyphname = B;
lastChange = "2016-09-22 17:50:23 +0000";
layers = (
{
background = {
paths = (
{
closed = 1;
nodes = (
"244 0 LINE",
"326 383 LINE",
"345 386 OFFCURVE",
"364 386 OFFCURVE",
"372 386 CURVE SMOOTH",
"445 386 OFFCURVE",
"467 328 OFFCURVE",
"467 259 CURVE SMOOTH",
"467 183 OFFCURVE",
"441 79 OFFCURVE",
"368 79 CURVE SMOOTH",
"345 79 OFFCURVE",
"326 88 OFFCURVE",
"301 115 CURVE",
"292 93 OFFCURVE",
"288 74 OFFCURVE",
"288 57 CURVE SMOOTH",
"288 -4 OFFCURVE",
"344 -17 OFFCURVE",
"387 -17 CURVE SMOOTH",
"555 -17 OFFCURVE",
"606 175 OFFCURVE",
"606 271 CURVE SMOOTH",
"606 346 OFFCURVE",
"573 416 OFFCURVE",
"488 432 CURVE",
"553 469 OFFCURVE",
"588 531 OFFCURVE",
"588 591 CURVE SMOOTH",
"588 673 OFFCURVE",
"522 750 OFFCURVE",
"375 750 CURVE SMOOTH",
"186 750 OFFCURVE",
"12 623 OFFCURVE",
"12 485 CURVE SMOOTH",
"12 417 OFFCURVE",
"52 393 OFFCURVE",
"119 393 CURVE",
"119 401 OFFCURVE",
"105 410 OFFCURVE",
"105 461 CURVE SMOOTH",
"105 625 OFFCURVE",
"238 704 OFFCURVE",
"355 704 CURVE SMOOTH",
"450 704 OFFCURVE",
"487 652 OFFCURVE",
"487 596 CURVE SMOOTH",
"487 521 OFFCURVE",
"422 434 OFFCURVE",
"343 434 CURVE SMOOTH",
"337 434 LINE",
"384 656 LINE",
"236 636 LINE",
"100 0 LINE"
);
}
);
};
layerId = UUID0;
paths = (
{
closed = 1;
nodes = (
"555 -17 OFFCURVE",
"606 175 OFFCURVE",
"606 271 CURVE SMOOTH",
"606 346 OFFCURVE",
"573 416 OFFCURVE",
"488 432 CURVE",
"553 469 OFFCURVE",
"588 531 OFFCURVE",
"588 591 CURVE SMOOTH",
"588 673 OFFCURVE",
"522 750 OFFCURVE",
"375 750 CURVE SMOOTH",
"186 750 OFFCURVE",
"12 623 OFFCURVE",
"12 485 CURVE SMOOTH",
"12 417 OFFCURVE",
"52 393 OFFCURVE",
"119 393 CURVE",
"119 401 OFFCURVE",
"105 410 OFFCURVE",
"105 461 CURVE SMOOTH",
"105 625 OFFCURVE",
"238 704 OFFCURVE",
"355 704 CURVE SMOOTH",
"450 704 OFFCURVE",
"487 652 OFFCURVE",
"487 596 CURVE SMOOTH",
"487 521 OFFCURVE",
"422 434 OFFCURVE",
"343 434 CURVE SMOOTH",
"337 434 LINE",
"384 656 LINE",
"236 636 LINE",
"100 0 LINE",
"244 0 LINE",
"326 383 LINE",
"345 386 OFFCURVE",
"364 386 OFFCURVE",
"372 386 CURVE SMOOTH",
"445 386 OFFCURVE",
"467 328 OFFCURVE",
"467 259 CURVE SMOOTH",
"467 183 OFFCURVE",
"441 79 OFFCURVE",
"368 79 CURVE SMOOTH",
"345 79 OFFCURVE",
"326 88 OFFCURVE",
"301 115 CURVE",
"292 93 OFFCURVE",
"288 74 OFFCURVE",
"288 57 CURVE SMOOTH",
"288 -4 OFFCURVE",
"344 -17 OFFCURVE",
"387 -17 CURVE SMOOTH"
);
}
);
width = 641;
}
);
unicode = 0042;
},
{
color = 4;
glyphname = C;
lastChange = "2016-09-22 17:50:23 +0000";
layers = (
{
background = {
paths = (
{
closed = 1;
nodes = (
"500 180 LINE",
"453 117 OFFCURVE",
"384 80 OFFCURVE",
"305 80 CURVE SMOOTH",
"208 80 OFFCURVE",
"185 144 OFFCURVE",
"185 236 CURVE SMOOTH",
"185 440 OFFCURVE",
"282 703 OFFCURVE",
"393 703 CURVE SMOOTH",
"438 703 OFFCURVE",
"454 674 OFFCURVE",
"454 642 CURVE SMOOTH",
"454 603 OFFCURVE",
"432 562 OFFCURVE",
"408 550 CURVE",
"427 527 OFFCURVE",
"449 524 OFFCURVE",
"465 524 CURVE SMOOTH",
"516 524 OFFCURVE",
"535 563 OFFCURVE",
"535 616 CURVE SMOOTH",
"535 712 OFFCURVE",
"461 750 OFFCURVE",
"368 750 CURVE SMOOTH",
"106 750 OFFCURVE",
"19 411 OFFCURVE",
"19 230 CURVE SMOOTH",
"19 50 OFFCURVE",
"90 -16 OFFCURVE",
"238 -16 CURVE SMOOTH",
"330 -16 OFFCURVE",
"469 36 OFFCURVE",
"523 170 CURVE"
);
}
);
};
layerId = UUID0;
paths = (
{
closed = 1;
nodes = (
"330 -16 OFFCURVE",
"469 36 OFFCURVE",
"523 170 CURVE",
"500 180 LINE",
"453 117 OFFCURVE",
"384 80 OFFCURVE",
"305 80 CURVE SMOOTH",
"208 80 OFFCURVE",
"185 144 OFFCURVE",
"185 236 CURVE SMOOTH",
"185 440 OFFCURVE",
"282 703 OFFCURVE",
"393 703 CURVE SMOOTH",
"438 703 OFFCURVE",
"454 674 OFFCURVE",
"454 642 CURVE SMOOTH",
"454 603 OFFCURVE",
"432 562 OFFCURVE",
"408 550 CURVE",
"427 527 OFFCURVE",
"449 524 OFFCURVE",
"465 524 CURVE SMOOTH",
"516 524 OFFCURVE",
"535 563 OFFCURVE",
"535 616 CURVE SMOOTH",
"535 712 OFFCURVE",
"461 750 OFFCURVE",
"368 750 CURVE SMOOTH",
"106 750 OFFCURVE",
"19 411 OFFCURVE",
"19 230 CURVE SMOOTH",
"19 50 OFFCURVE",
"90 -16 OFFCURVE",
"238 -16 CURVE SMOOTH"
);
}
);
width = 497;
}
);
unicode = 0043;
},
{
color = 4;
glyphname = Cacute;
lastChange = "2016-09-22 17:50:23 +0000";
layers = (
{
background = {
paths = (
{
closed = 1;
nodes = (
"500 180 LINE",
"453 117 OFFCURVE",
"384 80 OFFCURVE",
"305 80 CURVE SMOOTH",
"208 80 OFFCURVE",
"185 144 OFFCURVE",
"185 236 CURVE SMOOTH",
"185 440 OFFCURVE",
"282 703 OFFCURVE",
"393 703 CURVE SMOOTH",
"438 703 OFFCURVE",
"454 674 OFFCURVE",
"454 642 CURVE SMOOTH",
"454 603 OFFCURVE",
"432 562 OFFCURVE",
"408 550 CURVE",
"427 527 OFFCURVE",
"449 524 OFFCURVE",
"465 524 CURVE SMOOTH",
"516 524 OFFCURVE",
"535 563 OFFCURVE",
"535 616 CURVE SMOOTH",
"535 712 OFFCURVE",
"461 750 OFFCURVE",
"368 750 CURVE SMOOTH",
"106 750 OFFCURVE",
"19 411 OFFCURVE",
"19 230 CURVE SMOOTH",
"19 50 OFFCURVE",
"90 -16 OFFCURVE",
"238 -16 CURVE SMOOTH",
"330 -16 OFFCURVE",
"469 36 OFFCURVE",
"523 170 CURVE"
);
},
{
closed = 1;
nodes = (
"412 811 LINE",
"533 1000 LINE",
"428 1000 LINE",
"337 811 LINE"
);
}
);
};
layerId = UUID0;
paths = (
{
closed = 1;
nodes = (
"330 -16 OFFCURVE",
"469 36 OFFCURVE",
"523 170 CURVE",
"500 180 LINE",
"453 117 OFFCURVE",
"384 80 OFFCURVE",
"305 80 CURVE SMOOTH",
"208 80 OFFCURVE",
"185 144 OFFCURVE",
"185 236 CURVE SMOOTH",
"185 440 OFFCURVE",
"282 703 OFFCURVE",
"393 703 CURVE SMOOTH",
"438 703 OFFCURVE",
"454 674 OFFCURVE",
"454 642 CURVE SMOOTH",
"454 603 OFFCURVE",
"432 562 OFFCURVE",
"408 550 CURVE",
"427 527 OFFCURVE",
"449 524 OFFCURVE",
"465 524 CURVE SMOOTH",
"516 524 OFFCURVE",
"535 563 OFFCURVE",
"535 616 CURVE SMOOTH",
"535 712 OFFCURVE",
"461 750 OFFCURVE",
"368 750 CURVE SMOOTH",
"106 750 OFFCURVE",
"19 411 OFFCURVE",
"19 230 CURVE SMOOTH",
"19 50 OFFCURVE",
"90 -16 OFFCURVE",
"238 -16 CURVE SMOOTH"
);
},
{
closed = 1;
nodes = (
"412 811 LINE",
"533 1000 LINE",
"428 1000 LINE",
"337 811 LINE"
);
}
);
width = 497;
}
);
unicode = 0106;
},
{
color = 4;
glyphname = Ccaron;
lastChange = "2016-09-22 17:50:23 +0000";
layers = (
{
background = {
paths = (
{
closed = 1;
nodes = (
"500 180 LINE",
"453 117 OFFCURVE",
"384 80 OFFCURVE",
"305 80 CURVE SMOOTH",
"208 80 OFFCURVE",
"185 144 OFFCURVE",
"185 236 CURVE SMOOTH",
"185 440 OFFCURVE",
"282 703 OFFCURVE",
"393 703 CURVE SMOOTH",
"438 703 OFFCURVE",
"454 674 OFFCURVE",
"454 642 CURVE SMOOTH",
"454 603 OFFCURVE",
"432 562 OFFCURVE",
"408 550 CURVE",
"427 527 OFFCURVE",
"449 524 OFFCURVE",
"465 524 CURVE SMOOTH",
"516 524 OFFCURVE",
"535 563 OFFCURVE",
"535 616 CURVE SMOOTH",
"535 712 OFFCURVE",
"461 750 OFFCURVE",
"368 750 CURVE SMOOTH",
"106 750 OFFCURVE",
"19 411 OFFCURVE",
"19 230 CURVE SMOOTH",
"19 50 OFFCURVE",
"90 -16 OFFCURVE",
"238 -16 CURVE SMOOTH",
"330 -16 OFFCURVE",
"469 36 OFFCURVE",
"523 170 CURVE"
);
},
{
closed = 1;
nodes = (
"585 1000 LINE",
"541 1000 LINE",
"384 920 LINE",
"324 1000 LINE",
"292 1000 LINE",
"352 811 LINE",
"373 811 LINE"
);
}
);
};
layerId = UUID0;
paths = (
{
closed = 1;
nodes = (
"330 -16 OFFCURVE",
"469 36 OFFCURVE",
"523 170 CURVE",
"500 180 LINE",
"453 117 OFFCURVE",
"384 80 OFFCURVE",
"305 80 CURVE SMOOTH",
"208 80 OFFCURVE",
"185 144 OFFCURVE",
"185 236 CURVE SMOOTH",
"185 440 OFFCURVE",
"282 703 OFFCURVE",
"393 703 CURVE SMOOTH",
"438 703 OFFCURVE",
"454 674 OFFCURVE",
"454 642 CURVE SMOOTH",
"454 603 OFFCURVE",
"432 562 OFFCURVE",
"408 550 CURVE",
"427 527 OFFCURVE",
"449 524 OFFCURVE",
"465 524 CURVE SMOOTH",
"516 524 OFFCURVE",
"535 563 OFFCURVE",
"535 616 CURVE SMOOTH",
"535 712 OFFCURVE",
"461 750 OFFCURVE",
"368 750 CURVE SMOOTH",
"106 750 OFFCURVE",
"19 411 OFFCURVE",
"19 230 CURVE SMOOTH",
"19 50 OFFCURVE",
"90 -16 OFFCURVE",
"238 -16 CURVE SMOOTH"
);
},
{
closed = 1;
nodes = (
"373 811 LINE",
"585 1000 LINE",
"541 1000 LINE",
"384 920 LINE",
"324 1000 LINE",
"292 1000 LINE",
"352 811 LINE"
);
}
);
width = 497;
}
);
unicode = 010C;
},
{
color = 4;
glyphname = Ccedilla;
lastChange = "2016-09-22 17:50:23 +0000";
layers = (
{
background = {
paths = (
{
closed = 1;
nodes = (
"500 180 LINE",
"453 117 OFFCURVE",
"384 80 OFFCURVE",
"305 80 CURVE SMOOTH",
"208 80 OFFCURVE",
"185 144 OFFCURVE",
"185 236 CURVE SMOOTH",
"185 440 OFFCURVE",
"282 703 OFFCURVE",
"393 703 CURVE SMOOTH",
"438 703 OFFCURVE",
"454 674 OFFCURVE",
"454 642 CURVE SMOOTH",
"454 603 OFFCURVE",
"432 562 OFFCURVE",
"408 550 CURVE",
"427 527 OFFCURVE",
"449 524 OFFCURVE",
"465 524 CURVE SMOOTH",
"516 524 OFFCURVE",
"535 563 OFFCURVE",
"535 616 CURVE SMOOTH",
"535 712 OFFCURVE",
"461 750 OFFCURVE",
"368 750 CURVE SMOOTH",
"106 750 OFFCURVE",
"19 411 OFFCURVE",
"19 230 CURVE SMOOTH",
"19 55 OFFCURVE",
"85 -12 OFFCURVE",
"225 -16 CURVE",
"188 -119 LINE",
"199 -114 OFFCURVE",
"213 -107 OFFCURVE",
"240 -107 CURVE SMOOTH",
"268 -107 OFFCURVE",
"279 -124 OFFCURVE",
"279 -143 CURVE SMOOTH",
"279 -164 OFFCURVE",
"266 -185 OFFCURVE",
"249 -185 CURVE SMOOTH",
"220 -185 OFFCURVE",
"215 -158 OFFCURVE",
"175 -158 CURVE SMOOTH",
"156 -158 OFFCURVE",
"144 -174 OFFCURVE",
"135 -190 CURVE",
"164 -205 OFFCURVE",
"191 -218 OFFCURVE",
"242 -218 CURVE SMOOTH",
"301 -218 OFFCURVE",
"362 -180 OFFCURVE",
"362 -108 CURVE SMOOTH",
"362 -77 OFFCURVE",
"343 -58 OFFCURVE",
"300 -58 CURVE SMOOTH",
"286 -58 OFFCURVE",
"268 -61 OFFCURVE",
"247 -66 CURVE",
"268 -14 LINE",
"358 -4 OFFCURVE",
"475 50 OFFCURVE",
"523 170 CURVE"
);
}
);
};
layerId = UUID0;
paths = (
{
closed = 1;
nodes = (
"301 -218 OFFCURVE",
"362 -180 OFFCURVE",
"362 -108 CURVE SMOOTH",
"362 -77 OFFCURVE",
"343 -58 OFFCURVE",
"300 -58 CURVE SMOOTH",
"286 -58 OFFCURVE",
"268 -61 OFFCURVE",
"247 -66 CURVE",
"268 -14 LINE",
"358 -4 OFFCURVE",
"475 50 OFFCURVE",
"523 170 CURVE",
"500 180 LINE",
"453 117 OFFCURVE",
"384 80 OFFCURVE",
"305 80 CURVE SMOOTH",
"208 80 OFFCURVE",
"185 144 OFFCURVE",
"185 236 CURVE SMOOTH",
"185 440 OFFCURVE",
"282 703 OFFCURVE",
"393 703 CURVE SMOOTH",
"438 703 OFFCURVE",
"454 674 OFFCURVE",
"454 642 CURVE SMOOTH",
"454 603 OFFCURVE",
"432 562 OFFCURVE",
"408 550 CURVE",
"427 527 OFFCURVE",
"449 524 OFFCURVE",
"465 524 CURVE SMOOTH",
"516 524 OFFCURVE",
"535 563 OFFCURVE",
"535 616 CURVE SMOOTH",
"535 712 OFFCURVE",
"461 750 OFFCURVE",
"368 750 CURVE SMOOTH",
"106 750 OFFCURVE",
"19 411 OFFCURVE",
"19 230 CURVE SMOOTH",
"19 55 OFFCURVE",
"85 -12 OFFCURVE",
"225 -16 CURVE",
"188 -119 LINE",
"199 -114 OFFCURVE",
"213 -107 OFFCURVE",
"240 -107 CURVE SMOOTH",
"268 -107 OFFCURVE",
"279 -124 OFFCURVE",
"279 -143 CURVE SMOOTH",
"279 -164 OFFCURVE",
"266 -185 OFFCURVE",
"249 -185 CURVE SMOOTH",
"220 -185 OFFCURVE",
"215 -158 OFFCURVE",
"175 -158 CURVE SMOOTH",
"156 -158 OFFCURVE",
"144 -174 OFFCURVE",
"135 -190 CURVE",
"164 -205 OFFCURVE",
"191 -218 OFFCURVE",
"242 -218 CURVE SMOOTH"
);
}
);
width = 497;
}
);
unicode = 00C7;
},
{
color = 4;
glyphname = Ccircumflex;
lastChange = "2016-09-22 17:50:23 +0000";
layers = (
{
background = {
paths = (
{
closed = 1;
nodes = (
"500 180 LINE",
"453 117 OFFCURVE",
"384 80 OFFCURVE",
"305 80 CURVE SMOOTH",
"208 80 OFFCURVE",
"185 144 OFFCURVE",
"185 236 CURVE SMOOTH",
"185 440 OFFCURVE",
"282 703 OFFCURVE",
"393 703 CURVE SMOOTH",
"438 703 OFFCURVE",
"454 674 OFFCURVE",
"454 642 CURVE SMOOTH",
"454 603 OFFCURVE",
"432 562 OFFCURVE",
"408 550 CURVE",
"427 527 OFFCURVE",
"449 524 OFFCURVE",
"465 524 CURVE SMOOTH",
"516 524 OFFCURVE",
"535 563 OFFCURVE",
"535 616 CURVE SMOOTH",
"535 712 OFFCURVE",
"461 750 OFFCURVE",
"368 750 CURVE SMOOTH",
"106 750 OFFCURVE",
"19 411 OFFCURVE",
"19 230 CURVE SMOOTH",
"19 50 OFFCURVE",
"90 -16 OFFCURVE",
"238 -16 CURVE SMOOTH",
"330 -16 OFFCURVE",
"469 36 OFFCURVE",
"523 170 CURVE"
);
},
{
closed = 1;
nodes = (
"495 811 LINE",
"435 1000 LINE",
"414 1000 LINE",
"202 811 LINE",
"246 811 LINE",
"403 891 LINE",
"463 811 LINE"
);
}
);
};
layerId = UUID0;
paths = (
{
closed = 1;
nodes = (
"330 -16 OFFCURVE",
"469 36 OFFCURVE",
"523 170 CURVE",
"500 180 LINE",
"453 117 OFFCURVE",
"384 80 OFFCURVE",
"305 80 CURVE SMOOTH",
"208 80 OFFCURVE",
"185 144 OFFCURVE",
"185 236 CURVE SMOOTH",
"185 440 OFFCURVE",
"282 703 OFFCURVE",
"393 703 CURVE SMOOTH",
"438 703 OFFCURVE",
"454 674 OFFCURVE",
"454 642 CURVE SMOOTH",
"454 603 OFFCURVE",
"432 562 OFFCURVE",
"408 550 CURVE",
"427 527 OFFCURVE",
"449 524 OFFCURVE",
"465 524 CURVE SMOOTH",
"516 524 OFFCURVE",
"535 563 OFFCURVE",
"535 616 CURVE SMOOTH",
"535 712 OFFCURVE",
"461 750 OFFCURVE",
"368 750 CURVE SMOOTH",
"106 750 OFFCURVE",
"19 411 OFFCURVE",
"19 230 CURVE SMOOTH",
"19 50 OFFCURVE",
"90 -16 OFFCURVE",
"238 -16 CURVE SMOOTH"
);
},
{
closed = 1;
nodes = (
"246 811 LINE",
"403 891 LINE",
"463 811 LINE",
"495 811 LINE",
"435 1000 LINE",
"414 1000 LINE",
"202 811 LINE"
);
}
);
width = 497;
}
);
unicode = 0108;
},
{
color = 4;
glyphname = Cdotaccent;
lastChange = "2016-09-22 17:50:23 +0000";
layers = (
{
background = {
paths = (
{
closed = 1;
nodes = (
"500 180 LINE",
"453 117 OFFCURVE",
"384 80 OFFCURVE",
"305 80 CURVE SMOOTH",
"208 80 OFFCURVE",
"185 144 OFFCURVE",
"185 236 CURVE SMOOTH",
"185 440 OFFCURVE",
"282 703 OFFCURVE",
"393 703 CURVE SMOOTH",
"438 703 OFFCURVE",
"454 674 OFFCURVE",
"454 642 CURVE SMOOTH",
"454 603 OFFCURVE",
"432 562 OFFCURVE",
"408 550 CURVE",
"427 527 OFFCURVE",
"449 524 OFFCURVE",
"465 524 CURVE SMOOTH",
"516 524 OFFCURVE",
"535 563 OFFCURVE",
"535 616 CURVE SMOOTH",
"535 712 OFFCURVE",
"461 750 OFFCURVE",
"368 750 CURVE SMOOTH",
"106 750 OFFCURVE",
"19 411 OFFCURVE",
"19 230 CURVE SMOOTH",
"19 50 OFFCURVE",
"90 -16 OFFCURVE",
"238 -16 CURVE SMOOTH",
"330 -16 OFFCURVE",
"469 36 OFFCURVE",
"523 170 CURVE"
);
},
{
closed = 1;
nodes = (
"412 811 LINE",
"533 1000 LINE",
"428 1000 LINE",
"337 811 LINE"
);
}
);
};
layerId = UUID0;
paths = (
{
closed = 1;
nodes = (
"330 -16 OFFCURVE",
"469 36 OFFCURVE",
"523 170 CURVE",
"500 180 LINE",
"453 117 OFFCURVE",
"384 80 OFFCURVE",
"305 80 CURVE SMOOTH",
"208 80 OFFCURVE",
"185 144 OFFCURVE",
"185 236 CURVE SMOOTH",
"185 440 OFFCURVE",
"282 703 OFFCURVE",
"393 703 CURVE SMOOTH",
"438 703 OFFCURVE",
"454 674 OFFCURVE",
"454 642 CURVE SMOOTH",
"454 603 OFFCURVE",
"432 562 OFFCURVE",
"408 550 CURVE",
"427 527 OFFCURVE",
"449 524 OFFCURVE",
"465 524 CURVE SMOOTH",
"516 524 OFFCURVE",
"535 563 OFFCURVE",
"535 616 CURVE SMOOTH",
"535 712 OFFCURVE",
"461 750 OFFCURVE",
"368 750 CURVE SMOOTH",
"106 750 OFFCURVE",
"19 411 OFFCURVE",
"19 230 CURVE SMOOTH",
"19 50 OFFCURVE",
"90 -16 OFFCURVE",
"238 -16 CURVE SMOOTH"
);
},
{
closed = 1;
nodes = (
"489 822 OFFCURVE",
"525 856 OFFCURVE",
"525 900 CURVE SMOOTH",
"525 945 OFFCURVE",
"489 980 OFFCURVE",
"445 980 CURVE SMOOTH",
"401 980 OFFCURVE",
"366 945 OFFCURVE",
"366 900 CURVE SMOOTH",
"366 856 OFFCURVE",
"401 822 OFFCURVE",
"445 822 CURVE SMOOTH"
);
}
);
width = 497;
}
);
unicode = 010A;
},
{
color = 4;
glyphname = D;
lastChange = "2016-09-22 17:50:23 +0000";
layers = (
{
background = {
paths = (
{
closed = 1;
nodes = (
"238 0 LINE",
"246 40 LINE",
"289 3 OFFCURVE",
"329 -13 OFFCURVE",
"368 -13 CURVE SMOOTH",
"516 -13 OFFCURVE",
"645 233 OFFCURVE",
"645 462 CURVE SMOOTH",
"645 615 OFFCURVE",
"572 750 OFFCURVE",
"378 750 CURVE SMOOTH",
"175 750 OFFCURVE",
"6 623 OFFCURVE",
"6 486 CURVE SMOOTH",
"6 418 OFFCURVE",
"46 393 OFFCURVE",
"113 393 CURVE",
"113 401 OFFCURVE",
"99 410 OFFCURVE",
"99 461 CURVE SMOOTH",
"99 613 OFFCURVE",
"212 704 OFFCURVE",
"361 704 CURVE SMOOTH",
"448 704 OFFCURVE",
"507 651 OFFCURVE",
"507 515 CURVE SMOOTH",
"507 313 OFFCURVE",
"434 75 OFFCURVE",
"315 75 CURVE SMOOTH",
"295 75 OFFCURVE",
"276 82 OFFCURVE",
"258 95 CURVE",
"378 656 LINE",
"230 636 LINE",
"94 0 LINE"
);
}
);
};
layerId = UUID0;
paths = (
{
closed = 1;
nodes = (
"516 -13 OFFCURVE",
"645 233 OFFCURVE",
"645 462 CURVE SMOOTH",
"645 615 OFFCURVE",
"572 750 OFFCURVE",
"378 750 CURVE SMOOTH",
"175 750 OFFCURVE",
"6 623 OFFCURVE",
"6 486 CURVE SMOOTH",
"6 418 OFFCURVE",
"46 393 OFFCURVE",
"113 393 CURVE",
"113 401 OFFCURVE",
"99 410 OFFCURVE",
"99 461 CURVE SMOOTH",
"99 613 OFFCURVE",
"212 704 OFFCURVE",
"361 704 CURVE SMOOTH",
"448 704 OFFCURVE",
"507 651 OFFCURVE",
"507 515 CURVE SMOOTH",
"507 313 OFFCURVE",
"434 75 OFFCURVE",
"315 75 CURVE SMOOTH",
"295 75 OFFCURVE",
"276 82 OFFCURVE",
"258 95 CURVE",
"378 656 LINE",
"230 636 LINE",
"94 0 LINE",
"238 0 LINE",
"246 40 LINE",
"289 3 OFFCURVE",
"329 -13 OFFCURVE",
"368 -13 CURVE SMOOTH"
);
}
);
width = 663;
}
);
unicode = 0044;
},
{
color = 4;
glyphname = Eth;
lastChange = "2016-09-22 17:50:23 +0000";
layers = (
{
background = {
paths = (
{
closed = 1;
nodes = (
"238 0 LINE",
"246 40 LINE",
"289 3 OFFCURVE",
"329 -13 OFFCURVE",
"368 -13 CURVE SMOOTH",
"516 -13 OFFCURVE",
"645 221 OFFCURVE",
"645 480 CURVE SMOOTH",
"645 620 OFFCURVE",
"588 750 OFFCURVE",
"357 750 CURVE SMOOTH",
"190 750 OFFCURVE",
"6 623 OFFCURVE",
"6 490 CURVE SMOOTH",
"6 418 OFFCURVE",
"44 393 OFFCURVE",
"113 393 CURVE",
"113 401 OFFCURVE",
"99 410 OFFCURVE",
"99 461 CURVE SMOOTH",
"99 613 OFFCURVE",
"207 704 OFFCURVE",
"369 704 CURVE SMOOTH",
"484 704 OFFCURVE",
"507 633 OFFCURVE",
"507 508 CURVE SMOOTH",
"507 316 OFFCURVE",
"434 75 OFFCURVE",
"315 75 CURVE SMOOTH",
"295 75 OFFCURVE",
"276 82 OFFCURVE",
"258 95 CURVE",
"311 345 LINE",
"386 345 LINE",
"406 419 LINE",
"327 419 LINE",
"378 656 LINE",
"230 636 LINE",
"184 419 LINE",
"149 419 LINE",
"129 345 LINE",
"168 345 LINE",
"94 0 LINE"
);
}
);
};
layerId = UUID0;
paths = (
{
closed = 1;
nodes = (
"516 -13 OFFCURVE",
"645 221 OFFCURVE",
"645 480 CURVE SMOOTH",
"645 620 OFFCURVE",
"588 750 OFFCURVE",
"357 750 CURVE SMOOTH",
"190 750 OFFCURVE",
"6 623 OFFCURVE",
"6 490 CURVE SMOOTH",
"6 418 OFFCURVE",
"44 393 OFFCURVE",
"113 393 CURVE",
"113 401 OFFCURVE",
"99 410 OFFCURVE",
"99 461 CURVE SMOOTH",
"99 613 OFFCURVE",
"207 704 OFFCURVE",
"369 704 CURVE SMOOTH",
"484 704 OFFCURVE",
"507 633 OFFCURVE",
"507 508 CURVE SMOOTH",
"507 316 OFFCURVE",
"434 75 OFFCURVE",
"315 75 CURVE SMOOTH",
"295 75 OFFCURVE",
"276 82 OFFCURVE",
"258 95 CURVE",
"311 345 LINE",
"386 345 LINE",
"406 419 LINE",
"327 419 LINE",
"378 656 LINE",
"230 636 LINE",
"184 419 LINE",
"149 419 LINE",
"129 345 LINE",
"168 345 LINE",
"94 0 LINE",
"238 0 LINE",
"246 40 LINE",
"289 3 OFFCURVE",
"329 -13 OFFCURVE",
"368 -13 CURVE SMOOTH"
);
}
);
width = 663;
}
);
unicode = 00D0;
},
{
color = 4;
glyphname = Dcaron;
lastChange = "2016-09-22 17:50:23 +0000";
layers = (
{
background = {
paths = (
{
closed = 1;
nodes = (
"238 0 LINE",
"246 40 LINE",
"289 3 OFFCURVE",
"329 -13 OFFCURVE",
"368 -13 CURVE SMOOTH",
"516 -13 OFFCURVE",
"645 221 OFFCURVE",
"645 480 CURVE SMOOTH",
"645 620 OFFCURVE",
"588 750 OFFCURVE",
"357 750 CURVE SMOOTH",
"190 750 OFFCURVE",
"6 623 OFFCURVE",
"6 490 CURVE SMOOTH",
"6 418 OFFCURVE",
"44 393 OFFCURVE",
"113 393 CURVE",
"113 401 OFFCURVE",
"99 410 OFFCURVE",
"99 461 CURVE SMOOTH",
"99 613 OFFCURVE",
"207 704 OFFCURVE",
"369 704 CURVE SMOOTH",
"484 704 OFFCURVE",
"507 633 OFFCURVE",
"507 508 CURVE SMOOTH",
"507 316 OFFCURVE",
"434 75 OFFCURVE",
"315 75 CURVE SMOOTH",
"295 75 OFFCURVE",
"276 82 OFFCURVE",
"258 95 CURVE",
"311 345 LINE",
"386 345 LINE",
"406 419 LINE",
"327 419 LINE",
"378 656 LINE",
"230 636 LINE",
"184 419 LINE",
"149 419 LINE",
"129 345 LINE",
"168 345 LINE",
"94 0 LINE"
);
}
);
};
layerId = UUID0;
paths = (
{
closed = 1;
nodes = (
"516 -13 OFFCURVE",
"645 233 OFFCURVE",
"645 462 CURVE SMOOTH",
"645 615 OFFCURVE",
"572 750 OFFCURVE",
"378 750 CURVE SMOOTH",
"175 750 OFFCURVE",
"6 623 OFFCURVE",
"6 486 CURVE SMOOTH",
"6 418 OFFCURVE",
"46 393 OFFCURVE",
"113 393 CURVE",
"113 401 OFFCURVE",
"99 410 OFFCURVE",
"99 461 CURVE SMOOTH",
"99 613 OFFCURVE",
"212 704 OFFCURVE",
"361 704 CURVE SMOOTH",
"448 704 OFFCURVE",
"507 651 OFFCURVE",
"507 515 CURVE SMOOTH",
"507 313 OFFCURVE",
"434 75 OFFCURVE",
"315 75 CURVE SMOOTH",
"295 75 OFFCURVE",
"276 82 OFFCURVE",
"258 95 CURVE",
"378 656 LINE",
"230 636 LINE",
"94 0 LINE",
"238 0 LINE",
"246 40 LINE",
"289 3 OFFCURVE",
"329 -13 OFFCURVE",
"368 -13 CURVE SMOOTH"
);
},
{
closed = 1;
nodes = (
"380 811 LINE",
"592 1000 LINE",
"548 1000 LINE",
"391 920 LINE",
"331 1000 LINE",
"299 1000 LINE",
"359 811 LINE"
);
}
);
width = 663;
}
);
unicode = 010E;
},
{
color = 4;
glyphname = Dcroat;
lastChange = "2016-09-22 17:50:23 +0000";
layers = (
{
background = {
paths = (
{
closed = 1;
nodes = (
"238 0 LINE",
"246 40 LINE",
"289 3 OFFCURVE",
"329 -13 OFFCURVE",
"368 -13 CURVE SMOOTH",
"516 -13 OFFCURVE",
"645 221 OFFCURVE",
"645 480 CURVE SMOOTH",
"645 620 OFFCURVE",
"588 750 OFFCURVE",
"357 750 CURVE SMOOTH",
"190 750 OFFCURVE",
"6 623 OFFCURVE",
"6 490 CURVE SMOOTH",
"6 418 OFFCURVE",
"44 393 OFFCURVE",
"113 393 CURVE",
"113 401 OFFCURVE",
"99 410 OFFCURVE",
"99 461 CURVE SMOOTH",
"99 613 OFFCURVE",
"207 704 OFFCURVE",
"369 704 CURVE SMOOTH",
"484 704 OFFCURVE",
"507 633 OFFCURVE",
"507 508 CURVE SMOOTH",
"507 316 OFFCURVE",
"434 75 OFFCURVE",
"315 75 CURVE SMOOTH",
"295 75 OFFCURVE",
"276 82 OFFCURVE",
"258 95 CURVE",
"311 345 LINE",
"386 345 LINE",
"406 419 LINE",
"327 419 LINE",
"378 656 LINE",
"230 636 LINE",
"184 419 LINE",
"149 419 LINE",
"129 345 LINE",
"168 345 LINE",
"94 0 LINE"
);
}
);
};
layerId = UUID0;
paths = (
{
closed = 1;
nodes = (
"516 -13 OFFCURVE",
"645 221 OFFCURVE",
"645 480 CURVE SMOOTH",
"645 620 OFFCURVE",
"588 750 OFFCURVE",
"357 750 CURVE SMOOTH",
"190 750 OFFCURVE",
"6 623 OFFCURVE",
"6 490 CURVE SMOOTH",
"6 418 OFFCURVE",
"44 393 OFFCURVE",
"113 393 CURVE",
"113 401 OFFCURVE",
"99 410 OFFCURVE",
"99 461 CURVE SMOOTH",
"99 613 OFFCURVE",
"207 704 OFFCURVE",
"369 704 CURVE SMOOTH",
"484 704 OFFCURVE",
"507 633 OFFCURVE",
"507 508 CURVE SMOOTH",
"507 316 OFFCURVE",
"434 75 OFFCURVE",
"315 75 CURVE SMOOTH",
"295 75 OFFCURVE",
"276 82 OFFCURVE",
"258 95 CURVE",
"311 345 LINE",
"386 345 LINE",
"406 419 LINE",
"327 419 LINE",
"378 656 LINE",
"230 636 LINE",
"184 419 LINE",
"149 419 LINE",
"129 345 LINE",
"168 345 LINE",
"94 0 LINE",
"238 0 LINE",
"246 40 LINE",
"289 3 OFFCURVE",
"329 -13 OFFCURVE",
"368 -13 CURVE SMOOTH"
);
}
);
width = 663;
}
);
unicode = 0110;
},
{
color = 4;
glyphname = Ddotbelow;
lastChange = "2016-09-22 17:50:23 +0000";
layers = (
{
background = {
paths = (
{
closed = 1;
nodes = (
"238 0 LINE",
"246 40 LINE",
"289 3 OFFCURVE",
"329 -13 OFFCURVE",
"368 -13 CURVE SMOOTH",
"516 -13 OFFCURVE",
"645 221 OFFCURVE",
"645 480 CURVE SMOOTH",
"645 620 OFFCURVE",
"588 750 OFFCURVE",
"357 750 CURVE SMOOTH",
"190 750 OFFCURVE",
"6 623 OFFCURVE",
"6 490 CURVE SMOOTH",
"6 418 OFFCURVE",
"44 393 OFFCURVE",
"113 393 CURVE",
"113 401 OFFCURVE",
"99 410 OFFCURVE",
"99 461 CURVE SMOOTH",
"99 613 OFFCURVE",
"207 704 OFFCURVE",
"369 704 CURVE SMOOTH",
"484 704 OFFCURVE",
"507 633 OFFCURVE",
"507 508 CURVE SMOOTH",
"507 316 OFFCURVE",
"434 75 OFFCURVE",
"315 75 CURVE SMOOTH",
"295 75 OFFCURVE",
"276 82 OFFCURVE",
"258 95 CURVE",
"311 345 LINE",
"386 345 LINE",
"406 419 LINE",
"327 419 LINE",
"378 656 LINE",
"230 636 LINE",
"184 419 LINE",
"149 419 LINE",
"129 345 LINE",
"168 345 LINE",
"94 0 LINE"
);
}
);
};
layerId = UUID0;
paths = (
{
closed = 1;
nodes = (
"516 -13 OFFCURVE",
"645 233 OFFCURVE",
"645 462 CURVE SMOOTH",
"645 615 OFFCURVE",
"572 750 OFFCURVE",
"378 750 CURVE SMOOTH",
"175 750 OFFCURVE",
"6 623 OFFCURVE",
"6 486 CURVE SMOOTH",
"6 418 OFFCURVE",
"46 393 OFFCURVE",
"113 393 CURVE",
"113 401 OFFCURVE",
"99 410 OFFCURVE",
"99 461 CURVE SMOOTH",
"99 613 OFFCURVE",
"212 704 OFFCURVE",
"361 704 CURVE SMOOTH",
"448 704 OFFCURVE",
"507 651 OFFCURVE",
"507 515 CURVE SMOOTH",
"507 313 OFFCURVE",
"434 75 OFFCURVE",
"315 75 CURVE SMOOTH",
"295 75 OFFCURVE",
"276 82 OFFCURVE",
"258 95 CURVE",
"378 656 LINE",
"230 636 LINE",
"94 0 LINE",
"238 0 LINE",
"246 40 LINE",
"289 3 OFFCURVE",
"329 -13 OFFCURVE",
"368 -13 CURVE SMOOTH"
);
},
{
closed = 1;
nodes = (
"309 -231 OFFCURVE",
"345 -196 OFFCURVE",
"345 -152 CURVE SMOOTH",
"345 -108 OFFCURVE",
"309 -72 OFFCURVE",
"265 -72 CURVE SMOOTH",
"221 -72 OFFCURVE",
"186 -108 OFFCURVE",
"186 -152 CURVE SMOOTH",
"186 -196 OFFCURVE",
"221 -231 OFFCURVE",
"265 -231 CURVE SMOOTH"
);
}
);
width = 663;
}
);
unicode = 1E0C;
},
{
color = 4;
glyphname = E;
lastChange = "2016-09-22 17:50:23 +0000";
layers = (
{
background = {
paths = (
{
closed = 1;
nodes = (
"461 180 LINE",
"424 113 OFFCURVE",
"337 78 OFFCURVE",
"276 78 CURVE SMOOTH",
"208 78 OFFCURVE",
"181 123 OFFCURVE",
"181 179 CURVE SMOOTH",
"181 271 OFFCURVE",
"253 394 OFFCURVE",
"360 418 CURVE",
"288 437 OFFCURVE",
"259 493 OFFCURVE",
"259 552 CURVE SMOOTH",
"259 622 OFFCURVE",
"301 693 OFFCURVE",
"361 693 CURVE SMOOTH",
"388 693 OFFCURVE",
"416 678 OFFCURVE",
"416 637 CURVE SMOOTH",
"416 602 OFFCURVE",
"396 558 OFFCURVE",
"372 550 CURVE",
"385 532 OFFCURVE",
"401 523 OFFCURVE",
"419 523 CURVE SMOOTH",
"459 523 OFFCURVE",
"493 567 OFFCURVE",
"493 627 CURVE SMOOTH",
"493 709 OFFCURVE",
"430 752 OFFCURVE",
"350 752 CURVE SMOOTH",
"222 752 OFFCURVE",
"131 640 OFFCURVE",
"131 537 CURVE SMOOTH",
"131 492 OFFCURVE",
"149 448 OFFCURVE",
"192 417 CURVE",
"76 387 OFFCURVE",
"7 263 OFFCURVE",
"7 158 CURVE SMOOTH",
"7 65 OFFCURVE",
"62 -18 OFFCURVE",
"191 -18 CURVE SMOOTH",
"312 -18 OFFCURVE",
"431 53 OFFCURVE",
"484 170 CURVE"
);
}
);
};
layerId = UUID0;
paths = (
{
closed = 1;
nodes = (
"312 -18 OFFCURVE",
"431 53 OFFCURVE",
"484 170 CURVE",
"461 180 LINE",
"424 113 OFFCURVE",
"337 78 OFFCURVE",
"276 78 CURVE SMOOTH",
"208 78 OFFCURVE",
"181 123 OFFCURVE",
"181 179 CURVE SMOOTH",
"181 271 OFFCURVE",
"253 394 OFFCURVE",
"360 418 CURVE",
"288 437 OFFCURVE",
"259 493 OFFCURVE",
"259 552 CURVE SMOOTH",
"259 622 OFFCURVE",
"301 693 OFFCURVE",
"361 693 CURVE SMOOTH",
"388 693 OFFCURVE",
"416 678 OFFCURVE",
"416 637 CURVE SMOOTH",
"416 602 OFFCURVE",
"396 558 OFFCURVE",
"372 550 CURVE",
"385 532 OFFCURVE",
"401 523 OFFCURVE",
"419 523 CURVE SMOOTH",
"459 523 OFFCURVE",
"493 567 OFFCURVE",
"493 627 CURVE SMOOTH",
"493 709 OFFCURVE",
"430 752 OFFCURVE",
"350 752 CURVE SMOOTH",
"222 752 OFFCURVE",
"131 640 OFFCURVE",
"131 537 CURVE SMOOTH",
"131 492 OFFCURVE",
"149 448 OFFCURVE",
"192 417 CURVE",
"76 387 OFFCURVE",
"7 263 OFFCURVE",
"7 158 CURVE SMOOTH",
"7 65 OFFCURVE",
"62 -18 OFFCURVE",
"191 -18 CURVE SMOOTH"
);
}
);
width = 459;
}
);
unicode = 0045;
},
{
color = 4;
glyphname = Eacute;
lastChange = "2016-09-22 17:50:23 +0000";
layers = (
{
background = {
paths = (
{
closed = 1;
nodes = (
"461 180 LINE",
"424 113 OFFCURVE",
"337 78 OFFCURVE",
"276 78 CURVE SMOOTH",
"208 78 OFFCURVE",
"181 123 OFFCURVE",
"181 179 CURVE SMOOTH",
"181 271 OFFCURVE",
"253 394 OFFCURVE",
"360 418 CURVE",
"288 437 OFFCURVE",
"259 493 OFFCURVE",
"259 552 CURVE SMOOTH",
"259 622 OFFCURVE",
"301 693 OFFCURVE",
"361 693 CURVE SMOOTH",
"388 693 OFFCURVE",
"416 678 OFFCURVE",
"416 637 CURVE SMOOTH",
"416 602 OFFCURVE",
"396 558 OFFCURVE",
"372 550 CURVE",
"385 532 OFFCURVE",
"401 523 OFFCURVE",
"419 523 CURVE SMOOTH",
"459 523 OFFCURVE",
"493 567 OFFCURVE",
"493 627 CURVE SMOOTH",
"493 709 OFFCURVE",
"430 752 OFFCURVE",
"350 752 CURVE SMOOTH",
"222 752 OFFCURVE",
"131 640 OFFCURVE",
"131 537 CURVE SMOOTH",
"131 492 OFFCURVE",
"149 448 OFFCURVE",
"192 417 CURVE",
"76 387 OFFCURVE",
"7 263 OFFCURVE",
"7 158 CURVE SMOOTH",
"7 65 OFFCURVE",
"62 -18 OFFCURVE",
"191 -18 CURVE SMOOTH",
"312 -18 OFFCURVE",
"431 53 OFFCURVE",
"484 170 CURVE"
);
},
{
closed = 1;
nodes = (
"405 811 LINE",
"526 1000 LINE",
"421 1000 LINE",
"330 811 LINE"
);
}
);
};
layerId = UUID0;
paths = (
{
closed = 1;
nodes = (
"312 -18 OFFCURVE",
"431 53 OFFCURVE",
"484 170 CURVE",
"461 180 LINE",
"424 113 OFFCURVE",
"337 78 OFFCURVE",
"276 78 CURVE SMOOTH",
"208 78 OFFCURVE",
"181 123 OFFCURVE",
"181 179 CURVE SMOOTH",
"181 271 OFFCURVE",
"253 394 OFFCURVE",
"360 418 CURVE",
"288 437 OFFCURVE",
"259 493 OFFCURVE",
"259 552 CURVE SMOOTH",
"259 622 OFFCURVE",
"301 693 OFFCURVE",
"361 693 CURVE SMOOTH",
"388 693 OFFCURVE",
"416 678 OFFCURVE",
"416 637 CURVE SMOOTH",
"416 602 OFFCURVE",
"396 558 OFFCURVE",
"372 550 CURVE",
"385 532 OFFCURVE",
"401 523 OFFCURVE",
"419 523 CURVE SMOOTH",
"459 523 OFFCURVE",
"493 567 OFFCURVE",
"493 627 CURVE SMOOTH",
"493 709 OFFCURVE",
"430 752 OFFCURVE",
"350 752 CURVE SMOOTH",
"222 752 OFFCURVE",
"131 640 OFFCURVE",
"131 537 CURVE SMOOTH",
"131 492 OFFCURVE",
"149 448 OFFCURVE",
"192 417 CURVE",
"76 387 OFFCURVE",
"7 263 OFFCURVE",
"7 158 CURVE SMOOTH",
"7 65 OFFCURVE",
"62 -18 OFFCURVE",
"191 -18 CURVE SMOOTH"
);
},
{
closed = 1;
nodes = (
"405 811 LINE",
"526 1000 LINE",
"421 1000 LINE",
"330 811 LINE"
);
}
);
width = 459;
}
);
unicode = 00C9;
},
{
color = 4;
glyphname = Ebreve;
lastChange = "2016-09-22 17:50:23 +0000";
layers = (
{
background = {
paths = (
{
closed = 1;
nodes = (
"461 180 LINE",
"424 113 OFFCURVE",
"337 78 OFFCURVE",
"276 78 CURVE SMOOTH",
"208 78 OFFCURVE",
"181 123 OFFCURVE",
"181 179 CURVE SMOOTH",
"181 271 OFFCURVE",
"253 394 OFFCURVE",
"360 418 CURVE",
"288 437 OFFCURVE",
"259 493 OFFCURVE",
"259 552 CURVE SMOOTH",
"259 622 OFFCURVE",
"301 693 OFFCURVE",
"361 693 CURVE SMOOTH",
"388 693 OFFCURVE",
"416 678 OFFCURVE",
"416 637 CURVE SMOOTH",
"416 602 OFFCURVE",
"396 558 OFFCURVE",
"372 550 CURVE",
"385 532 OFFCURVE",
"401 523 OFFCURVE",
"419 523 CURVE SMOOTH",
"459 523 OFFCURVE",
"493 567 OFFCURVE",
"493 627 CURVE SMOOTH",
"493 709 OFFCURVE",
"430 752 OFFCURVE",
"350 752 CURVE SMOOTH",
"222 752 OFFCURVE",
"131 640 OFFCURVE",
"131 537 CURVE SMOOTH",
"131 492 OFFCURVE",
"149 448 OFFCURVE",
"192 417 CURVE",
"76 387 OFFCURVE",
"7 263 OFFCURVE",
"7 158 CURVE SMOOTH",
"7 65 OFFCURVE",
"62 -18 OFFCURVE",
"191 -18 CURVE SMOOTH",
"312 -18 OFFCURVE",
"431 53 OFFCURVE",
"484 170 CURVE"
);
},
{
closed = 1;
nodes = (
"360 917 OFFCURVE",
"332 945 OFFCURVE",
"299 945 CURVE SMOOTH",
"264 945 OFFCURVE",
"238 917 OFFCURVE",
"238 884 CURVE SMOOTH",
"238 849 OFFCURVE",
"264 823 OFFCURVE",
"299 823 CURVE SMOOTH",
"332 823 OFFCURVE",
"360 849 OFFCURVE",
"360 884 CURVE SMOOTH"
);
},
{
closed = 1;
nodes = (
"540 917 OFFCURVE",
"512 945 OFFCURVE",
"479 945 CURVE SMOOTH",
"444 945 OFFCURVE",
"418 917 OFFCURVE",
"418 884 CURVE SMOOTH",
"418 849 OFFCURVE",
"444 823 OFFCURVE",
"479 823 CURVE SMOOTH",
"512 823 OFFCURVE",
"540 849 OFFCURVE",
"540 884 CURVE SMOOTH"
);
}
);
};
layerId = UUID0;
paths = (
{
closed = 1;
nodes = (
"312 -18 OFFCURVE",
"431 53 OFFCURVE",
"484 170 CURVE",
"461 180 LINE",
"424 113 OFFCURVE",
"337 78 OFFCURVE",
"276 78 CURVE SMOOTH",
"208 78 OFFCURVE",
"181 123 OFFCURVE",
"181 179 CURVE SMOOTH",
"181 271 OFFCURVE",
"253 394 OFFCURVE",
"360 418 CURVE",
"288 437 OFFCURVE",
"259 493 OFFCURVE",
"259 552 CURVE SMOOTH",
"259 622 OFFCURVE",
"301 693 OFFCURVE",
"361 693 CURVE SMOOTH",
"388 693 OFFCURVE",
"416 678 OFFCURVE",
"416 637 CURVE SMOOTH",
"416 602 OFFCURVE",
"396 558 OFFCURVE",
"372 550 CURVE",
"385 532 OFFCURVE",
"401 523 OFFCURVE",
"419 523 CURVE SMOOTH",
"459 523 OFFCURVE",
"493 567 OFFCURVE",
"493 627 CURVE SMOOTH",
"493 709 OFFCURVE",
"430 752 OFFCURVE",
"350 752 CURVE SMOOTH",
"222 752 OFFCURVE",
"131 640 OFFCURVE",
"131 537 CURVE SMOOTH",
"131 492 OFFCURVE",
"149 448 OFFCURVE",
"192 417 CURVE",
"76 387 OFFCURVE",
"7 263 OFFCURVE",
"7 158 CURVE SMOOTH",
"7 65 OFFCURVE",
"62 -18 OFFCURVE",
"191 -18 CURVE SMOOTH"
);
},
{
closed = 1;
nodes = (
"482 815 OFFCURVE",
"574 875 OFFCURVE",
"585 954 CURVE",
"500 954 LINE",
"493 908 OFFCURVE",
"445 871 OFFCURVE",
"390 871 CURVE SMOOTH",
"340 871 OFFCURVE",
"312 900 OFFCURVE",
"312 954 CURVE",
"222 954 LINE",
"222 863 OFFCURVE",
"275 815 OFFCURVE",
"375 815 CURVE SMOOTH"
);
}
);
width = 459;
}
);
unicode = 0114;
},
{
color = 4;
glyphname = Ecaron;
lastChange = "2016-09-22 17:50:23 +0000";
layers = (
{
background = {
paths = (
{
closed = 1;
nodes = (
"461 180 LINE",
"424 113 OFFCURVE",
"337 78 OFFCURVE",
"276 78 CURVE SMOOTH",
"208 78 OFFCURVE",
"181 123 OFFCURVE",
"181 179 CURVE SMOOTH",
"181 271 OFFCURVE",
"253 394 OFFCURVE",
"360 418 CURVE",
"288 437 OFFCURVE",
"259 493 OFFCURVE",
"259 552 CURVE SMOOTH",
"259 622 OFFCURVE",
"301 693 OFFCURVE",
"361 693 CURVE SMOOTH",
"388 693 OFFCURVE",
"416 678 OFFCURVE",
"416 637 CURVE SMOOTH",
"416 602 OFFCURVE",
"396 558 OFFCURVE",
"372 550 CURVE",
"385 532 OFFCURVE",
"401 523 OFFCURVE",
"419 523 CURVE SMOOTH",
"459 523 OFFCURVE",
"493 567 OFFCURVE",
"493 627 CURVE SMOOTH",
"493 709 OFFCURVE",
"430 752 OFFCURVE",
"350 752 CURVE SMOOTH",
"222 752 OFFCURVE",
"131 640 OFFCURVE",
"131 537 CURVE SMOOTH",
"131 492 OFFCURVE",
"149 448 OFFCURVE",
"192 417 CURVE",
"76 387 OFFCURVE",
"7 263 OFFCURVE",
"7 158 CURVE SMOOTH",
"7 65 OFFCURVE",
"62 -18 OFFCURVE",
"191 -18 CURVE SMOOTH",
"312 -18 OFFCURVE",
"431 53 OFFCURVE",
"484 170 CURVE"
);
},
{
closed = 1;
nodes = (
"360 917 OFFCURVE",
"332 945 OFFCURVE",
"299 945 CURVE SMOOTH",
"264 945 OFFCURVE",
"238 917 OFFCURVE",
"238 884 CURVE SMOOTH",
"238 849 OFFCURVE",
"264 823 OFFCURVE",
"299 823 CURVE SMOOTH",
"332 823 OFFCURVE",
"360 849 OFFCURVE",
"360 884 CURVE SMOOTH"
);
},
{
closed = 1;
nodes = (
"540 917 OFFCURVE",
"512 945 OFFCURVE",
"479 945 CURVE SMOOTH",
"444 945 OFFCURVE",
"418 917 OFFCURVE",
"418 884 CURVE SMOOTH",
"418 849 OFFCURVE",
"444 823 OFFCURVE",
"479 823 CURVE SMOOTH",
"512 823 OFFCURVE",
"540 849 OFFCURVE",
"540 884 CURVE SMOOTH"
);
}
);
};
layerId = UUID0;
paths = (
{
closed = 1;
nodes = (
"312 -18 OFFCURVE",
"431 53 OFFCURVE",
"484 170 CURVE",
"461 180 LINE",
"424 113 OFFCURVE",
"337 78 OFFCURVE",
"276 78 CURVE SMOOTH",
"208 78 OFFCURVE",
"181 123 OFFCURVE",
"181 179 CURVE SMOOTH",
"181 271 OFFCURVE",
"253 394 OFFCURVE",
"360 418 CURVE",
"288 437 OFFCURVE",
"259 493 OFFCURVE",
"259 552 CURVE SMOOTH",
"259 622 OFFCURVE",
"301 693 OFFCURVE",
"361 693 CURVE SMOOTH",
"388 693 OFFCURVE",
"416 678 OFFCURVE",
"416 637 CURVE SMOOTH",
"416 602 OFFCURVE",
"396 558 OFFCURVE",
"372 550 CURVE",
"385 532 OFFCURVE",
"401 523 OFFCURVE",
"419 523 CURVE SMOOTH",
"459 523 OFFCURVE",
"493 567 OFFCURVE",
"493 627 CURVE SMOOTH",
"493 709 OFFCURVE",
"430 752 OFFCURVE",
"350 752 CURVE SMOOTH",
"222 752 OFFCURVE",
"131 640 OFFCURVE",
"131 537 CURVE SMOOTH",
"131 492 OFFCURVE",
"149 448 OFFCURVE",
"192 417 CURVE",
"76 387 OFFCURVE",
"7 263 OFFCURVE",
"7 158 CURVE SMOOTH",
"7 65 OFFCURVE",
"62 -18 OFFCURVE",
"191 -18 CURVE SMOOTH"
);
},
{
closed = 1;
nodes = (
"380 811 LINE",
"592 1000 LINE",
"548 1000 LINE",
"391 920 LINE",
"331 1000 LINE",
"299 1000 LINE",
"359 811 LINE"
);
}
);
width = 459;
}
);
unicode = 011A;
},
{
color = 4;
glyphname = Ecircumflex;
lastChange = "2016-09-22 17:50:23 +0000";
layers = (
{
background = {
paths = (
{
closed = 1;
nodes = (
"461 180 LINE",
"424 113 OFFCURVE",
"337 78 OFFCURVE",
"276 78 CURVE SMOOTH",
"208 78 OFFCURVE",
"181 123 OFFCURVE",
"181 179 CURVE SMOOTH",
"181 271 OFFCURVE",
"253 394 OFFCURVE",
"360 418 CURVE",
"288 437 OFFCURVE",
"259 493 OFFCURVE",
"259 552 CURVE SMOOTH",
"259 622 OFFCURVE",
"301 693 OFFCURVE",
"361 693 CURVE SMOOTH",
"388 693 OFFCURVE",
"416 678 OFFCURVE",
"416 637 CURVE SMOOTH",
"416 602 OFFCURVE",
"396 558 OFFCURVE",
"372 550 CURVE",
"385 532 OFFCURVE",
"401 523 OFFCURVE",
"419 523 CURVE SMOOTH",
"459 523 OFFCURVE",
"493 567 OFFCURVE",
"493 627 CURVE SMOOTH",
"493 709 OFFCURVE",
"430 752 OFFCURVE",
"350 752 CURVE SMOOTH",
"222 752 OFFCURVE",
"131 640 OFFCURVE",
"131 537 CURVE SMOOTH",
"131 492 OFFCURVE",
"149 448 OFFCURVE",
"192 417 CURVE",
"76 387 OFFCURVE",
"7 263 OFFCURVE",
"7 158 CURVE SMOOTH",
"7 65 OFFCURVE",
"62 -18 OFFCURVE",
"191 -18 CURVE SMOOTH",
"312 -18 OFFCURVE",
"431 53 OFFCURVE",
"484 170 CURVE"
);
},
{
closed = 1;
nodes = (
"495 811 LINE",
"435 1000 LINE",
"414 1000 LINE",
"202 811 LINE",
"246 811 LINE",
"403 891 LINE",
"463 811 LINE"
);
}
);
};
layerId = UUID0;
paths = (
{
closed = 1;
nodes = (
"312 -18 OFFCURVE",
"431 53 OFFCURVE",
"484 170 CURVE",
"461 180 LINE",
"424 113 OFFCURVE",
"337 78 OFFCURVE",
"276 78 CURVE SMOOTH",
"208 78 OFFCURVE",
"181 123 OFFCURVE",
"181 179 CURVE SMOOTH",
"181 271 OFFCURVE",
"253 394 OFFCURVE",
"360 418 CURVE",
"288 437 OFFCURVE",
"259 493 OFFCURVE",
"259 552 CURVE SMOOTH",
"259 622 OFFCURVE",
"301 693 OFFCURVE",
"361 693 CURVE SMOOTH",
"388 693 OFFCURVE",
"416 678 OFFCURVE",
"416 637 CURVE SMOOTH",
"416 602 OFFCURVE",
"396 558 OFFCURVE",
"372 550 CURVE",
"385 532 OFFCURVE",
"401 523 OFFCURVE",
"419 523 CURVE SMOOTH",
"459 523 OFFCURVE",
"493 567 OFFCURVE",
"493 627 CURVE SMOOTH",
"493 709 OFFCURVE",
"430 752 OFFCURVE",
"350 752 CURVE SMOOTH",
"222 752 OFFCURVE",
"131 640 OFFCURVE",
"131 537 CURVE SMOOTH",
"131 492 OFFCURVE",
"149 448 OFFCURVE",
"192 417 CURVE",
"76 387 OFFCURVE",
"7 263 OFFCURVE",
"7 158 CURVE SMOOTH",
"7 65 OFFCURVE",
"62 -18 OFFCURVE",
"191 -18 CURVE SMOOTH"
);
},
{
closed = 1;
nodes = (
"246 811 LINE",
"403 891 LINE",
"463 811 LINE",
"495 811 LINE",
"435 1000 LINE",
"414 1000 LINE",
"202 811 LINE"
);
}
);
width = 459;
}
);
unicode = 00CA;
},
{
color = 4;
glyphname = Ecircumflexacute;
lastChange = "2016-09-22 17:50:23 +0000";
layers = (
{
background = {
paths = (
{
closed = 1;
nodes = (
"461 180 LINE",
"424 113 OFFCURVE",
"337 78 OFFCURVE",
"276 78 CURVE SMOOTH",
"208 78 OFFCURVE",
"181 123 OFFCURVE",
"181 179 CURVE SMOOTH",
"181 271 OFFCURVE",
"253 394 OFFCURVE",
"360 418 CURVE",
"288 437 OFFCURVE",
"259 493 OFFCURVE",
"259 552 CURVE SMOOTH",
"259 622 OFFCURVE",
"301 693 OFFCURVE",
"361 693 CURVE SMOOTH",
"388 693 OFFCURVE",
"416 678 OFFCURVE",
"416 637 CURVE SMOOTH",
"416 602 OFFCURVE",
"396 558 OFFCURVE",
"372 550 CURVE",
"385 532 OFFCURVE",
"401 523 OFFCURVE",
"419 523 CURVE SMOOTH",
"459 523 OFFCURVE",
"493 567 OFFCURVE",
"493 627 CURVE SMOOTH",
"493 709 OFFCURVE",
"430 752 OFFCURVE",
"350 752 CURVE SMOOTH",
"222 752 OFFCURVE",
"131 640 OFFCURVE",
"131 537 CURVE SMOOTH",
"131 492 OFFCURVE",
"149 448 OFFCURVE",
"192 417 CURVE",
"76 387 OFFCURVE",
"7 263 OFFCURVE",
"7 158 CURVE SMOOTH",
"7 65 OFFCURVE",
"62 -18 OFFCURVE",
"191 -18 CURVE SMOOTH",
"312 -18 OFFCURVE",
"431 53 OFFCURVE",
"484 170 CURVE"
);
},
{
closed = 1;
nodes = (
"495 811 LINE",
"435 1000 LINE",
"414 1000 LINE",
"202 811 LINE",
"246 811 LINE",
"403 891 LINE",
"463 811 LINE"
);
}
);
};
layerId = UUID0;
paths = (
{
closed = 1;
nodes = (
"312 -18 OFFCURVE",
"431 53 OFFCURVE",
"484 170 CURVE",
"461 180 LINE",
"424 113 OFFCURVE",
"337 78 OFFCURVE",
"276 78 CURVE SMOOTH",
"208 78 OFFCURVE",
"181 123 OFFCURVE",
"181 179 CURVE SMOOTH",
"181 271 OFFCURVE",
"253 394 OFFCURVE",
"360 418 CURVE",
"288 437 OFFCURVE",
"259 493 OFFCURVE",
"259 552 CURVE SMOOTH",
"259 622 OFFCURVE",
"301 693 OFFCURVE",
"361 693 CURVE SMOOTH",
"388 693 OFFCURVE",
"416 678 OFFCURVE",
"416 637 CURVE SMOOTH",
"416 602 OFFCURVE",
"396 558 OFFCURVE",
"372 550 CURVE",
"385 532 OFFCURVE",
"401 523 OFFCURVE",
"419 523 CURVE SMOOTH",
"459 523 OFFCURVE",
"493 567 OFFCURVE",
"493 627 CURVE SMOOTH",
"493 709 OFFCURVE",
"430 752 OFFCURVE",
"350 752 CURVE SMOOTH",
"222 752 OFFCURVE",
"131 640 OFFCURVE",
"131 537 CURVE SMOOTH",
"131 492 OFFCURVE",
"149 448 OFFCURVE",
"192 417 CURVE",
"76 387 OFFCURVE",
"7 263 OFFCURVE",
"7 158 CURVE SMOOTH",
"7 65 OFFCURVE",
"62 -18 OFFCURVE",
"191 -18 CURVE SMOOTH"
);
},
{
closed = 1;
nodes = (
"299 811 LINE",
"409 883 LINE",
"441 811 LINE",
"486 811 LINE",
"436 950 LINE",
"418 950 LINE",
"240 811 LINE"
);
},
{
closed = 1;
nodes = (
"524 866 LINE",
"611 1000 LINE",
"542 1000 LINE",
"480 866 LINE"
);
}
);
width = 459;
}
);
unicode = 1EBE;
},
{
color = 4;
glyphname = Ecircumflexdotbelow;
lastChange = "2016-09-22 17:50:23 +0000";
layers = (
{
background = {
paths = (
{
closed = 1;
nodes = (
"461 180 LINE",
"424 113 OFFCURVE",
"337 78 OFFCURVE",
"276 78 CURVE SMOOTH",
"208 78 OFFCURVE",
"181 123 OFFCURVE",
"181 179 CURVE SMOOTH",
"181 271 OFFCURVE",
"253 394 OFFCURVE",
"360 418 CURVE",
"288 437 OFFCURVE",
"259 493 OFFCURVE",
"259 552 CURVE SMOOTH",
"259 622 OFFCURVE",
"301 693 OFFCURVE",
"361 693 CURVE SMOOTH",
"388 693 OFFCURVE",
"416 678 OFFCURVE",
"416 637 CURVE SMOOTH",
"416 602 OFFCURVE",
"396 558 OFFCURVE",
"372 550 CURVE",
"385 532 OFFCURVE",
"401 523 OFFCURVE",
"419 523 CURVE SMOOTH",
"459 523 OFFCURVE",
"493 567 OFFCURVE",
"493 627 CURVE SMOOTH",
"493 709 OFFCURVE",
"430 752 OFFCURVE",
"350 752 CURVE SMOOTH",
"222 752 OFFCURVE",
"131 640 OFFCURVE",
"131 537 CURVE SMOOTH",
"131 492 OFFCURVE",
"149 448 OFFCURVE",
"192 417 CURVE",
"76 387 OFFCURVE",
"7 263 OFFCURVE",
"7 158 CURVE SMOOTH",
"7 65 OFFCURVE",
"62 -18 OFFCURVE",
"191 -18 CURVE SMOOTH",
"312 -18 OFFCURVE",
"431 53 OFFCURVE",
"484 170 CURVE"
);
},
{
closed = 1;
nodes = (
"495 811 LINE",
"435 1000 LINE",
"414 1000 LINE",
"202 811 LINE",
"246 811 LINE",
"403 891 LINE",
"463 811 LINE"
);
}
);
};
layerId = UUID0;
paths = (
{
closed = 1;
nodes = (
"312 -18 OFFCURVE",
"431 53 OFFCURVE",
"484 170 CURVE",
"461 180 LINE",
"424 113 OFFCURVE",
"337 78 OFFCURVE",
"276 78 CURVE SMOOTH",
"208 78 OFFCURVE",
"181 123 OFFCURVE",
"181 179 CURVE SMOOTH",
"181 271 OFFCURVE",
"253 394 OFFCURVE",
"360 418 CURVE",
"288 437 OFFCURVE",
"259 493 OFFCURVE",
"259 552 CURVE SMOOTH",
"259 622 OFFCURVE",
"301 693 OFFCURVE",
"361 693 CURVE SMOOTH",
"388 693 OFFCURVE",
"416 678 OFFCURVE",
"416 637 CURVE SMOOTH",
"416 602 OFFCURVE",
"396 558 OFFCURVE",
"372 550 CURVE",
"385 532 OFFCURVE",
"401 523 OFFCURVE",
"419 523 CURVE SMOOTH",
"459 523 OFFCURVE",
"493 567 OFFCURVE",
"493 627 CURVE SMOOTH",
"493 709 OFFCURVE",
"430 752 OFFCURVE",
"350 752 CURVE SMOOTH",
"222 752 OFFCURVE",
"131 640 OFFCURVE",
"131 537 CURVE SMOOTH",
"131 492 OFFCURVE",
"149 448 OFFCURVE",
"192 417 CURVE",
"76 387 OFFCURVE",
"7 263 OFFCURVE",
"7 158 CURVE SMOOTH",
"7 65 OFFCURVE",
"62 -18 OFFCURVE",
"191 -18 CURVE SMOOTH"
);
},
{
closed = 1;
nodes = (
"197 -231 OFFCURVE",
"233 -196 OFFCURVE",
"233 -152 CURVE SMOOTH",
"233 -108 OFFCURVE",
"197 -72 OFFCURVE",
"153 -72 CURVE SMOOTH",
"109 -72 OFFCURVE",
"74 -108 OFFCURVE",
"74 -152 CURVE SMOOTH",
"74 -196 OFFCURVE",
"109 -231 OFFCURVE",
"153 -231 CURVE SMOOTH"
);
},
{
closed = 1;
nodes = (
"246 811 LINE",
"403 891 LINE",
"463 811 LINE",
"495 811 LINE",
"435 1000 LINE",
"414 1000 LINE",
"202 811 LINE"
);
}
);
width = 459;
}
);
unicode = 1EC6;
},
{
color = 4;
glyphname = Ecircumflexgrave;
lastChange = "2016-09-22 17:50:23 +0000";
layers = (
{
background = {
paths = (
{
closed = 1;
nodes = (
"461 180 LINE",
"424 113 OFFCURVE",
"337 78 OFFCURVE",
"276 78 CURVE SMOOTH",
"208 78 OFFCURVE",
"181 123 OFFCURVE",
"181 179 CURVE SMOOTH",
"181 271 OFFCURVE",
"253 394 OFFCURVE",
"360 418 CURVE",
"288 437 OFFCURVE",
"259 493 OFFCURVE",
"259 552 CURVE SMOOTH",
"259 622 OFFCURVE",
"301 693 OFFCURVE",
"361 693 CURVE SMOOTH",
"388 693 OFFCURVE",
"416 678 OFFCURVE",
"416 637 CURVE SMOOTH",
"416 602 OFFCURVE",
"396 558 OFFCURVE",
"372 550 CURVE",
"385 532 OFFCURVE",
"401 523 OFFCURVE",
"419 523 CURVE SMOOTH",
"459 523 OFFCURVE",
"493 567 OFFCURVE",
"493 627 CURVE SMOOTH",
"493 709 OFFCURVE",
"430 752 OFFCURVE",
"350 752 CURVE SMOOTH",
"222 752 OFFCURVE",
"131 640 OFFCURVE",
"131 537 CURVE SMOOTH",
"131 492 OFFCURVE",
"149 448 OFFCURVE",
"192 417 CURVE",
"76 387 OFFCURVE",
"7 263 OFFCURVE",
"7 158 CURVE SMOOTH",
"7 65 OFFCURVE",
"62 -18 OFFCURVE",
"191 -18 CURVE SMOOTH",
"312 -18 OFFCURVE",
"431 53 OFFCURVE",
"484 170 CURVE"
);
},
{
closed = 1;
nodes = (
"486 811 LINE",
"436 950 LINE",
"418 950 LINE",
"240 811 LINE",
"299 811 LINE",
"409 883 LINE",
"441 811 LINE"
);
},
{
closed = 1;
nodes = (
"524 866 LINE",
"611 1000 LINE",
"542 1000 LINE",
"480 866 LINE"
);
}
);
};
layerId = UUID0;
paths = (
{
closed = 1;
nodes = (
"312 -18 OFFCURVE",
"431 53 OFFCURVE",
"484 170 CURVE",
"461 180 LINE",
"424 113 OFFCURVE",
"337 78 OFFCURVE",
"276 78 CURVE SMOOTH",
"208 78 OFFCURVE",
"181 123 OFFCURVE",
"181 179 CURVE SMOOTH",
"181 271 OFFCURVE",
"253 394 OFFCURVE",
"360 418 CURVE",
"288 437 OFFCURVE",
"259 493 OFFCURVE",
"259 552 CURVE SMOOTH",
"259 622 OFFCURVE",
"301 693 OFFCURVE",
"361 693 CURVE SMOOTH",
"388 693 OFFCURVE",
"416 678 OFFCURVE",
"416 637 CURVE SMOOTH",
"416 602 OFFCURVE",
"396 558 OFFCURVE",
"372 550 CURVE",
"385 532 OFFCURVE",
"401 523 OFFCURVE",
"419 523 CURVE SMOOTH",
"459 523 OFFCURVE",
"493 567 OFFCURVE",
"493 627 CURVE SMOOTH",
"493 709 OFFCURVE",
"430 752 OFFCURVE",
"350 752 CURVE SMOOTH",
"222 752 OFFCURVE",
"131 640 OFFCURVE",
"131 537 CURVE SMOOTH",
"131 492 OFFCURVE",
"149 448 OFFCURVE",
"192 417 CURVE",
"76 387 OFFCURVE",
"7 263 OFFCURVE",
"7 158 CURVE SMOOTH",
"7 65 OFFCURVE",
"62 -18 OFFCURVE",
"191 -18 CURVE SMOOTH"
);
},
{
closed = 1;
nodes = (
"299 811 LINE",
"409 883 LINE",
"441 811 LINE",
"486 811 LINE",
"436 950 LINE",
"418 950 LINE",
"240 811 LINE"
);
},
{
closed = 1;
nodes = (
"564 865 LINE",
"545 1000 LINE",
"479 1000 LINE",
"524 865 LINE"
);
}
);
width = 459;
}
);
unicode = 1EC0;
},
{
color = 4;
glyphname = Ecircumflexhookabove;
lastChange = "2016-09-22 17:50:23 +0000";
layers = (
{
background = {
paths = (
{
closed = 1;
nodes = (
"461 180 LINE",
"424 113 OFFCURVE",
"337 78 OFFCURVE",
"276 78 CURVE SMOOTH",
"208 78 OFFCURVE",
"181 123 OFFCURVE",
"181 179 CURVE SMOOTH",
"181 271 OFFCURVE",
"253 394 OFFCURVE",
"360 418 CURVE",
"288 437 OFFCURVE",
"259 493 OFFCURVE",
"259 552 CURVE SMOOTH",
"259 622 OFFCURVE",
"301 693 OFFCURVE",
"361 693 CURVE SMOOTH",
"388 693 OFFCURVE",
"416 678 OFFCURVE",
"416 637 CURVE SMOOTH",
"416 602 OFFCURVE",
"396 558 OFFCURVE",
"372 550 CURVE",
"385 532 OFFCURVE",
"401 523 OFFCURVE",
"419 523 CURVE SMOOTH",
"459 523 OFFCURVE",
"493 567 OFFCURVE",
"493 627 CURVE SMOOTH",
"493 709 OFFCURVE",
"430 752 OFFCURVE",
"350 752 CURVE SMOOTH",
"222 752 OFFCURVE",
"131 640 OFFCURVE",
"131 537 CURVE SMOOTH",
"131 492 OFFCURVE",
"149 448 OFFCURVE",
"192 417 CURVE",
"76 387 OFFCURVE",
"7 263 OFFCURVE",
"7 158 CURVE SMOOTH",
"7 65 OFFCURVE",
"62 -18 OFFCURVE",
"191 -18 CURVE SMOOTH",
"312 -18 OFFCURVE",
"431 53 OFFCURVE",
"484 170 CURVE"
);
},
{
closed = 1;
nodes = (
"486 811 LINE",
"436 950 LINE",
"418 950 LINE",
"240 811 LINE",
"299 811 LINE",
"409 883 LINE",
"441 811 LINE"
);
},
{
closed = 1;
nodes = (
"524 866 LINE",
"611 1000 LINE",
"542 1000 LINE",
"480 866 LINE"
);
}
);
};
layerId = UUID0;
paths = (
{
closed = 1;
nodes = (
"312 -18 OFFCURVE",
"431 53 OFFCURVE",
"484 170 CURVE",
"461 180 LINE",
"424 113 OFFCURVE",
"337 78 OFFCURVE",
"276 78 CURVE SMOOTH",
"208 78 OFFCURVE",
"181 123 OFFCURVE",
"181 179 CURVE SMOOTH",
"181 271 OFFCURVE",
"253 394 OFFCURVE",
"360 418 CURVE",
"288 437 OFFCURVE",
"259 493 OFFCURVE",
"259 552 CURVE SMOOTH",
"259 622 OFFCURVE",
"301 693 OFFCURVE",
"361 693 CURVE SMOOTH",
"388 693 OFFCURVE",
"416 678 OFFCURVE",
"416 637 CURVE SMOOTH",
"416 602 OFFCURVE",
"396 558 OFFCURVE",
"372 550 CURVE",
"385 532 OFFCURVE",
"401 523 OFFCURVE",
"419 523 CURVE SMOOTH",
"459 523 OFFCURVE",
"493 567 OFFCURVE",
"493 627 CURVE SMOOTH",
"493 709 OFFCURVE",
"430 752 OFFCURVE",
"350 752 CURVE SMOOTH",
"222 752 OFFCURVE",
"131 640 OFFCURVE",
"131 537 CURVE SMOOTH",
"131 492 OFFCURVE",
"149 448 OFFCURVE",
"192 417 CURVE",
"76 387 OFFCURVE",
"7 263 OFFCURVE",
"7 158 CURVE SMOOTH",
"7 65 OFFCURVE",
"62 -18 OFFCURVE",
"191 -18 CURVE SMOOTH"
);
},
{
closed = 1;
nodes = (
"299 811 LINE",
"409 883 LINE",
"441 811 LINE",
"486 811 LINE",
"436 950 LINE",
"418 950 LINE",
"240 811 LINE"
);
},
{
closed = 1;
nodes = (
"549 883 LINE",
"594 886 OFFCURVE",
"625 911 OFFCURVE",
"625 944 CURVE SMOOTH",
"625 977 OFFCURVE",
"594 1000 OFFCURVE",
"551 1000 CURVE SMOOTH",
"526 1000 OFFCURVE",
"499 993 OFFCURVE",
"483 982 CURVE",
"501 954 LINE",
"513 961 OFFCURVE",
"528 965 OFFCURVE",
"543 965 CURVE SMOOTH",
"566 965 OFFCURVE",
"577 957 OFFCURVE",
"577 940 CURVE SMOOTH",
"577 922 OFFCURVE",
"565 913 OFFCURVE",
"543 913 CURVE SMOOTH",
"535 913 OFFCURVE",
"523 915 OFFCURVE",
"512 917 CURVE",
"512 856 LINE",
"546 854 LINE"
);
}
);
width = 459;
}
);
unicode = 1EC2;
},
{
color = 4;
glyphname = Ecircumflextilde;
lastChange = "2016-09-22 17:50:23 +0000";
layers = (
{
background = {
paths = (
{
closed = 1;
nodes = (
"461 180 LINE",
"424 113 OFFCURVE",
"337 78 OFFCURVE",
"276 78 CURVE SMOOTH",
"208 78 OFFCURVE",
"181 123 OFFCURVE",
"181 179 CURVE SMOOTH",
"181 271 OFFCURVE",
"253 394 OFFCURVE",
"360 418 CURVE",
"288 437 OFFCURVE",
"259 493 OFFCURVE",
"259 552 CURVE SMOOTH",
"259 622 OFFCURVE",
"301 693 OFFCURVE",
"361 693 CURVE SMOOTH",
"388 693 OFFCURVE",
"416 678 OFFCURVE",
"416 637 CURVE SMOOTH",
"416 602 OFFCURVE",
"396 558 OFFCURVE",
"372 550 CURVE",
"385 532 OFFCURVE",
"401 523 OFFCURVE",
"419 523 CURVE SMOOTH",
"459 523 OFFCURVE",
"493 567 OFFCURVE",
"493 627 CURVE SMOOTH",
"493 709 OFFCURVE",
"430 752 OFFCURVE",
"350 752 CURVE SMOOTH",
"222 752 OFFCURVE",
"131 640 OFFCURVE",
"131 537 CURVE SMOOTH",
"131 492 OFFCURVE",
"149 448 OFFCURVE",
"192 417 CURVE",
"76 387 OFFCURVE",
"7 263 OFFCURVE",
"7 158 CURVE SMOOTH",
"7 65 OFFCURVE",
"62 -18 OFFCURVE",
"191 -18 CURVE SMOOTH",
"312 -18 OFFCURVE",
"431 53 OFFCURVE",
"484 170 CURVE"
);
},
{
closed = 1;
nodes = (
"486 811 LINE",
"436 950 LINE",
"418 950 LINE",
"240 811 LINE",
"299 811 LINE",
"409 883 LINE",
"441 811 LINE"
);
},
{
closed = 1;
nodes = (
"524 866 LINE",
"611 1000 LINE",
"542 1000 LINE",
"480 866 LINE"
);
}
);
};
layerId = UUID0;
paths = (
{
closed = 1;
nodes = (
"312 -18 OFFCURVE",
"431 53 OFFCURVE",
"484 170 CURVE",
"461 180 LINE",
"424 113 OFFCURVE",
"337 78 OFFCURVE",
"276 78 CURVE SMOOTH",
"208 78 OFFCURVE",
"181 123 OFFCURVE",
"181 179 CURVE SMOOTH",
"181 271 OFFCURVE",
"253 394 OFFCURVE",
"360 418 CURVE",
"288 437 OFFCURVE",
"259 493 OFFCURVE",
"259 552 CURVE SMOOTH",
"259 622 OFFCURVE",
"301 693 OFFCURVE",
"361 693 CURVE SMOOTH",
"388 693 OFFCURVE",
"416 678 OFFCURVE",
"416 637 CURVE SMOOTH",
"416 602 OFFCURVE",
"396 558 OFFCURVE",
"372 550 CURVE",
"385 532 OFFCURVE",
"401 523 OFFCURVE",
"419 523 CURVE SMOOTH",
"459 523 OFFCURVE",
"493 567 OFFCURVE",
"493 627 CURVE SMOOTH",
"493 709 OFFCURVE",
"430 752 OFFCURVE",
"350 752 CURVE SMOOTH",
"222 752 OFFCURVE",
"131 640 OFFCURVE",
"131 537 CURVE SMOOTH",
"131 492 OFFCURVE",
"149 448 OFFCURVE",
"192 417 CURVE",
"76 387 OFFCURVE",
"7 263 OFFCURVE",
"7 158 CURVE SMOOTH",
"7 65 OFFCURVE",
"62 -18 OFFCURVE",
"191 -18 CURVE SMOOTH"
);
},
{
closed = 1;
nodes = (
"299 811 LINE",
"409 883 LINE",
"441 811 LINE",
"486 811 LINE",
"436 950 LINE",
"418 950 LINE",
"240 811 LINE"
);
},
{
closed = 1;
nodes = (
"509 920 OFFCURVE",
"562 958 OFFCURVE",
"569 991 CURVE",
"564 992 LINE",
"554 981 OFFCURVE",
"538 976 OFFCURVE",
"521 976 CURVE SMOOTH",
"479 976 OFFCURVE",
"455 1000 OFFCURVE",
"404 1000 CURVE SMOOTH",
"350 1000 OFFCURVE",
"308 975 OFFCURVE",
"286 930 CURVE",
"291 929 LINE",
"304 941 OFFCURVE",
"319 947 OFFCURVE",
"336 947 CURVE SMOOTH",
"376 947 OFFCURVE",
"408 920 OFFCURVE",
"455 920 CURVE SMOOTH"
);
}
);
width = 459;
}
);
unicode = 1EC4;
},
{
color = 4;
glyphname = Edblgrave;
lastChange = "2016-09-22 17:50:23 +0000";
layers = (
{
background = {
paths = (
{
closed = 1;
nodes = (
"461 180 LINE",
"424 113 OFFCURVE",
"337 78 OFFCURVE",
"276 78 CURVE SMOOTH",
"208 78 OFFCURVE",
"181 123 OFFCURVE",
"181 179 CURVE SMOOTH",
"181 271 OFFCURVE",
"253 394 OFFCURVE",
"360 418 CURVE",
"288 437 OFFCURVE",
"259 493 OFFCURVE",
"259 552 CURVE SMOOTH",
"259 622 OFFCURVE",
"301 693 OFFCURVE",
"361 693 CURVE SMOOTH",
"388 693 OFFCURVE",
"416 678 OFFCURVE",
"416 637 CURVE SMOOTH",
"416 602 OFFCURVE",
"396 558 OFFCURVE",
"372 550 CURVE",
"385 532 OFFCURVE",
"401 523 OFFCURVE",
"419 523 CURVE SMOOTH",
"459 523 OFFCURVE",
"493 567 OFFCURVE",
"493 627 CURVE SMOOTH",
"493 709 OFFCURVE",
"430 752 OFFCURVE",
"350 752 CURVE SMOOTH",
"222 752 OFFCURVE",
"131 640 OFFCURVE",
"131 537 CURVE SMOOTH",
"131 492 OFFCURVE",
"149 448 OFFCURVE",
"192 417 CURVE",
"76 387 OFFCURVE",
"7 263 OFFCURVE",
"7 158 CURVE SMOOTH",
"7 65 OFFCURVE",
"62 -18 OFFCURVE",
"191 -18 CURVE SMOOTH",
"312 -18 OFFCURVE",
"431 53 OFFCURVE",
"484 170 CURVE"
);
},
{
closed = 1;
nodes = (
"360 917 OFFCURVE",
"332 945 OFFCURVE",
"299 945 CURVE SMOOTH",
"264 945 OFFCURVE",
"238 917 OFFCURVE",
"238 884 CURVE SMOOTH",
"238 849 OFFCURVE",
"264 823 OFFCURVE",
"299 823 CURVE SMOOTH",
"332 823 OFFCURVE",
"360 849 OFFCURVE",
"360 884 CURVE SMOOTH"
);
},
{
closed = 1;
nodes = (
"540 917 OFFCURVE",
"512 945 OFFCURVE",
"479 945 CURVE SMOOTH",
"444 945 OFFCURVE",
"418 917 OFFCURVE",
"418 884 CURVE SMOOTH",
"418 849 OFFCURVE",
"444 823 OFFCURVE",
"479 823 CURVE SMOOTH",
"512 823 OFFCURVE",
"540 849 OFFCURVE",
"540 884 CURVE SMOOTH"
);
}
);
};
layerId = UUID0;
paths = (
{
closed = 1;
nodes = (
"312 -18 OFFCURVE",
"431 53 OFFCURVE",
"484 170 CURVE",
"461 180 LINE",
"424 113 OFFCURVE",
"337 78 OFFCURVE",
"276 78 CURVE SMOOTH",
"208 78 OFFCURVE",
"181 123 OFFCURVE",
"181 179 CURVE SMOOTH",
"181 271 OFFCURVE",
"253 394 OFFCURVE",
"360 418 CURVE",
"288 437 OFFCURVE",
"259 493 OFFCURVE",
"259 552 CURVE SMOOTH",
"259 622 OFFCURVE",
"301 693 OFFCURVE",
"361 693 CURVE SMOOTH",
"388 693 OFFCURVE",
"416 678 OFFCURVE",
"416 637 CURVE SMOOTH",
"416 602 OFFCURVE",
"396 558 OFFCURVE",
"372 550 CURVE",
"385 532 OFFCURVE",
"401 523 OFFCURVE",
"419 523 CURVE SMOOTH",
"459 523 OFFCURVE",
"493 567 OFFCURVE",
"493 627 CURVE SMOOTH",
"493 709 OFFCURVE",
"430 752 OFFCURVE",
"350 752 CURVE SMOOTH",
"222 752 OFFCURVE",
"131 640 OFFCURVE",
"131 537 CURVE SMOOTH",
"131 492 OFFCURVE",
"149 448 OFFCURVE",
"192 417 CURVE",
"76 387 OFFCURVE",
"7 263 OFFCURVE",
"7 158 CURVE SMOOTH",
"7 65 OFFCURVE",
"62 -18 OFFCURVE",
"191 -18 CURVE SMOOTH"
);
},
{
closed = 1;
nodes = (
"303 811 LINE",
"211 1000 LINE",
"106 1000 LINE",
"248 811 LINE"
);
},
{
closed = 1;
nodes = (
"464 811 LINE",
"374 1000 LINE",
"269 1000 LINE",
"410 811 LINE"
);
}
);
width = 459;
}
);
unicode = 0204;
},
{
color = 4;
glyphname = Edieresis;
lastChange = "2016-09-22 17:50:23 +0000";
layers = (
{
background = {
paths = (
{
closed = 1;
nodes = (
"461 180 LINE",
"424 113 OFFCURVE",
"337 78 OFFCURVE",
"276 78 CURVE SMOOTH",
"208 78 OFFCURVE",
"181 123 OFFCURVE",
"181 179 CURVE SMOOTH",
"181 271 OFFCURVE",
"253 394 OFFCURVE",
"360 418 CURVE",
"288 437 OFFCURVE",
"259 493 OFFCURVE",
"259 552 CURVE SMOOTH",
"259 622 OFFCURVE",
"301 693 OFFCURVE",
"361 693 CURVE SMOOTH",
"388 693 OFFCURVE",
"416 678 OFFCURVE",
"416 637 CURVE SMOOTH",
"416 602 OFFCURVE",
"396 558 OFFCURVE",
"372 550 CURVE",
"385 532 OFFCURVE",
"401 523 OFFCURVE",
"419 523 CURVE SMOOTH",
"459 523 OFFCURVE",
"493 567 OFFCURVE",
"493 627 CURVE SMOOTH",
"493 709 OFFCURVE",
"430 752 OFFCURVE",
"350 752 CURVE SMOOTH",
"222 752 OFFCURVE",
"131 640 OFFCURVE",
"131 537 CURVE SMOOTH",
"131 492 OFFCURVE",
"149 448 OFFCURVE",
"192 417 CURVE",
"76 387 OFFCURVE",
"7 263 OFFCURVE",
"7 158 CURVE SMOOTH",
"7 65 OFFCURVE",
"62 -18 OFFCURVE",
"191 -18 CURVE SMOOTH",
"312 -18 OFFCURVE",
"431 53 OFFCURVE",
"484 170 CURVE"
);
},
{
closed = 1;
nodes = (
"360 917 OFFCURVE",
"332 945 OFFCURVE",
"299 945 CURVE SMOOTH",
"264 945 OFFCURVE",
"238 917 OFFCURVE",
"238 884 CURVE SMOOTH",
"238 849 OFFCURVE",
"264 823 OFFCURVE",
"299 823 CURVE SMOOTH",
"332 823 OFFCURVE",
"360 849 OFFCURVE",
"360 884 CURVE SMOOTH"
);
},
{
closed = 1;
nodes = (
"540 917 OFFCURVE",
"512 945 OFFCURVE",
"479 945 CURVE SMOOTH",
"444 945 OFFCURVE",
"418 917 OFFCURVE",
"418 884 CURVE SMOOTH",
"418 849 OFFCURVE",
"444 823 OFFCURVE",
"479 823 CURVE SMOOTH",
"512 823 OFFCURVE",
"540 849 OFFCURVE",
"540 884 CURVE SMOOTH"
);
}
);
};
layerId = UUID0;
paths = (
{
closed = 1;
nodes = (
"312 -18 OFFCURVE",
"431 53 OFFCURVE",
"484 170 CURVE",
"461 180 LINE",
"424 113 OFFCURVE",
"337 78 OFFCURVE",
"276 78 CURVE SMOOTH",
"208 78 OFFCURVE",
"181 123 OFFCURVE",
"181 179 CURVE SMOOTH",
"181 271 OFFCURVE",
"253 394 OFFCURVE",
"360 418 CURVE",
"288 437 OFFCURVE",
"259 493 OFFCURVE",
"259 552 CURVE SMOOTH",
"259 622 OFFCURVE",
"301 693 OFFCURVE",
"361 693 CURVE SMOOTH",
"388 693 OFFCURVE",
"416 678 OFFCURVE",
"416 637 CURVE SMOOTH",
"416 602 OFFCURVE",
"396 558 OFFCURVE",
"372 550 CURVE",
"385 532 OFFCURVE",
"401 523 OFFCURVE",
"419 523 CURVE SMOOTH",
"459 523 OFFCURVE",
"493 567 OFFCURVE",
"493 627 CURVE SMOOTH",
"493 709 OFFCURVE",
"430 752 OFFCURVE",
"350 752 CURVE SMOOTH",
"222 752 OFFCURVE",
"131 640 OFFCURVE",
"131 537 CURVE SMOOTH",
"131 492 OFFCURVE",
"149 448 OFFCURVE",
"192 417 CURVE",
"76 387 OFFCURVE",
"7 263 OFFCURVE",
"7 158 CURVE SMOOTH",
"7 65 OFFCURVE",
"62 -18 OFFCURVE",
"191 -18 CURVE SMOOTH"
);
},
{
closed = 1;
nodes = (
"332 823 OFFCURVE",
"360 849 OFFCURVE",
"360 884 CURVE SMOOTH",
"360 917 OFFCURVE",
"332 945 OFFCURVE",
"299 945 CURVE SMOOTH",
"264 945 OFFCURVE",
"238 917 OFFCURVE",
"238 884 CURVE SMOOTH",
"238 849 OFFCURVE",
"264 823 OFFCURVE",
"299 823 CURVE SMOOTH"
);
},
{
closed = 1;
nodes = (
"512 823 OFFCURVE",
"540 849 OFFCURVE",
"540 884 CURVE SMOOTH",
"540 917 OFFCURVE",
"512 945 OFFCURVE",
"479 945 CURVE SMOOTH",
"444 945 OFFCURVE",
"418 917 OFFCURVE",
"418 884 CURVE SMOOTH",
"418 849 OFFCURVE",
"444 823 OFFCURVE",
"479 823 CURVE SMOOTH"
);
}
);
width = 459;
}
);
unicode = 00CB;
},
{
color = 4;
glyphname = Edotaccent;
lastChange = "2016-09-22 17:50:23 +0000";
layers = (
{
background = {
paths = (
{
closed = 1;
nodes = (
"461 180 LINE",
"424 113 OFFCURVE",
"337 78 OFFCURVE",
"276 78 CURVE SMOOTH",
"208 78 OFFCURVE",
"181 123 OFFCURVE",
"181 179 CURVE SMOOTH",
"181 271 OFFCURVE",
"253 394 OFFCURVE",
"360 418 CURVE",
"288 437 OFFCURVE",
"259 493 OFFCURVE",
"259 552 CURVE SMOOTH",
"259 622 OFFCURVE",
"301 693 OFFCURVE",
"361 693 CURVE SMOOTH",
"388 693 OFFCURVE",
"416 678 OFFCURVE",
"416 637 CURVE SMOOTH",
"416 602 OFFCURVE",
"396 558 OFFCURVE",
"372 550 CURVE",
"385 532 OFFCURVE",
"401 523 OFFCURVE",
"419 523 CURVE SMOOTH",
"459 523 OFFCURVE",
"493 567 OFFCURVE",
"493 627 CURVE SMOOTH",
"493 709 OFFCURVE",
"430 752 OFFCURVE",
"350 752 CURVE SMOOTH",
"222 752 OFFCURVE",
"131 640 OFFCURVE",
"131 537 CURVE SMOOTH",
"131 492 OFFCURVE",
"149 448 OFFCURVE",
"192 417 CURVE",
"76 387 OFFCURVE",
"7 263 OFFCURVE",
"7 158 CURVE SMOOTH",
"7 65 OFFCURVE",
"62 -18 OFFCURVE",
"191 -18 CURVE SMOOTH",
"312 -18 OFFCURVE",
"431 53 OFFCURVE",
"484 170 CURVE"
);
},
{
closed = 1;
nodes = (
"360 917 OFFCURVE",
"332 945 OFFCURVE",
"299 945 CURVE SMOOTH",
"264 945 OFFCURVE",
"238 917 OFFCURVE",
"238 884 CURVE SMOOTH",
"238 849 OFFCURVE",
"264 823 OFFCURVE",
"299 823 CURVE SMOOTH",
"332 823 OFFCURVE",
"360 849 OFFCURVE",
"360 884 CURVE SMOOTH"
);
},
{
closed = 1;
nodes = (
"540 917 OFFCURVE",
"512 945 OFFCURVE",
"479 945 CURVE SMOOTH",
"444 945 OFFCURVE",
"418 917 OFFCURVE",
"418 884 CURVE SMOOTH",
"418 849 OFFCURVE",
"444 823 OFFCURVE",
"479 823 CURVE SMOOTH",
"512 823 OFFCURVE",
"540 849 OFFCURVE",
"540 884 CURVE SMOOTH"
);
}
);
};
layerId = UUID0;
paths = (
{
closed = 1;
nodes = (
"312 -18 OFFCURVE",
"431 53 OFFCURVE",
"484 170 CURVE",
"461 180 LINE",
"424 113 OFFCURVE",
"337 78 OFFCURVE",
"276 78 CURVE SMOOTH",
"208 78 OFFCURVE",
"181 123 OFFCURVE",
"181 179 CURVE SMOOTH",
"181 271 OFFCURVE",
"253 394 OFFCURVE",
"360 418 CURVE",
"288 437 OFFCURVE",
"259 493 OFFCURVE",
"259 552 CURVE SMOOTH",
"259 622 OFFCURVE",
"301 693 OFFCURVE",
"361 693 CURVE SMOOTH",
"388 693 OFFCURVE",
"416 678 OFFCURVE",
"416 637 CURVE SMOOTH",
"416 602 OFFCURVE",
"396 558 OFFCURVE",
"372 550 CURVE",
"385 532 OFFCURVE",
"401 523 OFFCURVE",
"419 523 CURVE SMOOTH",
"459 523 OFFCURVE",
"493 567 OFFCURVE",
"493 627 CURVE SMOOTH",
"493 709 OFFCURVE",
"430 752 OFFCURVE",
"350 752 CURVE SMOOTH",
"222 752 OFFCURVE",
"131 640 OFFCURVE",
"131 537 CURVE SMOOTH",
"131 492 OFFCURVE",
"149 448 OFFCURVE",
"192 417 CURVE",
"76 387 OFFCURVE",
"7 263 OFFCURVE",
"7 158 CURVE SMOOTH",
"7 65 OFFCURVE",
"62 -18 OFFCURVE",
"191 -18 CURVE SMOOTH"
);
},
{
closed = 1;
nodes = (
"445 822 OFFCURVE",
"481 856 OFFCURVE",
"481 900 CURVE SMOOTH",
"481 945 OFFCURVE",
"445 980 OFFCURVE",
"401 980 CURVE SMOOTH",
"357 980 OFFCURVE",
"322 945 OFFCURVE",
"322 900 CURVE SMOOTH",
"322 856 OFFCURVE",
"357 822 OFFCURVE",
"401 822 CURVE SMOOTH"
);
}
);
width = 459;
}
);
unicode = 0116;
},
{
color = 4;
glyphname = Edotbelow;
lastChange = "2016-09-22 17:50:23 +0000";
layers = (
{
background = {
paths = (
{
closed = 1;
nodes = (
"461 180 LINE",
"424 113 OFFCURVE",
"337 78 OFFCURVE",
"276 78 CURVE SMOOTH",
"208 78 OFFCURVE",
"181 123 OFFCURVE",
"181 179 CURVE SMOOTH",
"181 271 OFFCURVE",
"253 394 OFFCURVE",
"360 418 CURVE",
"288 437 OFFCURVE",
"259 493 OFFCURVE",
"259 552 CURVE SMOOTH",
"259 622 OFFCURVE",
"301 693 OFFCURVE",
"361 693 CURVE SMOOTH",
"388 693 OFFCURVE",
"416 678 OFFCURVE",
"416 637 CURVE SMOOTH",
"416 602 OFFCURVE",
"396 558 OFFCURVE",
"372 550 CURVE",
"385 532 OFFCURVE",
"401 523 OFFCURVE",
"419 523 CURVE SMOOTH",
"459 523 OFFCURVE",
"493 567 OFFCURVE",
"493 627 CURVE SMOOTH",
"493 709 OFFCURVE",
"430 752 OFFCURVE",
"350 752 CURVE SMOOTH",
"222 752 OFFCURVE",
"131 640 OFFCURVE",
"131 537 CURVE SMOOTH",
"131 492 OFFCURVE",
"149 448 OFFCURVE",
"192 417 CURVE",
"76 387 OFFCURVE",
"7 263 OFFCURVE",
"7 158 CURVE SMOOTH",
"7 65 OFFCURVE",
"62 -18 OFFCURVE",
"191 -18 CURVE SMOOTH",
"312 -18 OFFCURVE",
"431 53 OFFCURVE",
"484 170 CURVE"
);
},
{
closed = 1;
nodes = (
"360 917 OFFCURVE",
"332 945 OFFCURVE",
"299 945 CURVE SMOOTH",
"264 945 OFFCURVE",
"238 917 OFFCURVE",
"238 884 CURVE SMOOTH",
"238 849 OFFCURVE",
"264 823 OFFCURVE",
"299 823 CURVE SMOOTH",
"332 823 OFFCURVE",
"360 849 OFFCURVE",
"360 884 CURVE SMOOTH"
);
},
{
closed = 1;
nodes = (
"540 917 OFFCURVE",
"512 945 OFFCURVE",
"479 945 CURVE SMOOTH",
"444 945 OFFCURVE",
"418 917 OFFCURVE",
"418 884 CURVE SMOOTH",
"418 849 OFFCURVE",
"444 823 OFFCURVE",
"479 823 CURVE SMOOTH",
"512 823 OFFCURVE",
"540 849 OFFCURVE",
"540 884 CURVE SMOOTH"
);
}
);
};
layerId = UUID0;
paths = (
{
closed = 1;
nodes = (
"312 -18 OFFCURVE",
"431 53 OFFCURVE",
"484 170 CURVE",
"461 180 LINE",
"424 113 OFFCURVE",
"337 78 OFFCURVE",
"276 78 CURVE SMOOTH",
"208 78 OFFCURVE",
"181 123 OFFCURVE",
"181 179 CURVE SMOOTH",
"181 271 OFFCURVE",
"253 394 OFFCURVE",
"360 418 CURVE",
"288 437 OFFCURVE",
"259 493 OFFCURVE",
"259 552 CURVE SMOOTH",
"259 622 OFFCURVE",
"301 693 OFFCURVE",
"361 693 CURVE SMOOTH",
"388 693 OFFCURVE",
"416 678 OFFCURVE",
"416 637 CURVE SMOOTH",
"416 602 OFFCURVE",
"396 558 OFFCURVE",
"372 550 CURVE",
"385 532 OFFCURVE",
"401 523 OFFCURVE",
"419 523 CURVE SMOOTH",
"459 523 OFFCURVE",
"493 567 OFFCURVE",
"493 627 CURVE SMOOTH",
"493 709 OFFCURVE",
"430 752 OFFCURVE",
"350 752 CURVE SMOOTH",
"222 752 OFFCURVE",
"131 640 OFFCURVE",
"131 537 CURVE SMOOTH",
"131 492 OFFCURVE",
"149 448 OFFCURVE",
"192 417 CURVE",
"76 387 OFFCURVE",
"7 263 OFFCURVE",
"7 158 CURVE SMOOTH",
"7 65 OFFCURVE",
"62 -18 OFFCURVE",
"191 -18 CURVE SMOOTH"
);
},
{
closed = 1;
nodes = (
"197 -231 OFFCURVE",
"233 -196 OFFCURVE",
"233 -152 CURVE SMOOTH",
"233 -108 OFFCURVE",
"197 -72 OFFCURVE",
"153 -72 CURVE SMOOTH",
"109 -72 OFFCURVE",
"74 -108 OFFCURVE",
"74 -152 CURVE SMOOTH",
"74 -196 OFFCURVE",
"109 -231 OFFCURVE",
"153 -231 CURVE SMOOTH"
);
}
);
width = 459;
}
);
unicode = 1EB8;
},
{
color = 4;
glyphname = Egrave;
lastChange = "2016-09-22 17:50:23 +0000";
layers = (
{
background = {
paths = (
{
closed = 1;
nodes = (
"461 180 LINE",
"424 113 OFFCURVE",
"337 78 OFFCURVE",
"276 78 CURVE SMOOTH",
"208 78 OFFCURVE",
"181 123 OFFCURVE",
"181 179 CURVE SMOOTH",
"181 271 OFFCURVE",
"253 394 OFFCURVE",
"360 418 CURVE",
"288 437 OFFCURVE",
"259 493 OFFCURVE",
"259 552 CURVE SMOOTH",
"259 622 OFFCURVE",
"301 693 OFFCURVE",
"361 693 CURVE SMOOTH",
"388 693 OFFCURVE",
"416 678 OFFCURVE",
"416 637 CURVE SMOOTH",
"416 602 OFFCURVE",
"396 558 OFFCURVE",
"372 550 CURVE",
"385 532 OFFCURVE",
"401 523 OFFCURVE",
"419 523 CURVE SMOOTH",
"459 523 OFFCURVE",
"493 567 OFFCURVE",
"493 627 CURVE SMOOTH",
"493 709 OFFCURVE",
"430 752 OFFCURVE",
"350 752 CURVE SMOOTH",
"222 752 OFFCURVE",
"131 640 OFFCURVE",
"131 537 CURVE SMOOTH",
"131 492 OFFCURVE",
"149 448 OFFCURVE",
"192 417 CURVE",
"76 387 OFFCURVE",
"7 263 OFFCURVE",
"7 158 CURVE SMOOTH",
"7 65 OFFCURVE",
"62 -18 OFFCURVE",
"191 -18 CURVE SMOOTH",
"312 -18 OFFCURVE",
"431 53 OFFCURVE",
"484 170 CURVE"
);
},
{
closed = 1;
nodes = (
"386 811 LINE",
"357 1000 LINE",
"252 1000 LINE",
"311 811 LINE"
);
}
);
};
layerId = UUID0;
paths = (
{
closed = 1;
nodes = (
"312 -18 OFFCURVE",
"431 53 OFFCURVE",
"484 170 CURVE",
"461 180 LINE",
"424 113 OFFCURVE",
"337 78 OFFCURVE",
"276 78 CURVE SMOOTH",
"208 78 OFFCURVE",
"181 123 OFFCURVE",
"181 179 CURVE SMOOTH",
"181 271 OFFCURVE",
"253 394 OFFCURVE",
"360 418 CURVE",
"288 437 OFFCURVE",
"259 493 OFFCURVE",
"259 552 CURVE SMOOTH",
"259 622 OFFCURVE",
"301 693 OFFCURVE",
"361 693 CURVE SMOOTH",
"388 693 OFFCURVE",
"416 678 OFFCURVE",
"416 637 CURVE SMOOTH",
"416 602 OFFCURVE",
"396 558 OFFCURVE",
"372 550 CURVE",
"385 532 OFFCURVE",
"401 523 OFFCURVE",
"419 523 CURVE SMOOTH",
"459 523 OFFCURVE",
"493 567 OFFCURVE",
"493 627 CURVE SMOOTH",
"493 709 OFFCURVE",
"430 752 OFFCURVE",
"350 752 CURVE SMOOTH",
"222 752 OFFCURVE",
"131 640 OFFCURVE",
"131 537 CURVE SMOOTH",
"131 492 OFFCURVE",
"149 448 OFFCURVE",
"192 417 CURVE",
"76 387 OFFCURVE",
"7 263 OFFCURVE",
"7 158 CURVE SMOOTH",
"7 65 OFFCURVE",
"62 -18 OFFCURVE",
"191 -18 CURVE SMOOTH"
);
},
{
closed = 1;
nodes = (
"386 811 LINE",
"357 1000 LINE",
"252 1000 LINE",
"311 811 LINE"
);
}
);
width = 459;
}
);
unicode = 00C8;
},
{
color = 4;
glyphname = Ehookabove;
lastChange = "2016-09-22 17:50:23 +0000";
layers = (
{
background = {
paths = (
{
closed = 1;
nodes = (
"461 180 LINE",
"424 113 OFFCURVE",
"337 78 OFFCURVE",
"276 78 CURVE SMOOTH",
"208 78 OFFCURVE",
"181 123 OFFCURVE",
"181 179 CURVE SMOOTH",
"181 271 OFFCURVE",
"253 394 OFFCURVE",
"360 418 CURVE",
"288 437 OFFCURVE",
"259 493 OFFCURVE",
"259 552 CURVE SMOOTH",
"259 622 OFFCURVE",
"301 693 OFFCURVE",
"361 693 CURVE SMOOTH",
"388 693 OFFCURVE",
"416 678 OFFCURVE",
"416 637 CURVE SMOOTH",
"416 602 OFFCURVE",
"396 558 OFFCURVE",
"372 550 CURVE",
"385 532 OFFCURVE",
"401 523 OFFCURVE",
"419 523 CURVE SMOOTH",
"459 523 OFFCURVE",
"493 567 OFFCURVE",
"493 627 CURVE SMOOTH",
"493 709 OFFCURVE",
"430 752 OFFCURVE",
"350 752 CURVE SMOOTH",
"222 752 OFFCURVE",
"131 640 OFFCURVE",
"131 537 CURVE SMOOTH",
"131 492 OFFCURVE",
"149 448 OFFCURVE",
"192 417 CURVE",
"76 387 OFFCURVE",
"7 263 OFFCURVE",
"7 158 CURVE SMOOTH",
"7 65 OFFCURVE",
"62 -18 OFFCURVE",
"191 -18 CURVE SMOOTH",
"312 -18 OFFCURVE",
"431 53 OFFCURVE",
"484 170 CURVE"
);
},
{
closed = 1;
nodes = (
"386 811 LINE",
"357 1000 LINE",
"252 1000 LINE",
"311 811 LINE"
);
}
);
};
layerId = UUID0;
paths = (
{
closed = 1;
nodes = (
"312 -18 OFFCURVE",
"431 53 OFFCURVE",
"484 170 CURVE",
"461 180 LINE",
"424 113 OFFCURVE",
"337 78 OFFCURVE",
"276 78 CURVE SMOOTH",
"208 78 OFFCURVE",
"181 123 OFFCURVE",
"181 179 CURVE SMOOTH",
"181 271 OFFCURVE",
"253 394 OFFCURVE",
"360 418 CURVE",
"288 437 OFFCURVE",
"259 493 OFFCURVE",
"259 552 CURVE SMOOTH",
"259 622 OFFCURVE",
"301 693 OFFCURVE",
"361 693 CURVE SMOOTH",
"388 693 OFFCURVE",
"416 678 OFFCURVE",
"416 637 CURVE SMOOTH",
"416 602 OFFCURVE",
"396 558 OFFCURVE",
"372 550 CURVE",
"385 532 OFFCURVE",
"401 523 OFFCURVE",
"419 523 CURVE SMOOTH",
"459 523 OFFCURVE",
"493 567 OFFCURVE",
"493 627 CURVE SMOOTH",
"493 709 OFFCURVE",
"430 752 OFFCURVE",
"350 752 CURVE SMOOTH",
"222 752 OFFCURVE",
"131 640 OFFCURVE",
"131 537 CURVE SMOOTH",
"131 492 OFFCURVE",
"149 448 OFFCURVE",
"192 417 CURVE",
"76 387 OFFCURVE",
"7 263 OFFCURVE",
"7 158 CURVE SMOOTH",
"7 65 OFFCURVE",
"62 -18 OFFCURVE",
"191 -18 CURVE SMOOTH"
);
},
{
closed = 1;
nodes = (
"393 833 LINE",
"455 838 OFFCURVE",
"498 873 OFFCURVE",
"498 919 CURVE SMOOTH",
"498 967 OFFCURVE",
"455 1000 OFFCURVE",
"395 1000 CURVE SMOOTH",
"358 1000 OFFCURVE",
"319 989 OFFCURVE",
"297 975 CURVE",
"323 933 LINE",
"340 944 OFFCURVE",
"361 949 OFFCURVE",
"383 949 CURVE SMOOTH",
"414 949 OFFCURVE",
"430 938 OFFCURVE",
"430 913 CURVE SMOOTH",
"430 891 OFFCURVE",
"413 877 OFFCURVE",
"383 877 CURVE SMOOTH",
"370 877 OFFCURVE",
"354 879 OFFCURVE",
"338 882 CURVE",
"338 794 LINE",
"385 792 LINE"
);
}
);
width = 459;
}
);
unicode = 1EBA;
},
{
color = 4;
glyphname = Einvertedbreve;
lastChange = "2016-09-22 17:50:23 +0000";
layers = (
{
background = {
paths = (
{
closed = 1;
nodes = (
"461 180 LINE",
"424 113 OFFCURVE",
"337 78 OFFCURVE",
"276 78 CURVE SMOOTH",
"208 78 OFFCURVE",
"181 123 OFFCURVE",
"181 179 CURVE SMOOTH",
"181 271 OFFCURVE",
"253 394 OFFCURVE",
"360 418 CURVE",
"288 437 OFFCURVE",
"259 493 OFFCURVE",
"259 552 CURVE SMOOTH",
"259 622 OFFCURVE",
"301 693 OFFCURVE",
"361 693 CURVE SMOOTH",
"388 693 OFFCURVE",
"416 678 OFFCURVE",
"416 637 CURVE SMOOTH",
"416 602 OFFCURVE",
"396 558 OFFCURVE",
"372 550 CURVE",
"385 532 OFFCURVE",
"401 523 OFFCURVE",
"419 523 CURVE SMOOTH",
"459 523 OFFCURVE",
"493 567 OFFCURVE",
"493 627 CURVE SMOOTH",
"493 709 OFFCURVE",
"430 752 OFFCURVE",
"350 752 CURVE SMOOTH",
"222 752 OFFCURVE",
"131 640 OFFCURVE",
"131 537 CURVE SMOOTH",
"131 492 OFFCURVE",
"149 448 OFFCURVE",
"192 417 CURVE",
"76 387 OFFCURVE",
"7 263 OFFCURVE",
"7 158 CURVE SMOOTH",
"7 65 OFFCURVE",
"62 -18 OFFCURVE",
"191 -18 CURVE SMOOTH",
"312 -18 OFFCURVE",
"431 53 OFFCURVE",
"484 170 CURVE"
);
},
{
closed = 1;
nodes = (
"360 917 OFFCURVE",
"332 945 OFFCURVE",
"299 945 CURVE SMOOTH",
"264 945 OFFCURVE",
"238 917 OFFCURVE",
"238 884 CURVE SMOOTH",
"238 849 OFFCURVE",
"264 823 OFFCURVE",
"299 823 CURVE SMOOTH",
"332 823 OFFCURVE",
"360 849 OFFCURVE",
"360 884 CURVE SMOOTH"
);
},
{
closed = 1;
nodes = (
"540 917 OFFCURVE",
"512 945 OFFCURVE",
"479 945 CURVE SMOOTH",
"444 945 OFFCURVE",
"418 917 OFFCURVE",
"418 884 CURVE SMOOTH",
"418 849 OFFCURVE",
"444 823 OFFCURVE",
"479 823 CURVE SMOOTH",
"512 823 OFFCURVE",
"540 849 OFFCURVE",
"540 884 CURVE SMOOTH"
);
}
);
};
layerId = UUID0;
paths = (
{
closed = 1;
nodes = (
"312 -18 OFFCURVE",
"431 53 OFFCURVE",
"484 170 CURVE",
"461 180 LINE",
"424 113 OFFCURVE",
"337 78 OFFCURVE",
"276 78 CURVE SMOOTH",
"208 78 OFFCURVE",
"181 123 OFFCURVE",
"181 179 CURVE SMOOTH",
"181 271 OFFCURVE",
"253 394 OFFCURVE",
"360 418 CURVE",
"288 437 OFFCURVE",
"259 493 OFFCURVE",
"259 552 CURVE SMOOTH",
"259 622 OFFCURVE",
"301 693 OFFCURVE",
"361 693 CURVE SMOOTH",
"388 693 OFFCURVE",
"416 678 OFFCURVE",
"416 637 CURVE SMOOTH",
"416 602 OFFCURVE",
"396 558 OFFCURVE",
"372 550 CURVE",
"385 532 OFFCURVE",
"401 523 OFFCURVE",
"419 523 CURVE SMOOTH",
"459 523 OFFCURVE",
"493 567 OFFCURVE",
"493 627 CURVE SMOOTH",
"493 709 OFFCURVE",
"430 752 OFFCURVE",
"350 752 CURVE SMOOTH",
"222 752 OFFCURVE",
"131 640 OFFCURVE",
"131 537 CURVE SMOOTH",
"131 492 OFFCURVE",
"149 448 OFFCURVE",
"192 417 CURVE",
"76 387 OFFCURVE",
"7 263 OFFCURVE",
"7 158 CURVE SMOOTH",
"7 65 OFFCURVE",
"62 -18 OFFCURVE",
"191 -18 CURVE SMOOTH"
);
},
{
closed = 1;
nodes = (
"287 822 LINE",
"293 868 OFFCURVE",
"341 905 OFFCURVE",
"396 905 CURVE SMOOTH",
"446 905 OFFCURVE",
"475 875 OFFCURVE",
"475 822 CURVE",
"564 822 LINE",
"564 912 OFFCURVE",
"511 960 OFFCURVE",
"412 960 CURVE SMOOTH",
"304 960 OFFCURVE",
"212 900 OFFCURVE",
"201 822 CURVE"
);
}
);
width = 459;
}
);
unicode = 0206;
},
{
color = 4;
glyphname = Emacron;
lastChange = "2016-09-22 17:50:23 +0000";
layers = (
{
background = {
paths = (
{
closed = 1;
nodes = (
"461 180 LINE",
"424 113 OFFCURVE",
"337 78 OFFCURVE",
"276 78 CURVE SMOOTH",
"208 78 OFFCURVE",
"181 123 OFFCURVE",
"181 179 CURVE SMOOTH",
"181 271 OFFCURVE",
"253 394 OFFCURVE",
"360 418 CURVE",
"288 437 OFFCURVE",
"259 493 OFFCURVE",
"259 552 CURVE SMOOTH",
"259 622 OFFCURVE",
"301 693 OFFCURVE",
"361 693 CURVE SMOOTH",
"388 693 OFFCURVE",
"416 678 OFFCURVE",
"416 637 CURVE SMOOTH",
"416 602 OFFCURVE",
"396 558 OFFCURVE",
"372 550 CURVE",
"385 532 OFFCURVE",
"401 523 OFFCURVE",
"419 523 CURVE SMOOTH",
"459 523 OFFCURVE",
"493 567 OFFCURVE",
"493 627 CURVE SMOOTH",
"493 709 OFFCURVE",
"430 752 OFFCURVE",
"350 752 CURVE SMOOTH",
"222 752 OFFCURVE",
"131 640 OFFCURVE",
"131 537 CURVE SMOOTH",
"131 492 OFFCURVE",
"149 448 OFFCURVE",
"192 417 CURVE",
"76 387 OFFCURVE",
"7 263 OFFCURVE",
"7 158 CURVE SMOOTH",
"7 65 OFFCURVE",
"62 -18 OFFCURVE",
"191 -18 CURVE SMOOTH",
"312 -18 OFFCURVE",
"431 53 OFFCURVE",
"484 170 CURVE"
);
},
{
closed = 1;
nodes = (
"360 917 OFFCURVE",
"332 945 OFFCURVE",
"299 945 CURVE SMOOTH",
"264 945 OFFCURVE",
"238 917 OFFCURVE",
"238 884 CURVE SMOOTH",
"238 849 OFFCURVE",
"264 823 OFFCURVE",
"299 823 CURVE SMOOTH",
"332 823 OFFCURVE",
"360 849 OFFCURVE",
"360 884 CURVE SMOOTH"
);
},
{
closed = 1;
nodes = (
"540 917 OFFCURVE",
"512 945 OFFCURVE",
"479 945 CURVE SMOOTH",
"444 945 OFFCURVE",
"418 917 OFFCURVE",
"418 884 CURVE SMOOTH",
"418 849 OFFCURVE",
"444 823 OFFCURVE",
"479 823 CURVE SMOOTH",
"512 823 OFFCURVE",
"540 849 OFFCURVE",
"540 884 CURVE SMOOTH"
);
}
);
};
layerId = UUID0;
paths = (
{
closed = 1;
nodes = (
"312 -18 OFFCURVE",
"431 53 OFFCURVE",
"484 170 CURVE",
"461 180 LINE",
"424 113 OFFCURVE",
"337 78 OFFCURVE",
"276 78 CURVE SMOOTH",
"208 78 OFFCURVE",
"181 123 OFFCURVE",
"181 179 CURVE SMOOTH",
"181 271 OFFCURVE",
"253 394 OFFCURVE",
"360 418 CURVE",
"288 437 OFFCURVE",
"259 493 OFFCURVE",
"259 552 CURVE SMOOTH",
"259 622 OFFCURVE",
"301 693 OFFCURVE",
"361 693 CURVE SMOOTH",
"388 693 OFFCURVE",
"416 678 OFFCURVE",
"416 637 CURVE SMOOTH",
"416 602 OFFCURVE",
"396 558 OFFCURVE",
"372 550 CURVE",
"385 532 OFFCURVE",
"401 523 OFFCURVE",
"419 523 CURVE SMOOTH",
"459 523 OFFCURVE",
"493 567 OFFCURVE",
"493 627 CURVE SMOOTH",
"493 709 OFFCURVE",
"430 752 OFFCURVE",
"350 752 CURVE SMOOTH",
"222 752 OFFCURVE",
"131 640 OFFCURVE",
"131 537 CURVE SMOOTH",
"131 492 OFFCURVE",
"149 448 OFFCURVE",
"192 417 CURVE",
"76 387 OFFCURVE",
"7 263 OFFCURVE",
"7 158 CURVE SMOOTH",
"7 65 OFFCURVE",
"62 -18 OFFCURVE",
"191 -18 CURVE SMOOTH"
);
},
{
closed = 1;
nodes = (
"545 849 LINE",
"560 923 LINE",
"240 923 LINE",
"224 849 LINE"
);
}
);
width = 459;
}
);
unicode = 0112;
},
{
color = 4;
glyphname = Eogonek;
lastChange = "2016-09-22 17:50:23 +0000";
layers = (
{
background = {
paths = (
{
closed = 1;
nodes = (
"461 180 LINE",
"424 116 OFFCURVE",
"380 84 OFFCURVE",
"303 84 CURVE SMOOTH",
"239 84 OFFCURVE",
"186 144 OFFCURVE",
"186 217 CURVE SMOOTH",
"186 287 OFFCURVE",
"233 365 OFFCURVE",
"360 418 CURVE",
"265 461 OFFCURVE",
"228 524 OFFCURVE",
"228 583 CURVE SMOOTH",
"228 650 OFFCURVE",
"278 706 OFFCURVE",
"350 706 CURVE SMOOTH",
"414 706 OFFCURVE",
"416 648 OFFCURVE",
"416 632 CURVE SMOOTH",
"416 607 OFFCURVE",
"396 558 OFFCURVE",
"372 550 CURVE",
"391 527 OFFCURVE",
"413 524 OFFCURVE",
"429 524 CURVE SMOOTH",
"480 524 OFFCURVE",
"499 563 OFFCURVE",
"499 616 CURVE SMOOTH",
"499 712 OFFCURVE",
"408 750 OFFCURVE",
"315 750 CURVE SMOOTH",
"173 750 OFFCURVE",
"93 660 OFFCURVE",
"93 569 CURVE SMOOTH",
"93 512 OFFCURVE",
"124 454 OFFCURVE",
"192 417 CURVE",
"72 393 OFFCURVE",
"11 291 OFFCURVE",
"11 196 CURVE SMOOTH",
"11 93 OFFCURVE",
"80 -6 OFFCURVE",
"218 -6 CURVE SMOOTH",
"242 -6 OFFCURVE",
"268 -4 OFFCURVE",
"293 1 CURVE",
"246 -36 OFFCURVE",
"221 -79 OFFCURVE",
"221 -115 CURVE SMOOTH",
"221 -150 OFFCURVE",
"245 -193 OFFCURVE",
"300 -193 CURVE SMOOTH",
"350 -193 OFFCURVE",
"386 -154 OFFCURVE",
"409 -131 CURVE",
"409 -119 OFFCURVE",
"410 -112 OFFCURVE",
"411 -100 CURVE",
"391 -113 OFFCURVE",
"367 -134 OFFCURVE",
"343 -134 CURVE SMOOTH",
"315 -134 OFFCURVE",
"304 -107 OFFCURVE",
"304 -84 CURVE SMOOTH",
"304 40 OFFCURVE",
"437 28 OFFCURVE",
"484 170 CURVE"
);
}
);
};
layerId = UUID0;
paths = (
{
closed = 1;
nodes = (
"350 -193 OFFCURVE",
"386 -154 OFFCURVE",
"409 -131 CURVE",
"409 -119 OFFCURVE",
"410 -112 OFFCURVE",
"411 -100 CURVE",
"391 -113 OFFCURVE",
"367 -134 OFFCURVE",
"343 -134 CURVE SMOOTH",
"315 -134 OFFCURVE",
"304 -107 OFFCURVE",
"304 -84 CURVE SMOOTH",
"304 40 OFFCURVE",
"437 28 OFFCURVE",
"484 170 CURVE",
"461 180 LINE",
"424 116 OFFCURVE",
"380 84 OFFCURVE",
"303 84 CURVE SMOOTH",
"239 84 OFFCURVE",
"186 144 OFFCURVE",
"186 217 CURVE SMOOTH",
"186 287 OFFCURVE",
"233 365 OFFCURVE",
"360 418 CURVE",
"265 461 OFFCURVE",
"228 524 OFFCURVE",
"228 583 CURVE SMOOTH",
"228 650 OFFCURVE",
"278 706 OFFCURVE",
"350 706 CURVE SMOOTH",
"414 706 OFFCURVE",
"416 648 OFFCURVE",
"416 632 CURVE SMOOTH",
"416 607 OFFCURVE",
"396 558 OFFCURVE",
"372 550 CURVE",
"391 527 OFFCURVE",
"413 524 OFFCURVE",
"429 524 CURVE SMOOTH",
"480 524 OFFCURVE",
"499 563 OFFCURVE",
"499 616 CURVE SMOOTH",
"499 712 OFFCURVE",
"408 750 OFFCURVE",
"315 750 CURVE SMOOTH",
"173 750 OFFCURVE",
"93 660 OFFCURVE",
"93 569 CURVE SMOOTH",
"93 512 OFFCURVE",
"124 454 OFFCURVE",
"192 417 CURVE",
"72 393 OFFCURVE",
"11 291 OFFCURVE",
"11 196 CURVE SMOOTH",
"11 93 OFFCURVE",
"80 -6 OFFCURVE",
"218 -6 CURVE SMOOTH",
"242 -6 OFFCURVE",
"268 -4 OFFCURVE",
"293 1 CURVE",
"246 -36 OFFCURVE",
"221 -79 OFFCURVE",
"221 -115 CURVE SMOOTH",
"221 -150 OFFCURVE",
"245 -193 OFFCURVE",
"300 -193 CURVE SMOOTH"
);
}
);
width = 459;
}
);
unicode = 0118;
},
{
color = 4;
glyphname = Etilde;
lastChange = "2016-09-22 17:50:23 +0000";
layers = (
{
background = {
paths = (
{
closed = 1;
nodes = (
"461 180 LINE",
"424 113 OFFCURVE",
"337 78 OFFCURVE",
"276 78 CURVE SMOOTH",
"208 78 OFFCURVE",
"181 123 OFFCURVE",
"181 179 CURVE SMOOTH",
"181 271 OFFCURVE",
"253 394 OFFCURVE",
"360 418 CURVE",
"288 437 OFFCURVE",
"259 493 OFFCURVE",
"259 552 CURVE SMOOTH",
"259 622 OFFCURVE",
"301 693 OFFCURVE",
"361 693 CURVE SMOOTH",
"388 693 OFFCURVE",
"416 678 OFFCURVE",
"416 637 CURVE SMOOTH",
"416 602 OFFCURVE",
"396 558 OFFCURVE",
"372 550 CURVE",
"385 532 OFFCURVE",
"401 523 OFFCURVE",
"419 523 CURVE SMOOTH",
"459 523 OFFCURVE",
"493 567 OFFCURVE",
"493 627 CURVE SMOOTH",
"493 709 OFFCURVE",
"430 752 OFFCURVE",
"350 752 CURVE SMOOTH",
"222 752 OFFCURVE",
"131 640 OFFCURVE",
"131 537 CURVE SMOOTH",
"131 492 OFFCURVE",
"149 448 OFFCURVE",
"192 417 CURVE",
"76 387 OFFCURVE",
"7 263 OFFCURVE",
"7 158 CURVE SMOOTH",
"7 65 OFFCURVE",
"62 -18 OFFCURVE",
"191 -18 CURVE SMOOTH",
"312 -18 OFFCURVE",
"431 53 OFFCURVE",
"484 170 CURVE"
);
},
{
closed = 1;
nodes = (
"360 917 OFFCURVE",
"332 945 OFFCURVE",
"299 945 CURVE SMOOTH",
"264 945 OFFCURVE",
"238 917 OFFCURVE",
"238 884 CURVE SMOOTH",
"238 849 OFFCURVE",
"264 823 OFFCURVE",
"299 823 CURVE SMOOTH",
"332 823 OFFCURVE",
"360 849 OFFCURVE",
"360 884 CURVE SMOOTH"
);
},
{
closed = 1;
nodes = (
"540 917 OFFCURVE",
"512 945 OFFCURVE",
"479 945 CURVE SMOOTH",
"444 945 OFFCURVE",
"418 917 OFFCURVE",
"418 884 CURVE SMOOTH",
"418 849 OFFCURVE",
"444 823 OFFCURVE",
"479 823 CURVE SMOOTH",
"512 823 OFFCURVE",
"540 849 OFFCURVE",
"540 884 CURVE SMOOTH"
);
}
);
};
layerId = UUID0;
paths = (
{
closed = 1;
nodes = (
"312 -18 OFFCURVE",
"431 53 OFFCURVE",
"484 170 CURVE",
"461 180 LINE",
"424 113 OFFCURVE",
"337 78 OFFCURVE",
"276 78 CURVE SMOOTH",
"208 78 OFFCURVE",
"181 123 OFFCURVE",
"181 179 CURVE SMOOTH",
"181 271 OFFCURVE",
"253 394 OFFCURVE",
"360 418 CURVE",
"288 437 OFFCURVE",
"259 493 OFFCURVE",
"259 552 CURVE SMOOTH",
"259 622 OFFCURVE",
"301 693 OFFCURVE",
"361 693 CURVE SMOOTH",
"388 693 OFFCURVE",
"416 678 OFFCURVE",
"416 637 CURVE SMOOTH",
"416 602 OFFCURVE",
"396 558 OFFCURVE",
"372 550 CURVE",
"385 532 OFFCURVE",
"401 523 OFFCURVE",
"419 523 CURVE SMOOTH",
"459 523 OFFCURVE",
"493 567 OFFCURVE",
"493 627 CURVE SMOOTH",
"493 709 OFFCURVE",
"430 752 OFFCURVE",
"350 752 CURVE SMOOTH",
"222 752 OFFCURVE",
"131 640 OFFCURVE",
"131 537 CURVE SMOOTH",
"131 492 OFFCURVE",
"149 448 OFFCURVE",
"192 417 CURVE",
"76 387 OFFCURVE",
"7 263 OFFCURVE",
"7 158 CURVE SMOOTH",
"7 65 OFFCURVE",
"62 -18 OFFCURVE",
"191 -18 CURVE SMOOTH"
);
},
{
closed = 1;
nodes = (
"521 819 OFFCURVE",
"597 872 OFFCURVE",
"606 919 CURVE",
"601 920 LINE",
"585 905 OFFCURVE",
"563 897 OFFCURVE",
"538 897 CURVE SMOOTH",
"479 897 OFFCURVE",
"444 930 OFFCURVE",
"373 930 CURVE SMOOTH",
"296 930 OFFCURVE",
"237 896 OFFCURVE",
"206 832 CURVE",
"211 830 LINE",
"230 847 OFFCURVE",
"252 856 OFFCURVE",
"277 856 CURVE SMOOTH",
"333 856 OFFCURVE",
"378 819 OFFCURVE",
"445 819 CURVE SMOOTH"
);
}
);
width = 459;
}
);
unicode = 1EBC;
},
{
color = 4;
glyphname = Ezh;
lastChange = "2017-10-26 14:05:36 +0000";
layers = (
{
anchors = (
{
name = bottom;
position = "{273, -10}";
}
);
background = {
components = (
{
name = Z;
transform = "{1, 0, 0, 1, 30, 0}";
}
);
};
layerId = UUID0;
paths = (
{
closed = 1;
nodes = (
"391 -16 OFFCURVE",
"504 108 OFFCURVE",
"504 248 CURVE SMOOTH",
"504 383 OFFCURVE",
"422 460 OFFCURVE",
"247 460 CURVE SMOOTH",
"210 460 LINE",
"194 386 LINE",
"216 386 LINE SMOOTH",
"289 386 OFFCURVE",
"341 347 OFFCURVE",
"341 241 CURVE SMOOTH",
"341 144 OFFCURVE",
"292 43 OFFCURVE",
"199 43 CURVE SMOOTH",
"146 43 OFFCURVE",
"120 74 OFFCURVE",
"120 111 CURVE SMOOTH",
"120 140 OFFCURVE",
"130 167 OFFCURVE",
"157 183 CURVE",
"146 199 OFFCURVE",
"131 209 OFFCURVE",
"105 209 CURVE SMOOTH",
"55 209 OFFCURVE",
"20 171 OFFCURVE",
"20 112 CURVE SMOOTH",
"20 25 OFFCURVE",
"95 -16 OFFCURVE",
"203 -16 CURVE SMOOTH"
);
},
{
closed = 1;
nodes = (
"302 386 LINE",
"575 748 LINE",
"223 748 LINE SMOOTH",
"143 748 OFFCURVE",
"100 697 OFFCURVE",
"100 646 CURVE SMOOTH",
"100 618 OFFCURVE",
"112 587 OFFCURVE",
"151 587 CURVE SMOOTH",
"175 587 OFFCURVE",
"210 600 OFFCURVE",
"210 644 CURVE SMOOTH",
"210 668 OFFCURVE",
"200 676 OFFCURVE",
"193 676 CURVE",
"193 694 OFFCURVE",
"238 698 OFFCURVE",
"285 698 CURVE SMOOTH",
"385 698 LINE",
"210 460 LINE",
"207 386 LINE"
);
}
);
width = 555;
}
);
unicode = 01B7;
},
{
color = 4;
glyphname = F;
lastChange = "2016-09-22 17:50:23 +0000";
layers = (
{
background = {
paths = (
{
closed = 1;
nodes = (
"232 0 LINE",
"313 376 LINE",
"459 376 LINE",
"475 450 LINE",
"329 450 LINE",
"371 649 LINE",
"418 638 OFFCURVE",
"464 630 OFFCURVE",
"511 630 CURVE",
"588 646 OFFCURVE",
"593 709 OFFCURVE",
"606 750 CURVE",
"578 741 OFFCURVE",
"547 738 OFFCURVE",
"516 738 CURVE SMOOTH",
"452 738 OFFCURVE",
"390 750 OFFCURVE",
"350 750 CURVE SMOOTH",
"103 750 OFFCURVE",
"9 623 OFFCURVE",
"9 490 CURVE SMOOTH",
"9 418 OFFCURVE",
"47 393 OFFCURVE",
"116 393 CURVE",
"116 401 OFFCURVE",
"102 410 OFFCURVE",
"102 461 CURVE SMOOTH",
"102 621 OFFCURVE",
"155 665 OFFCURVE",
"232 668 CURVE",
"88 0 LINE"
);
}
);
};
layerId = UUID0;
paths = (
{
closed = 1;
nodes = (
"232 0 LINE",
"313 376 LINE",
"459 376 LINE",
"475 450 LINE",
"329 450 LINE",
"371 649 LINE",
"418 638 OFFCURVE",
"464 630 OFFCURVE",
"511 630 CURVE",
"588 646 OFFCURVE",
"593 709 OFFCURVE",
"606 750 CURVE",
"578 741 OFFCURVE",
"547 738 OFFCURVE",
"516 738 CURVE SMOOTH",
"452 738 OFFCURVE",
"390 750 OFFCURVE",
"350 750 CURVE SMOOTH",
"103 750 OFFCURVE",
"9 623 OFFCURVE",
"9 490 CURVE SMOOTH",
"9 418 OFFCURVE",
"47 393 OFFCURVE",
"116 393 CURVE",
"116 401 OFFCURVE",
"102 410 OFFCURVE",
"102 461 CURVE SMOOTH",
"102 621 OFFCURVE",
"155 665 OFFCURVE",
"232 668 CURVE",
"88 0 LINE"
);
}
);
width = 459;
}
);
unicode = 0046;
},
{
color = 4;
glyphname = G;
lastChange = "2016-09-22 17:50:23 +0000";
layers = (
{
background = {
paths = (
{
closed = 1;
nodes = (
"428 419 LINE",
"394 273 OFFCURVE",
"338 196 OFFCURVE",
"266 196 CURVE SMOOTH",
"206 196 OFFCURVE",
"173 250 OFFCURVE",
"173 350 CURVE SMOOTH",
"173 535 OFFCURVE",
"286 710 OFFCURVE",
"405 710 CURVE SMOOTH",
"448 710 OFFCURVE",
"472 687 OFFCURVE",
"472 647 CURVE SMOOTH",
"472 611 OFFCURVE",
"453 571 OFFCURVE",
"429 555 CURVE",
"444 535 OFFCURVE",
"467 524 OFFCURVE",
"492 524 CURVE SMOOTH",
"537 524 OFFCURVE",
"568 562 OFFCURVE",
"568 619 CURVE SMOOTH",
"568 704 OFFCURVE",
"498 757 OFFCURVE",
"384 757 CURVE SMOOTH",
"178 757 OFFCURVE",
"19 585 OFFCURVE",
"19 362 CURVE SMOOTH",
"19 208 OFFCURVE",
"94 109 OFFCURVE",
"212 109 CURVE SMOOTH",
"273 109 OFFCURVE",
"326 137 OFFCURVE",
"362 187 CURVE",
"366 187 LINE",
"316 -34 LINE SMOOTH",
"298 -115 OFFCURVE",
"264 -157 OFFCURVE",
"218 -157 CURVE SMOOTH",
"180 -157 OFFCURVE",
"153 -127 OFFCURVE",
"153 -85 CURVE SMOOTH",
"153 -42 OFFCURVE",
"181 -13 OFFCURVE",
"221 -13 CURVE SMOOTH",
"244 -13 OFFCURVE",
"266 -23 OFFCURVE",
"278 -39 CURVE",
"285 -30 OFFCURVE",
"289 -16 OFFCURVE",
"289 -1 CURVE SMOOTH",
"289 41 OFFCURVE",
"255 68 OFFCURVE",
"204 68 CURVE SMOOTH",
"128 68 OFFCURVE",
"69 7 OFFCURVE",
"69 -71 CURVE SMOOTH",
"69 -152 OFFCURVE",
"134 -207 OFFCURVE",
"231 -207 CURVE SMOOTH",
"355 -207 OFFCURVE",
"430 -117 OFFCURVE",
"473 82 CURVE SMOOTH",
"546 418 LINE"
);
}
);
};
layerId = UUID0;
paths = (
{
closed = 1;
nodes = (
"355 -207 OFFCURVE",
"430 -117 OFFCURVE",
"473 82 CURVE SMOOTH",
"546 418 LINE",
"428 419 LINE",
"394 273 OFFCURVE",
"338 196 OFFCURVE",
"266 196 CURVE SMOOTH",
"206 196 OFFCURVE",
"173 250 OFFCURVE",
"173 350 CURVE SMOOTH",
"173 535 OFFCURVE",
"286 710 OFFCURVE",
"405 710 CURVE SMOOTH",
"448 710 OFFCURVE",
"472 687 OFFCURVE",
"472 647 CURVE SMOOTH",
"472 611 OFFCURVE",
"453 571 OFFCURVE",
"429 555 CURVE",
"444 535 OFFCURVE",
"467 524 OFFCURVE",
"492 524 CURVE SMOOTH",
"537 524 OFFCURVE",
"568 562 OFFCURVE",
"568 619 CURVE SMOOTH",
"568 704 OFFCURVE",
"498 757 OFFCURVE",
"384 757 CURVE SMOOTH",
"178 757 OFFCURVE",
"19 585 OFFCURVE",
"19 362 CURVE SMOOTH",
"19 208 OFFCURVE",
"94 109 OFFCURVE",
"212 109 CURVE SMOOTH",
"273 109 OFFCURVE",
"326 137 OFFCURVE",
"362 187 CURVE",
"366 187 LINE",
"316 -34 LINE SMOOTH",
"298 -115 OFFCURVE",
"264 -157 OFFCURVE",
"218 -157 CURVE SMOOTH",
"180 -157 OFFCURVE",
"153 -127 OFFCURVE",
"153 -85 CURVE SMOOTH",
"153 -42 OFFCURVE",
"181 -13 OFFCURVE",
"221 -13 CURVE SMOOTH",
"244 -13 OFFCURVE",
"266 -23 OFFCURVE",
"278 -39 CURVE",
"285 -30 OFFCURVE",
"289 -16 OFFCURVE",
"289 -1 CURVE SMOOTH",
"289 41 OFFCURVE",
"255 68 OFFCURVE",
"204 68 CURVE SMOOTH",
"128 68 OFFCURVE",
"69 7 OFFCURVE",
"69 -71 CURVE SMOOTH",
"69 -152 OFFCURVE",
"134 -207 OFFCURVE",
"231 -207 CURVE SMOOTH"
);
}
);
width = 578;
}
);
unicode = 0047;
},
{
color = 4;
glyphname = Gacute;
lastChange = "2016-09-22 17:50:23 +0000";
layers = (
{
background = {
paths = (
{
closed = 1;
nodes = (
"428 419 LINE",
"394 273 OFFCURVE",
"338 196 OFFCURVE",
"266 196 CURVE SMOOTH",
"206 196 OFFCURVE",
"173 250 OFFCURVE",
"173 350 CURVE SMOOTH",
"173 535 OFFCURVE",
"286 710 OFFCURVE",
"405 710 CURVE SMOOTH",
"448 710 OFFCURVE",
"472 687 OFFCURVE",
"472 647 CURVE SMOOTH",
"472 611 OFFCURVE",
"453 571 OFFCURVE",
"429 555 CURVE",
"444 535 OFFCURVE",
"467 524 OFFCURVE",
"492 524 CURVE SMOOTH",
"537 524 OFFCURVE",
"568 562 OFFCURVE",
"568 619 CURVE SMOOTH",
"568 704 OFFCURVE",
"498 757 OFFCURVE",
"384 757 CURVE SMOOTH",
"178 757 OFFCURVE",
"19 585 OFFCURVE",
"19 362 CURVE SMOOTH",
"19 208 OFFCURVE",
"94 109 OFFCURVE",
"212 109 CURVE SMOOTH",
"273 109 OFFCURVE",
"326 137 OFFCURVE",
"362 187 CURVE",
"366 187 LINE",
"316 -34 LINE SMOOTH",
"298 -115 OFFCURVE",
"264 -157 OFFCURVE",
"218 -157 CURVE SMOOTH",
"180 -157 OFFCURVE",
"153 -127 OFFCURVE",
"153 -85 CURVE SMOOTH",
"153 -42 OFFCURVE",
"181 -13 OFFCURVE",
"221 -13 CURVE SMOOTH",
"244 -13 OFFCURVE",
"266 -23 OFFCURVE",
"278 -39 CURVE",
"285 -30 OFFCURVE",
"289 -16 OFFCURVE",
"289 -1 CURVE SMOOTH",
"289 41 OFFCURVE",
"255 68 OFFCURVE",
"204 68 CURVE SMOOTH",
"128 68 OFFCURVE",
"69 7 OFFCURVE",
"69 -71 CURVE SMOOTH",
"69 -152 OFFCURVE",
"134 -207 OFFCURVE",
"231 -207 CURVE SMOOTH",
"355 -207 OFFCURVE",
"430 -117 OFFCURVE",
"473 82 CURVE SMOOTH",
"546 418 LINE"
);
}
);
};
layerId = UUID0;
paths = (
{
closed = 1;
nodes = (
"355 -207 OFFCURVE",
"430 -117 OFFCURVE",
"473 82 CURVE SMOOTH",
"546 418 LINE",
"428 419 LINE",
"394 273 OFFCURVE",
"338 196 OFFCURVE",
"266 196 CURVE SMOOTH",
"206 196 OFFCURVE",
"173 250 OFFCURVE",
"173 350 CURVE SMOOTH",
"173 535 OFFCURVE",
"286 710 OFFCURVE",
"405 710 CURVE SMOOTH",
"448 710 OFFCURVE",
"472 687 OFFCURVE",
"472 647 CURVE SMOOTH",
"472 611 OFFCURVE",
"453 571 OFFCURVE",
"429 555 CURVE",
"444 535 OFFCURVE",
"467 524 OFFCURVE",
"492 524 CURVE SMOOTH",
"537 524 OFFCURVE",
"568 562 OFFCURVE",
"568 619 CURVE SMOOTH",
"568 704 OFFCURVE",
"498 757 OFFCURVE",
"384 757 CURVE SMOOTH",
"178 757 OFFCURVE",
"19 585 OFFCURVE",
"19 362 CURVE SMOOTH",
"19 208 OFFCURVE",
"94 109 OFFCURVE",
"212 109 CURVE SMOOTH",
"273 109 OFFCURVE",
"326 137 OFFCURVE",
"362 187 CURVE",
"366 187 LINE",
"316 -34 LINE SMOOTH",
"298 -115 OFFCURVE",
"264 -157 OFFCURVE",
"218 -157 CURVE SMOOTH",
"180 -157 OFFCURVE",
"153 -127 OFFCURVE",
"153 -85 CURVE SMOOTH",
"153 -42 OFFCURVE",
"181 -13 OFFCURVE",
"221 -13 CURVE SMOOTH",
"244 -13 OFFCURVE",
"266 -23 OFFCURVE",
"278 -39 CURVE",
"285 -30 OFFCURVE",
"289 -16 OFFCURVE",
"289 -1 CURVE SMOOTH",
"289 41 OFFCURVE",
"255 68 OFFCURVE",
"204 68 CURVE SMOOTH",
"128 68 OFFCURVE",
"69 7 OFFCURVE",
"69 -71 CURVE SMOOTH",
"69 -152 OFFCURVE",
"134 -207 OFFCURVE",
"231 -207 CURVE SMOOTH"
);
},
{
closed = 1;
nodes = (
"449 811 LINE",
"570 1000 LINE",
"465 1000 LINE",
"374 811 LINE"
);
}
);
width = 578;
}
);
unicode = 01F4;
},
{
color = 4;
glyphname = Gbreve;
lastChange = "2016-09-22 17:50:23 +0000";
layers = (
{
background = {
paths = (
{
closed = 1;
nodes = (
"428 419 LINE",
"394 273 OFFCURVE",
"338 196 OFFCURVE",
"266 196 CURVE SMOOTH",
"206 196 OFFCURVE",
"173 250 OFFCURVE",
"173 350 CURVE SMOOTH",
"173 535 OFFCURVE",
"286 710 OFFCURVE",
"405 710 CURVE SMOOTH",
"448 710 OFFCURVE",
"472 687 OFFCURVE",
"472 647 CURVE SMOOTH",
"472 611 OFFCURVE",
"453 571 OFFCURVE",
"429 555 CURVE",
"444 535 OFFCURVE",
"467 524 OFFCURVE",
"492 524 CURVE SMOOTH",
"537 524 OFFCURVE",
"568 562 OFFCURVE",
"568 619 CURVE SMOOTH",
"568 704 OFFCURVE",
"498 757 OFFCURVE",
"384 757 CURVE SMOOTH",
"178 757 OFFCURVE",
"19 585 OFFCURVE",
"19 362 CURVE SMOOTH",
"19 208 OFFCURVE",
"94 109 OFFCURVE",
"212 109 CURVE SMOOTH",
"273 109 OFFCURVE",
"326 137 OFFCURVE",
"362 187 CURVE",
"366 187 LINE",
"316 -34 LINE SMOOTH",
"298 -115 OFFCURVE",
"264 -157 OFFCURVE",
"218 -157 CURVE SMOOTH",
"180 -157 OFFCURVE",
"153 -127 OFFCURVE",
"153 -85 CURVE SMOOTH",
"153 -42 OFFCURVE",
"181 -13 OFFCURVE",
"221 -13 CURVE SMOOTH",
"244 -13 OFFCURVE",
"266 -23 OFFCURVE",
"278 -39 CURVE",
"285 -30 OFFCURVE",
"289 -16 OFFCURVE",
"289 -1 CURVE SMOOTH",
"289 41 OFFCURVE",
"255 68 OFFCURVE",
"204 68 CURVE SMOOTH",
"128 68 OFFCURVE",
"69 7 OFFCURVE",
"69 -71 CURVE SMOOTH",
"69 -152 OFFCURVE",
"134 -207 OFFCURVE",
"231 -207 CURVE SMOOTH",
"355 -207 OFFCURVE",
"430 -117 OFFCURVE",
"473 82 CURVE SMOOTH",
"546 418 LINE"
);
}
);
};
layerId = UUID0;
paths = (
{
closed = 1;
nodes = (
"355 -207 OFFCURVE",
"430 -117 OFFCURVE",
"473 82 CURVE SMOOTH",
"546 418 LINE",
"428 419 LINE",
"394 273 OFFCURVE",
"338 196 OFFCURVE",
"266 196 CURVE SMOOTH",
"206 196 OFFCURVE",
"173 250 OFFCURVE",
"173 350 CURVE SMOOTH",
"173 535 OFFCURVE",
"286 710 OFFCURVE",
"405 710 CURVE SMOOTH",
"448 710 OFFCURVE",
"472 687 OFFCURVE",
"472 647 CURVE SMOOTH",
"472 611 OFFCURVE",
"453 571 OFFCURVE",
"429 555 CURVE",
"444 535 OFFCURVE",
"467 524 OFFCURVE",
"492 524 CURVE SMOOTH",
"537 524 OFFCURVE",
"568 562 OFFCURVE",
"568 619 CURVE SMOOTH",
"568 704 OFFCURVE",
"498 757 OFFCURVE",
"384 757 CURVE SMOOTH",
"178 757 OFFCURVE",
"19 585 OFFCURVE",
"19 362 CURVE SMOOTH",
"19 208 OFFCURVE",
"94 109 OFFCURVE",
"212 109 CURVE SMOOTH",
"273 109 OFFCURVE",
"326 137 OFFCURVE",
"362 187 CURVE",
"366 187 LINE",
"316 -34 LINE SMOOTH",
"298 -115 OFFCURVE",
"264 -157 OFFCURVE",
"218 -157 CURVE SMOOTH",
"180 -157 OFFCURVE",
"153 -127 OFFCURVE",
"153 -85 CURVE SMOOTH",
"153 -42 OFFCURVE",
"181 -13 OFFCURVE",
"221 -13 CURVE SMOOTH",
"244 -13 OFFCURVE",
"266 -23 OFFCURVE",
"278 -39 CURVE",
"285 -30 OFFCURVE",
"289 -16 OFFCURVE",
"289 -1 CURVE SMOOTH",
"289 41 OFFCURVE",
"255 68 OFFCURVE",
"204 68 CURVE SMOOTH",
"128 68 OFFCURVE",
"69 7 OFFCURVE",
"69 -71 CURVE SMOOTH",
"69 -152 OFFCURVE",
"134 -207 OFFCURVE",
"231 -207 CURVE SMOOTH"
);
},
{
closed = 1;
nodes = (
"541 815 OFFCURVE",
"632 875 OFFCURVE",
"644 954 CURVE",
"558 954 LINE",
"551 908 OFFCURVE",
"503 871 OFFCURVE",
"448 871 CURVE SMOOTH",
"398 871 OFFCURVE",
"370 900 OFFCURVE",
"370 954 CURVE",
"280 954 LINE",
"280 863 OFFCURVE",
"333 815 OFFCURVE",
"433 815 CURVE SMOOTH"
);
}
);
width = 578;
}
);
unicode = 011E;
},
{
color = 4;
glyphname = Gcaron;
lastChange = "2016-09-22 17:50:23 +0000";
layers = (
{
background = {
paths = (
{
closed = 1;
nodes = (
"428 419 LINE",
"394 273 OFFCURVE",
"338 196 OFFCURVE",
"266 196 CURVE SMOOTH",
"206 196 OFFCURVE",
"173 250 OFFCURVE",
"173 350 CURVE SMOOTH",
"173 535 OFFCURVE",
"286 710 OFFCURVE",
"405 710 CURVE SMOOTH",
"448 710 OFFCURVE",
"472 687 OFFCURVE",
"472 647 CURVE SMOOTH",
"472 611 OFFCURVE",
"453 571 OFFCURVE",
"429 555 CURVE",
"444 535 OFFCURVE",
"467 524 OFFCURVE",
"492 524 CURVE SMOOTH",
"537 524 OFFCURVE",
"568 562 OFFCURVE",
"568 619 CURVE SMOOTH",
"568 704 OFFCURVE",
"498 757 OFFCURVE",
"384 757 CURVE SMOOTH",
"178 757 OFFCURVE",
"19 585 OFFCURVE",
"19 362 CURVE SMOOTH",
"19 208 OFFCURVE",
"94 109 OFFCURVE",
"212 109 CURVE SMOOTH",
"273 109 OFFCURVE",
"326 137 OFFCURVE",
"362 187 CURVE",
"366 187 LINE",
"316 -34 LINE SMOOTH",
"298 -115 OFFCURVE",
"264 -157 OFFCURVE",
"218 -157 CURVE SMOOTH",
"180 -157 OFFCURVE",
"153 -127 OFFCURVE",
"153 -85 CURVE SMOOTH",
"153 -42 OFFCURVE",
"181 -13 OFFCURVE",
"221 -13 CURVE SMOOTH",
"244 -13 OFFCURVE",
"266 -23 OFFCURVE",
"278 -39 CURVE",
"285 -30 OFFCURVE",
"289 -16 OFFCURVE",
"289 -1 CURVE SMOOTH",
"289 41 OFFCURVE",
"255 68 OFFCURVE",
"204 68 CURVE SMOOTH",
"128 68 OFFCURVE",
"69 7 OFFCURVE",
"69 -71 CURVE SMOOTH",
"69 -152 OFFCURVE",
"134 -207 OFFCURVE",
"231 -207 CURVE SMOOTH",
"355 -207 OFFCURVE",
"430 -117 OFFCURVE",
"473 82 CURVE SMOOTH",
"546 418 LINE"
);
}
);
};
layerId = UUID0;
paths = (
{
closed = 1;
nodes = (
"355 -207 OFFCURVE",
"430 -117 OFFCURVE",
"473 82 CURVE SMOOTH",
"546 418 LINE",
"428 419 LINE",
"394 273 OFFCURVE",
"338 196 OFFCURVE",
"266 196 CURVE SMOOTH",
"206 196 OFFCURVE",
"173 250 OFFCURVE",
"173 350 CURVE SMOOTH",
"173 535 OFFCURVE",
"286 710 OFFCURVE",
"405 710 CURVE SMOOTH",
"448 710 OFFCURVE",
"472 687 OFFCURVE",
"472 647 CURVE SMOOTH",
"472 611 OFFCURVE",
"453 571 OFFCURVE",
"429 555 CURVE",
"444 535 OFFCURVE",
"467 524 OFFCURVE",
"492 524 CURVE SMOOTH",
"537 524 OFFCURVE",
"568 562 OFFCURVE",
"568 619 CURVE SMOOTH",
"568 704 OFFCURVE",
"498 757 OFFCURVE",
"384 757 CURVE SMOOTH",
"178 757 OFFCURVE",
"19 585 OFFCURVE",
"19 362 CURVE SMOOTH",
"19 208 OFFCURVE",
"94 109 OFFCURVE",
"212 109 CURVE SMOOTH",
"273 109 OFFCURVE",
"326 137 OFFCURVE",
"362 187 CURVE",
"366 187 LINE",
"316 -34 LINE SMOOTH",
"298 -115 OFFCURVE",
"264 -157 OFFCURVE",
"218 -157 CURVE SMOOTH",
"180 -157 OFFCURVE",
"153 -127 OFFCURVE",
"153 -85 CURVE SMOOTH",
"153 -42 OFFCURVE",
"181 -13 OFFCURVE",
"221 -13 CURVE SMOOTH",
"244 -13 OFFCURVE",
"266 -23 OFFCURVE",
"278 -39 CURVE",
"285 -30 OFFCURVE",
"289 -16 OFFCURVE",
"289 -1 CURVE SMOOTH",
"289 41 OFFCURVE",
"255 68 OFFCURVE",
"204 68 CURVE SMOOTH",
"128 68 OFFCURVE",
"69 7 OFFCURVE",
"69 -71 CURVE SMOOTH",
"69 -152 OFFCURVE",
"134 -207 OFFCURVE",
"231 -207 CURVE SMOOTH"
);
},
{
closed = 1;
nodes = (
"434 811 LINE",
"646 1000 LINE",
"602 1000 LINE",
"445 920 LINE",
"385 1000 LINE",
"353 1000 LINE",
"413 811 LINE"
);
}
);
width = 578;
}
);
unicode = 01E6;
},
{
color = 4;
glyphname = Gcircumflex;
lastChange = "2016-09-22 17:50:23 +0000";
layers = (
{
background = {
paths = (
{
closed = 1;
nodes = (
"428 419 LINE",
"394 273 OFFCURVE",
"338 196 OFFCURVE",
"266 196 CURVE SMOOTH",
"206 196 OFFCURVE",
"173 250 OFFCURVE",
"173 350 CURVE SMOOTH",
"173 535 OFFCURVE",
"286 710 OFFCURVE",
"405 710 CURVE SMOOTH",
"448 710 OFFCURVE",
"472 687 OFFCURVE",
"472 647 CURVE SMOOTH",
"472 611 OFFCURVE",
"453 571 OFFCURVE",
"429 555 CURVE",
"444 535 OFFCURVE",
"467 524 OFFCURVE",
"492 524 CURVE SMOOTH",
"537 524 OFFCURVE",
"568 562 OFFCURVE",
"568 619 CURVE SMOOTH",
"568 704 OFFCURVE",
"498 757 OFFCURVE",
"384 757 CURVE SMOOTH",
"178 757 OFFCURVE",
"19 585 OFFCURVE",
"19 362 CURVE SMOOTH",
"19 208 OFFCURVE",
"94 109 OFFCURVE",
"212 109 CURVE SMOOTH",
"273 109 OFFCURVE",
"326 137 OFFCURVE",
"362 187 CURVE",
"366 187 LINE",
"316 -34 LINE SMOOTH",
"298 -115 OFFCURVE",
"264 -157 OFFCURVE",
"218 -157 CURVE SMOOTH",
"180 -157 OFFCURVE",
"153 -127 OFFCURVE",
"153 -85 CURVE SMOOTH",
"153 -42 OFFCURVE",
"181 -13 OFFCURVE",
"221 -13 CURVE SMOOTH",
"244 -13 OFFCURVE",
"266 -23 OFFCURVE",
"278 -39 CURVE",
"285 -30 OFFCURVE",
"289 -16 OFFCURVE",
"289 -1 CURVE SMOOTH",
"289 41 OFFCURVE",
"255 68 OFFCURVE",
"204 68 CURVE SMOOTH",
"128 68 OFFCURVE",
"69 7 OFFCURVE",
"69 -71 CURVE SMOOTH",
"69 -152 OFFCURVE",
"134 -207 OFFCURVE",
"231 -207 CURVE SMOOTH",
"355 -207 OFFCURVE",
"430 -117 OFFCURVE",
"473 82 CURVE SMOOTH",
"546 418 LINE"
);
}
);
};
layerId = UUID0;
paths = (
{
closed = 1;
nodes = (
"355 -207 OFFCURVE",
"430 -117 OFFCURVE",
"473 82 CURVE SMOOTH",
"546 418 LINE",
"428 419 LINE",
"394 273 OFFCURVE",
"338 196 OFFCURVE",
"266 196 CURVE SMOOTH",
"206 196 OFFCURVE",
"173 250 OFFCURVE",
"173 350 CURVE SMOOTH",
"173 535 OFFCURVE",
"286 710 OFFCURVE",
"405 710 CURVE SMOOTH",
"448 710 OFFCURVE",
"472 687 OFFCURVE",
"472 647 CURVE SMOOTH",
"472 611 OFFCURVE",
"453 571 OFFCURVE",
"429 555 CURVE",
"444 535 OFFCURVE",
"467 524 OFFCURVE",
"492 524 CURVE SMOOTH",
"537 524 OFFCURVE",
"568 562 OFFCURVE",
"568 619 CURVE SMOOTH",
"568 704 OFFCURVE",
"498 757 OFFCURVE",
"384 757 CURVE SMOOTH",
"178 757 OFFCURVE",
"19 585 OFFCURVE",
"19 362 CURVE SMOOTH",
"19 208 OFFCURVE",
"94 109 OFFCURVE",
"212 109 CURVE SMOOTH",
"273 109 OFFCURVE",
"326 137 OFFCURVE",
"362 187 CURVE",
"366 187 LINE",
"316 -34 LINE SMOOTH",
"298 -115 OFFCURVE",
"264 -157 OFFCURVE",
"218 -157 CURVE SMOOTH",
"180 -157 OFFCURVE",
"153 -127 OFFCURVE",
"153 -85 CURVE SMOOTH",
"153 -42 OFFCURVE",
"181 -13 OFFCURVE",
"221 -13 CURVE SMOOTH",
"244 -13 OFFCURVE",
"266 -23 OFFCURVE",
"278 -39 CURVE",
"285 -30 OFFCURVE",
"289 -16 OFFCURVE",
"289 -1 CURVE SMOOTH",
"289 41 OFFCURVE",
"255 68 OFFCURVE",
"204 68 CURVE SMOOTH",
"128 68 OFFCURVE",
"69 7 OFFCURVE",
"69 -71 CURVE SMOOTH",
"69 -152 OFFCURVE",
"134 -207 OFFCURVE",
"231 -207 CURVE SMOOTH"
);
},
{
closed = 1;
nodes = (
"293 811 LINE",
"451 891 LINE",
"511 811 LINE",
"542 811 LINE",
"482 1000 LINE",
"461 1000 LINE",
"250 811 LINE"
);
}
);
width = 578;
}
);
unicode = 011C;
},
{
color = 4;
glyphname = Gcommaaccent;
lastChange = "2016-09-22 17:50:23 +0000";
layers = (
{
background = {
paths = (
{
closed = 1;
nodes = (
"428 419 LINE",
"394 273 OFFCURVE",
"338 196 OFFCURVE",
"266 196 CURVE SMOOTH",
"206 196 OFFCURVE",
"173 250 OFFCURVE",
"173 350 CURVE SMOOTH",
"173 535 OFFCURVE",
"286 710 OFFCURVE",
"405 710 CURVE SMOOTH",
"448 710 OFFCURVE",
"472 687 OFFCURVE",
"472 647 CURVE SMOOTH",
"472 611 OFFCURVE",
"453 571 OFFCURVE",
"429 555 CURVE",
"444 535 OFFCURVE",
"467 524 OFFCURVE",
"492 524 CURVE SMOOTH",
"537 524 OFFCURVE",
"568 562 OFFCURVE",
"568 619 CURVE SMOOTH",
"568 704 OFFCURVE",
"498 757 OFFCURVE",
"384 757 CURVE SMOOTH",
"178 757 OFFCURVE",
"19 585 OFFCURVE",
"19 362 CURVE SMOOTH",
"19 208 OFFCURVE",
"94 109 OFFCURVE",
"212 109 CURVE SMOOTH",
"273 109 OFFCURVE",
"326 137 OFFCURVE",
"362 187 CURVE",
"366 187 LINE",
"316 -34 LINE SMOOTH",
"298 -115 OFFCURVE",
"264 -157 OFFCURVE",
"218 -157 CURVE SMOOTH",
"180 -157 OFFCURVE",
"153 -127 OFFCURVE",
"153 -85 CURVE SMOOTH",
"153 -42 OFFCURVE",
"181 -13 OFFCURVE",
"221 -13 CURVE SMOOTH",
"244 -13 OFFCURVE",
"266 -23 OFFCURVE",
"278 -39 CURVE",
"285 -30 OFFCURVE",
"289 -16 OFFCURVE",
"289 -1 CURVE SMOOTH",
"289 41 OFFCURVE",
"255 68 OFFCURVE",
"204 68 CURVE SMOOTH",
"128 68 OFFCURVE",
"69 7 OFFCURVE",
"69 -71 CURVE SMOOTH",
"69 -152 OFFCURVE",
"134 -207 OFFCURVE",
"231 -207 CURVE SMOOTH",
"355 -207 OFFCURVE",
"430 -117 OFFCURVE",
"473 82 CURVE SMOOTH",
"546 418 LINE"
);
}
);
};
layerId = UUID0;
paths = (
{
closed = 1;
nodes = (
"253 -6 OFFCURVE",
"294 16 OFFCURVE",
"335 68 CURVE",
"339 68 LINE",
"325 0 LINE",
"454 0 LINE",
"536 370 LINE",
"418 370 LINE",
"391 209 OFFCURVE",
"317 81 OFFCURVE",
"251 81 CURVE SMOOTH",
"202 81 OFFCURVE",
"172 150 OFFCURVE",
"172 262 CURVE SMOOTH",
"172 472 OFFCURVE",
"284 710 OFFCURVE",
"382 710 CURVE SMOOTH",
"412 710 OFFCURVE",
"431 686 OFFCURVE",
"431 648 CURVE SMOOTH",
"431 612 OFFCURVE",
"414 574 OFFCURVE",
"390 557 CURVE",
"405 537 OFFCURVE",
"426 526 OFFCURVE",
"451 526 CURVE SMOOTH",
"496 526 OFFCURVE",
"527 564 OFFCURVE",
"527 620 CURVE SMOOTH",
"527 701 OFFCURVE",
"461 757 OFFCURVE",
"367 757 CURVE SMOOTH",
"175 757 OFFCURVE",
"6 525 OFFCURVE",
"6 261 CURVE SMOOTH",
"6 93 OFFCURVE",
"76 -6 OFFCURVE",
"197 -6 CURVE SMOOTH"
);
},
{
closed = 1;
nodes = (
"274 -217 OFFCURVE",
"310 -163 OFFCURVE",
"310 -119 CURVE SMOOTH",
"310 -85 OFFCURVE",
"289 -64 OFFCURVE",
"257 -64 CURVE SMOOTH",
"224 -64 OFFCURVE",
"201 -84 OFFCURVE",
"201 -111 CURVE SMOOTH",
"201 -143 OFFCURVE",
"237 -153 OFFCURVE",
"237 -177 CURVE SMOOTH",
"237 -189 OFFCURVE",
"228 -202 OFFCURVE",
"203 -229 CURVE",
"223 -249 LINE"
);
}
);
width = 578;
}
);
unicode = 0122;
},
{
color = 4;
glyphname = Gdotaccent;
lastChange = "2016-09-22 17:50:23 +0000";
layers = (
{
background = {
paths = (
{
closed = 1;
nodes = (
"428 419 LINE",
"394 273 OFFCURVE",
"338 196 OFFCURVE",
"266 196 CURVE SMOOTH",
"206 196 OFFCURVE",
"173 250 OFFCURVE",
"173 350 CURVE SMOOTH",
"173 535 OFFCURVE",
"286 710 OFFCURVE",
"405 710 CURVE SMOOTH",
"448 710 OFFCURVE",
"472 687 OFFCURVE",
"472 647 CURVE SMOOTH",
"472 611 OFFCURVE",
"453 571 OFFCURVE",
"429 555 CURVE",
"444 535 OFFCURVE",
"467 524 OFFCURVE",
"492 524 CURVE SMOOTH",
"537 524 OFFCURVE",
"568 562 OFFCURVE",
"568 619 CURVE SMOOTH",
"568 704 OFFCURVE",
"498 757 OFFCURVE",
"384 757 CURVE SMOOTH",
"178 757 OFFCURVE",
"19 585 OFFCURVE",
"19 362 CURVE SMOOTH",
"19 208 OFFCURVE",
"94 109 OFFCURVE",
"212 109 CURVE SMOOTH",
"273 109 OFFCURVE",
"326 137 OFFCURVE",
"362 187 CURVE",
"366 187 LINE",
"316 -34 LINE SMOOTH",
"298 -115 OFFCURVE",
"264 -157 OFFCURVE",
"218 -157 CURVE SMOOTH",
"180 -157 OFFCURVE",
"153 -127 OFFCURVE",
"153 -85 CURVE SMOOTH",
"153 -42 OFFCURVE",
"181 -13 OFFCURVE",
"221 -13 CURVE SMOOTH",
"244 -13 OFFCURVE",
"266 -23 OFFCURVE",
"278 -39 CURVE",
"285 -30 OFFCURVE",
"289 -16 OFFCURVE",
"289 -1 CURVE SMOOTH",
"289 41 OFFCURVE",
"255 68 OFFCURVE",
"204 68 CURVE SMOOTH",
"128 68 OFFCURVE",
"69 7 OFFCURVE",
"69 -71 CURVE SMOOTH",
"69 -152 OFFCURVE",
"134 -207 OFFCURVE",
"231 -207 CURVE SMOOTH",
"355 -207 OFFCURVE",
"430 -117 OFFCURVE",
"473 82 CURVE SMOOTH",
"546 418 LINE"
);
}
);
};
layerId = UUID0;
paths = (
{
closed = 1;
nodes = (
"355 -207 OFFCURVE",
"430 -117 OFFCURVE",
"473 82 CURVE SMOOTH",
"546 418 LINE",
"428 419 LINE",
"394 273 OFFCURVE",
"338 196 OFFCURVE",
"266 196 CURVE SMOOTH",
"206 196 OFFCURVE",
"173 250 OFFCURVE",
"173 350 CURVE SMOOTH",
"173 535 OFFCURVE",
"286 710 OFFCURVE",
"405 710 CURVE SMOOTH",
"448 710 OFFCURVE",
"472 687 OFFCURVE",
"472 647 CURVE SMOOTH",
"472 611 OFFCURVE",
"453 571 OFFCURVE",
"429 555 CURVE",
"444 535 OFFCURVE",
"467 524 OFFCURVE",
"492 524 CURVE SMOOTH",
"537 524 OFFCURVE",
"568 562 OFFCURVE",
"568 619 CURVE SMOOTH",
"568 704 OFFCURVE",
"498 757 OFFCURVE",
"384 757 CURVE SMOOTH",
"178 757 OFFCURVE",
"19 585 OFFCURVE",
"19 362 CURVE SMOOTH",
"19 208 OFFCURVE",
"94 109 OFFCURVE",
"212 109 CURVE SMOOTH",
"273 109 OFFCURVE",
"326 137 OFFCURVE",
"362 187 CURVE",
"366 187 LINE",
"316 -34 LINE SMOOTH",
"298 -115 OFFCURVE",
"264 -157 OFFCURVE",
"218 -157 CURVE SMOOTH",
"180 -157 OFFCURVE",
"153 -127 OFFCURVE",
"153 -85 CURVE SMOOTH",
"153 -42 OFFCURVE",
"181 -13 OFFCURVE",
"221 -13 CURVE SMOOTH",
"244 -13 OFFCURVE",
"266 -23 OFFCURVE",
"278 -39 CURVE",
"285 -30 OFFCURVE",
"289 -16 OFFCURVE",
"289 -1 CURVE SMOOTH",
"289 41 OFFCURVE",
"255 68 OFFCURVE",
"204 68 CURVE SMOOTH",
"128 68 OFFCURVE",
"69 7 OFFCURVE",
"69 -71 CURVE SMOOTH",
"69 -152 OFFCURVE",
"134 -207 OFFCURVE",
"231 -207 CURVE SMOOTH"
);
},
{
closed = 1;
nodes = (
"460 822 OFFCURVE",
"496 856 OFFCURVE",
"496 900 CURVE SMOOTH",
"496 945 OFFCURVE",
"460 980 OFFCURVE",
"416 980 CURVE SMOOTH",
"372 980 OFFCURVE",
"337 945 OFFCURVE",
"337 900 CURVE SMOOTH",
"337 856 OFFCURVE",
"372 822 OFFCURVE",
"416 822 CURVE SMOOTH"
);
}
);
width = 578;
}
);
unicode = 0120;
},
{
color = 4;
glyphname = Gmacron;
lastChange = "2016-09-22 17:50:23 +0000";
layers = (
{
background = {
paths = (
{
closed = 1;
nodes = (
"428 419 LINE",
"394 273 OFFCURVE",
"338 196 OFFCURVE",
"266 196 CURVE SMOOTH",
"206 196 OFFCURVE",
"173 250 OFFCURVE",
"173 350 CURVE SMOOTH",
"173 535 OFFCURVE",
"286 710 OFFCURVE",
"405 710 CURVE SMOOTH",
"448 710 OFFCURVE",
"472 687 OFFCURVE",
"472 647 CURVE SMOOTH",
"472 611 OFFCURVE",
"453 571 OFFCURVE",
"429 555 CURVE",
"444 535 OFFCURVE",
"467 524 OFFCURVE",
"492 524 CURVE SMOOTH",
"537 524 OFFCURVE",
"568 562 OFFCURVE",
"568 619 CURVE SMOOTH",
"568 704 OFFCURVE",
"498 757 OFFCURVE",
"384 757 CURVE SMOOTH",
"178 757 OFFCURVE",
"19 585 OFFCURVE",
"19 362 CURVE SMOOTH",
"19 208 OFFCURVE",
"94 109 OFFCURVE",
"212 109 CURVE SMOOTH",
"273 109 OFFCURVE",
"326 137 OFFCURVE",
"362 187 CURVE",
"366 187 LINE",
"316 -34 LINE SMOOTH",
"298 -115 OFFCURVE",
"264 -157 OFFCURVE",
"218 -157 CURVE SMOOTH",
"180 -157 OFFCURVE",
"153 -127 OFFCURVE",
"153 -85 CURVE SMOOTH",
"153 -42 OFFCURVE",
"181 -13 OFFCURVE",
"221 -13 CURVE SMOOTH",
"244 -13 OFFCURVE",
"266 -23 OFFCURVE",
"278 -39 CURVE",
"285 -30 OFFCURVE",
"289 -16 OFFCURVE",
"289 -1 CURVE SMOOTH",
"289 41 OFFCURVE",
"255 68 OFFCURVE",
"204 68 CURVE SMOOTH",
"128 68 OFFCURVE",
"69 7 OFFCURVE",
"69 -71 CURVE SMOOTH",
"69 -152 OFFCURVE",
"134 -207 OFFCURVE",
"231 -207 CURVE SMOOTH",
"355 -207 OFFCURVE",
"430 -117 OFFCURVE",
"473 82 CURVE SMOOTH",
"546 418 LINE"
);
}
);
};
layerId = UUID0;
paths = (
{
closed = 1;
nodes = (
"355 -207 OFFCURVE",
"430 -117 OFFCURVE",
"473 82 CURVE SMOOTH",
"546 418 LINE",
"428 419 LINE",
"394 273 OFFCURVE",
"338 196 OFFCURVE",
"266 196 CURVE SMOOTH",
"206 196 OFFCURVE",
"173 250 OFFCURVE",
"173 350 CURVE SMOOTH",
"173 535 OFFCURVE",
"286 710 OFFCURVE",
"405 710 CURVE SMOOTH",
"448 710 OFFCURVE",
"472 687 OFFCURVE",
"472 647 CURVE SMOOTH",
"472 611 OFFCURVE",
"453 571 OFFCURVE",
"429 555 CURVE",
"444 535 OFFCURVE",
"467 524 OFFCURVE",
"492 524 CURVE SMOOTH",
"537 524 OFFCURVE",
"568 562 OFFCURVE",
"568 619 CURVE SMOOTH",
"568 704 OFFCURVE",
"498 757 OFFCURVE",
"384 757 CURVE SMOOTH",
"178 757 OFFCURVE",
"19 585 OFFCURVE",
"19 362 CURVE SMOOTH",
"19 208 OFFCURVE",
"94 109 OFFCURVE",
"212 109 CURVE SMOOTH",
"273 109 OFFCURVE",
"326 137 OFFCURVE",
"362 187 CURVE",
"366 187 LINE",
"316 -34 LINE SMOOTH",
"298 -115 OFFCURVE",
"264 -157 OFFCURVE",
"218 -157 CURVE SMOOTH",
"180 -157 OFFCURVE",
"153 -127 OFFCURVE",
"153 -85 CURVE SMOOTH",
"153 -42 OFFCURVE",
"181 -13 OFFCURVE",
"221 -13 CURVE SMOOTH",
"244 -13 OFFCURVE",
"266 -23 OFFCURVE",
"278 -39 CURVE",
"285 -30 OFFCURVE",
"289 -16 OFFCURVE",
"289 -1 CURVE SMOOTH",
"289 41 OFFCURVE",
"255 68 OFFCURVE",
"204 68 CURVE SMOOTH",
"128 68 OFFCURVE",
"69 7 OFFCURVE",
"69 -71 CURVE SMOOTH",
"69 -152 OFFCURVE",
"134 -207 OFFCURVE",
"231 -207 CURVE SMOOTH"
);
},
{
closed = 1;
nodes = (
"555 849 LINE",
"569 923 LINE",
"250 923 LINE",
"233 849 LINE"
);
}
);
width = 578;
}
);
unicode = 1E20;
},
{
color = 4;
glyphname = Gstroke;
lastChange = "2017-10-26 14:04:41 +0000";
layers = (
{
components = (
{
name = G;
}
);
layerId = UUID0;
paths = (
{
closed = 1;
nodes = (
"579 309 LINE",
"591 359 LINE",
"302 359 LINE",
"288 309 LINE"
);
}
);
width = 601;
}
);
leftMetricsKey = G;
rightMetricsKey = G;
unicode = 01E4;
},
{
color = 4;
glyphname = H;
lastChange = "2016-09-25 07:41:01 +0000";
layers = (
{
background = {
paths = (
{
closed = 1;
nodes = (
"535 0 LINE",
"694 748 LINE",
"550 748 LINE",
"486 450 LINE",
"339 450 LINE",
"403 748 LINE",
"390 749 OFFCURVE",
"378 750 OFFCURVE",
"363 750 CURVE SMOOTH",
"196 750 OFFCURVE",
"12 623 OFFCURVE",
"12 490 CURVE SMOOTH",
"12 418 OFFCURVE",
"50 393 OFFCURVE",
"119 393 CURVE",
"119 401 OFFCURVE",
"105 410 OFFCURVE",
"105 461 CURVE SMOOTH",
"105 568 OFFCURVE",
"157 643 OFFCURVE",
"245 680 CURVE",
"100 0 LINE",
"244 0 LINE",
"324 376 LINE",
"471 376 LINE",
"391 0 LINE"
);
}
);
};
layerId = UUID0;
paths = (
{
closed = 1;
nodes = (
"244 0 LINE",
"324 376 LINE",
"471 376 LINE",
"391 0 LINE",
"535 0 LINE",
"694 748 LINE",
"550 748 LINE",
"486 450 LINE",
"339 450 LINE",
"403 748 LINE",
"390 749 OFFCURVE",
"378 750 OFFCURVE",
"363 750 CURVE SMOOTH",
"196 750 OFFCURVE",
"12 623 OFFCURVE",
"12 490 CURVE SMOOTH",
"12 418 OFFCURVE",
"50 393 OFFCURVE",
"119 393 CURVE",
"119 401 OFFCURVE",
"105 410 OFFCURVE",
"105 461 CURVE SMOOTH",
"105 568 OFFCURVE",
"157 643 OFFCURVE",
"245 680 CURVE",
"100 0 LINE"
);
}
);
width = 665;
}
);
unicode = 0048;
},
{
color = 4;
glyphname = Hbar;
lastChange = "2016-09-22 17:50:23 +0000";
layers = (
{
background = {
paths = (
{
closed = 1;
nodes = (
"244 0 LINE",
"324 376 LINE",
"471 376 LINE",
"391 0 LINE",
"535 0 LINE",
"694 748 LINE",
"550 748 LINE",
"486 450 LINE",
"339 450 LINE",
"403 748 LINE",
"390 749 OFFCURVE",
"378 750 OFFCURVE",
"363 750 CURVE SMOOTH",
"196 750 OFFCURVE",
"12 623 OFFCURVE",
"12 490 CURVE SMOOTH",
"12 418 OFFCURVE",
"50 393 OFFCURVE",
"119 393 CURVE",
"119 401 OFFCURVE",
"105 410 OFFCURVE",
"105 461 CURVE SMOOTH",
"105 568 OFFCURVE",
"157 643 OFFCURVE",
"245 680 CURVE",
"100 0 LINE"
);
}
);
};
layerId = UUID0;
paths = (
{
closed = 1;
nodes = (
"244 0 LINE",
"324 376 LINE",
"471 376 LINE",
"391 0 LINE",
"535 0 LINE",
"694 748 LINE",
"550 748 LINE",
"486 450 LINE",
"339 450 LINE",
"403 748 LINE",
"390 749 OFFCURVE",
"378 750 OFFCURVE",
"363 750 CURVE SMOOTH",
"196 750 OFFCURVE",
"12 623 OFFCURVE",
"12 490 CURVE SMOOTH",
"12 418 OFFCURVE",
"50 393 OFFCURVE",
"119 393 CURVE",
"119 401 OFFCURVE",
"105 410 OFFCURVE",
"105 461 CURVE SMOOTH",
"105 568 OFFCURVE",
"157 643 OFFCURVE",
"245 680 CURVE",
"100 0 LINE"
);
},
{
closed = 1;
nodes = (
"728 516 LINE",
"742 566 LINE",
"177 566 LINE",
"163 516 LINE"
);
}
);
width = 665;
}
);
unicode = 0126;
},
{
color = 4;
glyphname = Hbrevebelow;
lastChange = "2016-09-22 17:50:23 +0000";
layers = (
{
background = {
paths = (
{
closed = 1;
nodes = (
"535 0 LINE",
"694 748 LINE",
"550 748 LINE",
"486 450 LINE",
"339 450 LINE",
"403 748 LINE",
"390 749 OFFCURVE",
"378 750 OFFCURVE",
"363 750 CURVE SMOOTH",
"196 750 OFFCURVE",
"12 623 OFFCURVE",
"12 490 CURVE SMOOTH",
"12 418 OFFCURVE",
"50 393 OFFCURVE",
"119 393 CURVE",
"119 401 OFFCURVE",
"105 410 OFFCURVE",
"105 461 CURVE SMOOTH",
"105 568 OFFCURVE",
"157 643 OFFCURVE",
"245 680 CURVE",
"100 0 LINE",
"244 0 LINE",
"324 376 LINE",
"471 376 LINE",
"391 0 LINE"
);
}
);
};
layerId = UUID0;
paths = (
{
closed = 1;
nodes = (
"244 0 LINE",
"324 376 LINE",
"471 376 LINE",
"391 0 LINE",
"535 0 LINE",
"694 748 LINE",
"550 748 LINE",
"486 450 LINE",
"339 450 LINE",
"403 748 LINE",
"390 749 OFFCURVE",
"378 750 OFFCURVE",
"363 750 CURVE SMOOTH",
"196 750 OFFCURVE",
"12 623 OFFCURVE",
"12 490 CURVE SMOOTH",
"12 418 OFFCURVE",
"50 393 OFFCURVE",
"119 393 CURVE",
"119 401 OFFCURVE",
"105 410 OFFCURVE",
"105 461 CURVE SMOOTH",
"105 568 OFFCURVE",
"157 643 OFFCURVE",
"245 680 CURVE",
"100 0 LINE"
);
},
{
closed = 1;
nodes = (
"376 -203 OFFCURVE",
"462 -146 OFFCURVE",
"473 -72 CURVE",
"392 -72 LINE",
"386 -116 OFFCURVE",
"341 -150 OFFCURVE",
"290 -150 CURVE SMOOTH",
"243 -150 OFFCURVE",
"215 -123 OFFCURVE",
"215 -72 CURVE",
"131 -72 LINE",
"131 -157 OFFCURVE",
"182 -203 OFFCURVE",
"275 -203 CURVE SMOOTH"
);
}
);
width = 665;
}
);
unicode = 1E2A;
},
{
color = 4;
glyphname = Hcaron;
lastChange = "2017-10-23 11:34:22 +0000";
layers = (
{
background = {
paths = (
{
closed = 1;
nodes = (
"67 -105 OFFCURVE",
"60 -90 OFFCURVE",
"60 -58 CURVE SMOOTH",
"60 46 OFFCURVE",
"115 236 OFFCURVE",
"190 399 CURVE",
"234 395 OFFCURVE",
"273 386 OFFCURVE",
"324 363 CURVE",
"247 0 LINE",
"391 0 LINE",
"548 736 LINE",
"524 747 OFFCURVE",
"492 750 OFFCURVE",
"469 750 CURVE SMOOTH",
"352 750 OFFCURVE",
"222 615 OFFCURVE",
"121 455 CURVE",
"100 457 OFFCURVE",
"82 458 OFFCURVE",
"69 458 CURVE SMOOTH",
"-48 458 OFFCURVE",
"-135 403 OFFCURVE",
"-135 335 CURVE SMOOTH",
"-135 296 OFFCURVE",
"-108 277 OFFCURVE",
"-73 277 CURVE SMOOTH",
"-42 277 OFFCURVE",
"-17 292 OFFCURVE",
"-17 316 CURVE SMOOTH",
"-17 331 OFFCURVE",
"-25 347 OFFCURVE",
"-30 347 CURVE",
"-17 382 OFFCURVE",
"24 395 OFFCURVE",
"87 399 CURVE",
"-1 246 OFFCURVE",
"-60 81 OFFCURVE",
"-60 -8 CURVE SMOOTH",
"-60 -112 OFFCURVE",
"21 -114 OFFCURVE",
"74 -114 CURVE"
);
},
{
closed = 1;
nodes = (
"294 423 OFFCURVE",
"251 434 OFFCURVE",
"211 442 CURVE",
"267 554 OFFCURVE",
"331 647 OFFCURVE",
"391 679 CURVE",
"333 407 LINE"
);
},
{
closed = 1;
nodes = (
"500 811 LINE",
"712 1000 LINE",
"668 1000 LINE",
"511 920 LINE",
"451 1000 LINE",
"419 1000 LINE",
"479 811 LINE"
);
}
);
};
components = (
{
name = H;
},
{
name = caroncomb;
transform = "{1, 0, 0, 1, 263, 250}";
}
);
layerId = UUID0;
width = 665;
}
);
unicode = 021E;
},
{
color = 4;
glyphname = Hcircumflex;
lastChange = "2016-09-22 17:50:23 +0000";
layers = (
{
background = {
paths = (
{
closed = 1;
nodes = (
"535 0 LINE",
"694 748 LINE",
"550 748 LINE",
"486 450 LINE",
"339 450 LINE",
"403 748 LINE",
"390 749 OFFCURVE",
"378 750 OFFCURVE",
"363 750 CURVE SMOOTH",
"196 750 OFFCURVE",
"12 623 OFFCURVE",
"12 490 CURVE SMOOTH",
"12 418 OFFCURVE",
"50 393 OFFCURVE",
"119 393 CURVE",
"119 401 OFFCURVE",
"105 410 OFFCURVE",
"105 461 CURVE SMOOTH",
"105 568 OFFCURVE",
"157 643 OFFCURVE",
"245 680 CURVE",
"100 0 LINE",
"244 0 LINE",
"324 376 LINE",
"471 376 LINE",
"391 0 LINE"
);
}
);
};
layerId = UUID0;
paths = (
{
closed = 1;
nodes = (
"244 0 LINE",
"324 376 LINE",
"471 376 LINE",
"391 0 LINE",
"535 0 LINE",
"694 748 LINE",
"550 748 LINE",
"486 450 LINE",
"339 450 LINE",
"403 748 LINE",
"390 749 OFFCURVE",
"378 750 OFFCURVE",
"363 750 CURVE SMOOTH",
"196 750 OFFCURVE",
"12 623 OFFCURVE",
"12 490 CURVE SMOOTH",
"12 418 OFFCURVE",
"50 393 OFFCURVE",
"119 393 CURVE",
"119 401 OFFCURVE",
"105 410 OFFCURVE",
"105 461 CURVE SMOOTH",
"105 568 OFFCURVE",
"157 643 OFFCURVE",
"245 680 CURVE",
"100 0 LINE"
);
},
{
closed = 1;
nodes = (
"381 811 LINE",
"539 891 LINE",
"599 811 LINE",
"630 811 LINE",
"570 1000 LINE",
"549 1000 LINE",
"337 811 LINE"
);
}
);
width = 665;
}
);
unicode = 0124;
},
{
color = 4;
glyphname = Hdotbelow;
lastChange = "2016-09-22 17:50:23 +0000";
layers = (
{
background = {
paths = (
{
closed = 1;
nodes = (
"535 0 LINE",
"694 748 LINE",
"550 748 LINE",
"486 450 LINE",
"339 450 LINE",
"403 748 LINE",
"390 749 OFFCURVE",
"378 750 OFFCURVE",
"363 750 CURVE SMOOTH",
"196 750 OFFCURVE",
"12 623 OFFCURVE",
"12 490 CURVE SMOOTH",
"12 418 OFFCURVE",
"50 393 OFFCURVE",
"119 393 CURVE",
"119 401 OFFCURVE",
"105 410 OFFCURVE",
"105 461 CURVE SMOOTH",
"105 568 OFFCURVE",
"157 643 OFFCURVE",
"245 680 CURVE",
"100 0 LINE",
"244 0 LINE",
"324 376 LINE",
"471 376 LINE",
"391 0 LINE"
);
}
);
};
layerId = UUID0;
paths = (
{
closed = 1;
nodes = (
"244 0 LINE",
"324 376 LINE",
"471 376 LINE",
"391 0 LINE",
"535 0 LINE",
"694 748 LINE",
"550 748 LINE",
"486 450 LINE",
"339 450 LINE",
"403 748 LINE",
"390 749 OFFCURVE",
"378 750 OFFCURVE",
"363 750 CURVE SMOOTH",
"196 750 OFFCURVE",
"12 623 OFFCURVE",
"12 490 CURVE SMOOTH",
"12 418 OFFCURVE",
"50 393 OFFCURVE",
"119 393 CURVE",
"119 401 OFFCURVE",
"105 410 OFFCURVE",
"105 461 CURVE SMOOTH",
"105 568 OFFCURVE",
"157 643 OFFCURVE",
"245 680 CURVE",
"100 0 LINE"
);
},
{
closed = 1;
nodes = (
"333 -231 OFFCURVE",
"370 -196 OFFCURVE",
"370 -152 CURVE SMOOTH",
"370 -108 OFFCURVE",
"333 -72 OFFCURVE",
"290 -72 CURVE SMOOTH",
"246 -72 OFFCURVE",
"210 -108 OFFCURVE",
"210 -152 CURVE SMOOTH",
"210 -196 OFFCURVE",
"246 -231 OFFCURVE",
"290 -231 CURVE SMOOTH"
);
}
);
width = 665;
}
);
unicode = 1E24;
},
{
color = 4;
glyphname = I;
lastChange = "2016-09-25 07:30:24 +0000";
layers = (
{
anchors = (
{
name = bottom;
position = "{135, 0}";
},
{
name = ogonek;
position = "{284, 10}";
},
{
name = top;
position = "{314, 748}";
},
{
name = topleft;
position = "{126, 748}";
}
);
background = {
paths = (
{
closed = 1;
nodes = (
"238 0 LINE",
"397 748 LINE",
"384 749 OFFCURVE",
"372 750 OFFCURVE",
"357 750 CURVE SMOOTH",
"190 750 OFFCURVE",
"6 623 OFFCURVE",
"6 490 CURVE SMOOTH",
"6 418 OFFCURVE",
"44 393 OFFCURVE",
"113 393 CURVE",
"113 401 OFFCURVE",
"99 410 OFFCURVE",
"99 461 CURVE SMOOTH",
"99 569 OFFCURVE",
"151 643 OFFCURVE",
"239 679 CURVE",
"94 0 LINE"
);
}
);
};
layerId = UUID0;
paths = (
{
closed = 1;
nodes = (
"238 0 LINE",
"397 748 LINE",
"384 749 OFFCURVE",
"372 750 OFFCURVE",
"357 750 CURVE SMOOTH",
"190 750 OFFCURVE",
"6 623 OFFCURVE",
"6 490 CURVE SMOOTH",
"6 418 OFFCURVE",
"44 393 OFFCURVE",
"113 393 CURVE",
"113 401 OFFCURVE",
"99 410 OFFCURVE",
"99 461 CURVE SMOOTH",
"99 569 OFFCURVE",
"151 643 OFFCURVE",
"239 679 CURVE",
"94 0 LINE"
);
}
);
width = 375;
}
);
unicode = 0049;
},
